<svg width="189" height="32" viewBox="0 0 189 32" fill="none" xmlns="http://www.w3.org/2000/svg">
<path d="M177.766 24.1722C178.849 24.31 179.868 23.84 180.569 23.3109C180.653 23.2493 180.737 23.1829 180.817 23.1165C182.292 24.0811 185.683 23.2272 186.548 21.8441C187.249 20.7392 185.998 19.0978 185.613 17.9977C185.291 17.0773 185.011 16.152 184.758 15.2218C185.263 14.9019 185.725 14.4835 185.532 14.2694L184.131 12.7683C183.879 12.4976 182.261 13.7207 182.324 14.0283C182.762 16.1246 183.37 18.2017 184.145 20.2495C184.331 20.7417 184.566 21.2338 184.737 21.726C184.791 21.8436 184.833 21.9636 184.863 22.0853C184.163 22.1001 183.672 22.292 182.877 21.9254C182.588 21.7916 182.352 21.6086 182.191 21.3934C182.03 21.1783 181.949 20.938 181.956 20.6949C181.956 20.5029 180.155 21.3593 180.117 21.8614C180.029 21.9222 179.96 21.9952 179.915 22.0757C179.87 22.1562 179.849 22.2425 179.854 22.329C179.916 22.4768 179.946 22.6302 179.945 22.7842C179.589 22.8292 179.222 22.7957 178.894 22.6883C178.69 22.6149 178.51 22.5132 178.364 22.3892C178.219 22.2652 178.11 22.1216 178.046 21.9672C177.988 21.8175 177.965 21.6619 177.98 21.507C177.99 21.4224 178.018 21.3394 178.064 21.2609C178.355 21.0493 178.656 20.7687 178.582 20.5866C178.474 20.3085 177.742 20.7712 177.64 20.8327C177.095 21.1784 176.653 21.5967 176.34 22.0632C175.938 22.3437 175.64 22.6661 175.769 22.863C175.799 22.9104 175.814 22.9614 175.815 23.0131H175.682C175.102 23.0722 174.51 23.0386 173.951 22.9147C172.935 22.5923 173.289 21.1772 173.517 20.6112C173.559 20.5103 173.541 20.4587 173.489 20.4365C173.916 20.0305 174.19 19.6121 173.566 19.8533C160.895 24.6422 145.815 24.4872 131.82 24.3912C124.285 24.3395 116.658 24.3001 109.155 23.7981C105.584 23.5681 102.094 22.9202 98.8277 21.8811C97.7556 21.5088 96.5575 21.3529 95.3667 21.4307C95.2811 21.3792 95.191 21.3316 95.097 21.288C94.8658 21.1723 94.3963 21.4209 93.976 21.7334C93.8744 21.7703 93.7728 21.8122 93.6712 21.8565C89.8178 21.8565 86.2972 23.8621 83.0464 25.1172C78.6418 26.8087 74.0149 28.1973 69.2302 29.2638C68.6779 29.4418 68.2212 29.7393 67.9271 30.1129C67.8115 30.2531 67.4366 30.7059 67.9691 30.5878C72.3279 29.6132 76.5599 28.3782 80.6187 26.8964C84.0237 25.6512 87.786 23.3896 91.7971 23.2567C91.6159 23.4663 91.4954 23.699 91.4425 23.9414C91.3896 24.1838 91.4053 24.4312 91.4888 24.6693C91.8391 25.5134 92.9321 25.7472 94.0075 25.4076C95.4333 24.9425 96.4036 23.9876 96.4421 23.0451C97.0517 23.2173 97.6437 23.4314 98.2252 23.6185C99.3563 23.9828 100.528 24.2816 101.728 24.5118C107.508 25.6217 113.821 25.5109 119.762 25.6512C131.61 25.9268 143.825 26.2787 155.578 24.972C161.249 24.3395 166.759 23.2149 171.874 21.3741C171.806 21.4512 171.752 21.5338 171.713 21.6202C171.436 22.3043 171.222 23.2173 171.674 23.8892C172.126 24.561 173.527 24.4896 174.382 24.4035C175.169 24.2803 175.894 24.0118 176.484 23.6259C176.635 23.7725 176.826 23.8964 177.046 23.9902C177.267 24.0841 177.511 24.1459 177.766 24.1722V24.1722ZM93.8359 24.0024C93.5466 23.8228 93.3609 23.5751 93.3139 23.3059C93.468 23.3207 93.6187 23.3429 93.7728 23.365C93.8663 23.367 93.9594 23.3558 94.0466 23.3322C94.1338 23.3085 94.2135 23.2728 94.2808 23.2272C94.4532 23.377 94.5732 23.5532 94.6311 23.7415C94.7572 24.2066 94.5435 24.374 93.8359 24.0024V24.0024Z" fill="white"/>
<path d="M84.7907 21.4381C84.4813 17.8737 83.886 14.3243 83.0076 10.8069C83.7083 10.6568 84.6996 9.52971 84.507 9.48049C83.7115 9.28544 82.9918 8.96272 82.4051 8.53797C82.0303 8.27219 80.517 9.50019 80.601 9.79796C81.8015 14.0292 82.5916 18.3129 82.9656 22.6194C82.9656 22.8408 84.8327 21.9303 84.7907 21.4381Z" fill="white"/>
<path d="M70.8767 24.5191C72.4853 24.2588 73.9037 23.5957 74.8667 22.6538C75.0006 22.8355 75.1939 22.9923 75.4307 23.1115C76.0822 23.4093 77.0946 23.2296 77.7707 23.0426C78.9267 22.7227 80.1493 21.8958 80.314 20.9951C80.4576 20.1904 79.9006 19.2085 79.6519 18.4407L79.284 17.3086C79.764 16.9592 80.1633 16.5113 79.9636 16.3981C79.4848 16.1274 79.0512 15.8194 78.671 15.4802C78.3732 15.2144 76.7688 16.435 76.8669 16.7402C77.2476 17.9116 77.6283 19.0813 78.0089 20.2494C78.107 20.5521 78.1736 21.4799 78.4258 21.8244C77.9144 21.8835 77.48 21.9352 77.0246 21.6522C76.5188 21.2833 76.1652 20.8248 76.0017 20.3257C75.998 20.1698 75.977 20.0143 75.9386 19.8606C75.9386 19.8262 75.8861 19.8139 75.8195 19.8212C75.6514 19.2798 75.5568 18.736 75.4692 18.3447C75.2871 17.1869 75.2064 16.0223 75.2275 14.8576C75.2275 14.6755 73.3779 15.5466 73.3849 16.0486C73.4024 17.7713 73.4269 19.5382 74.1135 21.2166C74.3167 22.2994 73.5986 23.109 71.9276 23.2222C70.7856 23.301 70.0079 22.9762 69.6821 22.2108C69.0025 20.5817 69.4159 18.7655 69.7347 17.1241C69.7732 16.9297 69.3038 17.1068 69.2512 17.1241C66.694 18.1306 65.8883 19.8754 65.3978 21.7826C65.2402 22.3929 65.0931 23.1853 64.5886 23.7144C63.9125 24.4256 62.8686 24.3789 62.2731 23.6677C61.3868 22.6144 61.2642 21.0591 61.1346 19.868C61.1101 19.6514 59.2394 20.5718 59.292 21.0591C59.4601 22.6095 60.0627 27.113 63.6883 25.2648C64.9002 24.591 65.8398 23.7061 66.4137 22.6981C66.7834 22.0736 67.0491 21.4212 67.2054 20.7539C67.3175 20.3331 67.3981 19.425 67.7869 18.8197C67.3666 20.9237 66.6029 25.1073 70.8767 24.5191Z" fill="white"/>
<path d="M64.4798 18.4727C63.8492 14.7665 63.2175 11.0596 62.5846 7.35179C63.2152 7.07124 64.1435 6.32558 63.8562 6.10163C63.1343 5.53628 62.5197 4.90762 62.0276 4.23134C61.8455 3.98525 60.1675 5.16894 60.2235 5.49378L62.6372 19.6662C62.6792 19.9123 64.5639 18.9501 64.4798 18.4727Z" fill="white"/>
<path d="M56.6679 20.5645C57.404 20.2336 57.9961 19.7666 58.3792 19.2149C58.7623 18.6631 58.9217 18.0479 58.8399 17.4367C58.6192 15.4679 57.9256 13.4623 57.4596 11.5034L56.6154 7.92274C57.1759 7.63235 57.8205 7.13032 57.6979 6.88915C57.3313 6.13294 56.7072 5.45116 55.8798 4.90319C55.4804 4.63987 54.0056 5.86787 54.0757 6.16564L56.0304 14.4368C56.3317 15.7116 56.6925 16.9888 56.9307 18.2734C57.0042 18.6647 57.3861 19.8139 56.3702 19.3439C56.2936 19.3097 56.2241 19.2683 56.1635 19.2208C56.0326 19.0041 55.8816 18.7937 55.7116 18.5908C55.6429 18.4001 55.588 18.2071 55.547 18.0125C55.4909 17.7664 53.5957 18.7508 53.7043 19.2061C53.7289 19.307 53.7604 19.4079 53.7919 19.5063C53.7648 19.5445 53.7507 19.5866 53.7507 19.6293C53.7507 19.672 53.7648 19.7142 53.7919 19.7524C53.9157 19.8902 54.0325 20.0305 54.1422 20.1732C54.1483 20.1846 54.1565 20.1954 54.1668 20.2052C54.5491 20.7184 54.7826 21.2798 54.8535 21.8569C54.9245 22.434 54.8316 23.0152 54.5801 23.5668C53.8199 25.1516 50.3764 26.104 48.1485 26.1852C46.2848 26.2566 44.5753 25.6808 43.8712 24.4331C43.09 23.0525 43.7836 21.6079 44.6384 20.3307C45.1463 19.5703 43.2371 20.6999 43.0164 21.0272C41.9655 22.6095 40.9847 24.5241 42.3684 26.1705C43.9693 28.0703 47.4864 27.6643 49.914 26.9383C53.6763 25.8038 57.0813 23.3429 56.6679 20.5645Z" fill="white"/>
<path d="M37.9055 21.2511C38.1174 21.2629 38.3307 21.2547 38.5395 21.2265C39.8637 21.0591 41.0968 20.1141 41.4366 19.1421C42.2795 19.0881 43.1171 18.9986 43.9448 18.8738C46.9354 18.4009 49.7592 17.5086 52.2471 16.2505C52.4467 16.152 53.7044 15.0397 53.249 15.0766C49.3255 15.4088 45.9275 13.3121 42.0181 13.3195C40.7885 13.3195 39.8251 13.7551 39.0895 14.4343C38.578 14.9068 38.0386 15.7681 39.0895 16.0807C39.7376 16.2751 41.1143 14.8281 40.841 14.7493H40.806C41.1374 14.753 41.4683 14.7686 41.7974 14.7961C43.0537 14.9641 44.2859 15.2112 45.4791 15.5344C46.9329 15.8986 48.3551 16.312 49.851 16.4498C47.8142 17.1353 45.6284 17.5761 43.3843 17.7541C41.7729 17.8821 40.2315 17.6852 38.8758 18.015C39.051 17.6655 38.3188 17.978 38.1752 18.0371C37.7168 18.2661 37.3539 18.5771 37.1243 18.9378C37.0054 19.0459 36.9043 19.1632 36.823 19.2873C36.6304 19.4455 36.3653 19.5517 36.0733 19.5875C35.723 19.6785 34.1607 20.5989 34.5635 20.9164C36.2135 22.2158 37.331 24.0836 36.6268 25.8382C35.9472 27.5338 33.0782 28.181 30.8152 28.3139C28.4962 28.4517 26.3208 27.9546 25.3294 26.3796C24.2119 24.6053 25.2418 22.7178 26.545 21.1551C26.8427 20.8032 26.5134 20.845 26.1736 20.909C25.6832 21.0025 25.1683 21.5587 24.9265 21.8491C23.3677 23.7169 22.1241 26.0868 23.8756 28.1121C25.5676 30.0809 29.3054 29.9357 32.0343 29.2663C34.5019 28.6614 36.5699 27.444 37.8494 25.8431C38.9844 24.3567 38.8408 22.6981 37.9055 21.2511ZM39.657 19.2036C39.614 19.268 39.5993 19.34 39.615 19.4103C39.706 19.6564 39.9653 19.7991 39.7411 19.8828C39.5169 19.9665 38.8408 19.7204 38.6901 19.6096C38.5279 19.4852 38.3975 19.342 38.3048 19.1864C38.508 19.2138 38.7162 19.2179 38.9214 19.1987C39.1631 19.2036 39.4118 19.2036 39.6605 19.2036H39.657Z" fill="white"/>
<path d="M35.1346 17.4514C34.3943 13.76 33.6563 10.0686 32.9207 6.37725C33.1051 6.42898 33.2948 6.47093 33.4882 6.50276C34.0837 6.59873 35.5059 5.20338 35.0505 5.12709C33.891 4.9376 33.1484 4.38882 32.3777 3.78835C32.0274 3.51027 30.5141 4.75796 30.5736 5.05081C31.4797 9.58054 32.3859 14.1111 33.292 18.6425C33.341 18.8886 35.2292 17.9264 35.1346 17.4514Z" fill="white"/>
<path d="M29.1898 21.2781C28.973 21.4327 28.789 21.6084 28.6433 21.7998C28.5838 21.8835 28.4647 22.0287 28.5697 22.1173C28.9201 22.4249 29.3089 22.7325 29.6767 23.0426C29.7678 23.1189 30.0656 22.9934 30.1216 22.9688C30.3829 22.8531 30.6189 22.7113 30.8222 22.548C31.04 22.3943 31.2253 22.2194 31.3722 22.0287C31.4283 21.9426 31.5474 21.7998 31.4423 21.7112L30.3353 20.7859C30.2442 20.7096 29.9465 20.8351 29.8904 20.8598C29.6292 20.9746 29.3932 21.1155 29.1898 21.2781V21.2781Z" fill="#FFFDFA"/>
<path d="M73.073 10.8315C72.6141 10.8536 71.9975 11.4467 71.7698 11.6805C71.2584 12.2047 69.9692 14.0356 71.917 14.0381C72.565 14.0381 73.1571 13.7379 73.644 13.3367C74.5443 13.8289 75.6793 14.23 76.6636 13.7305C78.1279 12.9922 78.2155 12.0472 78.0123 10.861C77.9703 10.6149 76.0856 11.5722 76.1697 12.0521C76.1697 12.1432 76.2047 12.2441 76.2223 12.3474L76.0716 12.2933C75.6305 12.1197 75.2172 11.9134 74.8385 11.6781C74.4462 11.432 73.5284 12.2662 73.1886 12.6624L73.2061 12.6304C73.0527 12.5738 72.9242 12.4886 72.8348 12.3843C72.502 11.9955 72.8032 11.6313 73.1185 11.3065C73.3112 11.1071 73.5529 10.8069 73.073 10.8315Z" fill="white"/>
<path d="M65.8706 11.1416C67.8638 10.9472 69.5838 10.236 71.3459 9.59371C73.5295 8.79801 75.706 7.99247 77.8756 7.17708C78.324 7.00728 79.8093 5.59471 78.7514 5.99092C76.9578 6.66521 75.1607 7.33294 73.3602 7.99411C71.4825 8.68071 69.5628 9.55926 67.4329 9.76598C66.932 9.8152 66.4521 10.1991 66.1613 10.4649C66.1088 10.5215 65.4747 11.181 65.8706 11.1416Z" fill="white"/>
<path d="M72.989 6.57662C73.3113 6.37236 73.8998 5.97861 73.8928 5.63654C73.8585 4.11512 73.7065 2.59613 73.4374 1.0863C73.3953 0.840209 71.5072 1.79998 71.5948 2.27739C71.8703 3.78692 72.027 5.30598 72.0642 6.82764C72.0642 7.12787 72.9154 6.62338 72.989 6.57662Z" fill="white"/>
<path d="M182.632 24.8662C182.12 25.109 181.693 25.4305 181.385 25.8063C181.322 25.8949 181.213 26.0302 181.311 26.1237L182.271 27.049C182.351 27.1303 182.667 26.9974 182.716 26.9777C182.975 26.8599 183.211 26.7184 183.416 26.5569C183.634 26.4027 183.818 26.2269 183.963 26.0351C184.022 25.9465 184.135 25.8137 184.036 25.7201C183.718 25.4125 183.395 25.1074 183.077 24.8022C182.993 24.7136 182.681 24.8465 182.632 24.8662Z" fill="white"/>
<path d="M188.629 25.7496C184.786 27.1959 180.739 28.3564 176.554 29.2121C176.848 28.6289 175.097 29.6772 174.89 29.9922C174.82 30.0981 174.746 30.2063 174.676 30.3146C174.561 30.4893 174.48 30.7034 174.858 30.6271C179.333 29.7258 183.656 28.4882 187.753 26.9358C188.202 26.7635 189.683 25.3509 188.629 25.7496Z" fill="white"/>
<path d="M174.918 17.7664C175.366 18.0469 176.599 16.8411 176.698 16.6147C176.932 16.0001 177.384 15.4372 178.011 14.9782C178.162 14.8699 178.894 14.3137 178.628 14.1414C178.362 13.9692 177.598 14.55 177.482 14.6336C176.905 15.0415 176.394 15.4929 175.958 15.9798L174.557 15.0938C174.161 14.8477 172.406 16.184 172.806 16.4227L174.918 17.7664Z" fill="white"/>
<path d="M88.3918 18.2167C88.7001 18.5022 90.2415 17.2323 90.1959 16.9543C90.1421 16.6363 90.1658 16.3142 90.266 16.0019C90.3291 15.855 90.4027 15.7104 90.4867 15.5688C90.5252 15.4999 90.7704 15.3227 90.5427 15.458C90.9141 15.2415 91.5937 14.8526 91.6567 14.486C91.7198 14.1193 91.2153 14.3482 90.9806 14.486C90.262 14.8984 89.6412 15.3885 89.1415 15.9379L88.0415 14.9117C87.7998 14.6878 85.8942 15.8961 86.29 16.2431L88.3918 18.2167Z" fill="white"/>
<path d="M97.7277 25.8358L85.544 30.0932C85.0047 30.2834 84.553 30.5769 84.2409 30.9397C84.1603 31.0406 83.7609 31.5993 84.2829 31.4147L96.4666 27.1598C97.0054 26.9678 97.4568 26.6737 97.7697 26.3107C97.8503 26.2098 98.2497 25.6537 97.7277 25.8358Z" fill="white"/>
<path d="M46.46 9.29345C46.1972 9.12118 45.409 9.70196 45.3145 9.78563C44.4667 10.4132 43.1881 12.0152 44.824 12.6403C45.4931 12.8864 46.2253 12.3942 46.7017 12.1038C46.8243 12.0226 46.9469 11.9414 47.052 11.8577C47.4198 12.4484 48.0854 12.8421 49.1083 12.3795C50.5796 11.7224 51.2592 10.7183 50.9649 9.5297C50.8949 9.23685 50.1312 9.71427 50.0261 9.77579C49.7529 9.94806 49.0452 10.4058 49.1223 10.7134C49.1468 10.8168 49.1748 10.9177 49.1994 11.021C48.9001 10.7655 48.7095 10.4559 48.6494 10.1277C48.5198 9.71181 47.0169 10.9226 46.9189 11.0702C46.6456 11.4763 46.2182 11.1539 46.0361 10.866C45.9562 10.7305 45.9088 10.5866 45.896 10.4402C45.896 10.3123 46.0816 9.94806 45.8259 10.1277C45.9905 10.0219 46.7262 9.46817 46.46 9.29345Z" fill="white"/>
<path d="M35.6076 10.7872L52.9268 4.30267C53.3752 4.13533 54.8605 2.72276 53.8026 3.11897L36.4833 9.60103C36.0349 9.76838 34.5496 11.1809 35.6076 10.7872Z" fill="white"/>
<path d="M37.2504 7.73816C37.2504 8.03839 38.1227 7.52898 38.1927 7.49207C38.5185 7.28535 39.0965 6.89897 39.093 6.55444C39.0917 4.96827 38.6217 3.39957 37.7128 1.9476C37.6252 1.80733 35.653 2.804 35.9613 3.27895C36.8226 4.68732 37.2615 6.20532 37.2504 7.73816V7.73816Z" fill="white"/>
<path d="M29.9954 14.5205C30.3457 12.7289 29.3368 10.583 28.7413 8.86035C28.3139 7.62989 27.8164 6.39943 27.2665 5.16897C27.7451 5.02855 28.1544 4.79235 28.4435 4.48975C28.4995 4.43807 29.1231 3.75148 28.7342 3.813C28.2453 3.89878 27.7293 3.86422 27.2722 3.7151C26.8152 3.56597 26.4447 3.31129 26.2225 2.99351C26.0509 2.77941 24.2398 3.90405 24.4185 4.2535C25.7062 6.76258 26.7352 9.3335 27.4977 11.9463C27.848 13.1473 28.2999 14.4073 28.1422 15.6377C28.0932 16.0266 28.1738 16.0659 27.7534 16.2013C27.333 16.3366 26.755 16.2013 26.3977 16.0905C25.97 15.9553 25.6118 15.7311 25.3713 15.4482C25.2834 15.3017 25.184 15.1588 25.0735 15.02C24.9194 14.833 22.9717 15.9281 23.322 16.3489L23.3605 16.4055C23.3605 16.4055 23.3605 16.4203 23.3605 16.4277C23.4303 16.5505 23.5122 16.6697 23.6057 16.7845C24.3694 18.1577 23.6303 19.654 22.0539 20.6556C20.6807 21.5267 18.9466 22.5628 17.1005 22.8236C13.4083 23.333 10.2065 20.6506 11.7128 18.1897C12.1892 17.4121 10.294 18.5515 10.0909 18.8862C9.16253 20.4021 9.31667 22.1936 11.1803 23.3478C13.2226 24.6127 15.934 24.3691 18.1094 23.4389C20.8103 22.2822 24.8703 20.0797 25.648 17.6212C27.5432 17.5302 29.7291 15.8075 29.9954 14.5205Z" fill="white"/>
<path d="M4.10425 28.1564C3.95313 26.3109 3.65255 24.4729 3.20396 22.6514C2.9027 21.4554 2.32819 20.2126 2.03744 18.9772C3.78898 18.9944 5.60007 17.5843 5.85579 16.4745C6.16056 15.1333 4.80487 14.2818 3.3616 14.427C3.83759 14.1407 4.34086 13.8776 4.86792 13.6395C5.67713 13.2654 6.52488 12.9307 7.37263 12.6034C8.97704 14.9068 11.8321 14.9831 15.1074 14.4294C18.2959 13.8631 21.2205 12.7251 23.5954 11.1269C23.7425 11.0309 24.888 10.1966 24.3591 10.0982C21.3499 9.53218 18.6771 7.74556 15.3807 8.25497C14.004 8.46907 10.9528 9.81027 11.6849 11.026C11.7655 11.1638 13.7377 10.1745 13.4365 9.69706C14.0377 9.6004 14.6518 9.54843 15.2686 9.54202C16.2177 9.58812 17.1471 9.75489 18.0115 10.0342C19.3707 10.4526 20.6423 10.962 22.033 11.3016C20.0801 12.2838 17.8335 12.9395 15.4647 13.2186C14.3683 13.3491 13.1492 13.4524 12.0527 13.2629C10.7111 13.0168 9.9509 12.3573 9.33786 11.56C9.40901 11.4851 9.46006 11.4017 9.48849 11.3139C9.55505 11.0407 9.63562 10.8709 9.11366 11.0678C6.36024 12.1137 3.59631 13.2383 1.57153 14.9536C0.755311 15.6451 -0.379689 17.1684 0.124755 18.1356C0.0629068 18.2206 0.0259801 18.3135 0.0161602 18.4087C-0.130969 20.2126 0.90594 22.0583 1.34383 23.8228C1.79433 25.6449 2.09493 27.4838 2.24412 29.3303C2.27214 29.5567 4.13928 28.6511 4.10425 28.1564ZM4.02368 17.0208C4.25839 17.513 4.30043 17.6557 3.42816 17.5892C3.13572 17.5679 2.85593 17.4943 2.61553 17.3754C2.37513 17.2565 2.18212 17.0963 2.05495 16.91C1.91062 16.712 1.83187 16.4936 1.82459 16.2711C1.81731 16.0487 1.88169 15.8279 2.01291 15.6254C2.3352 15.6107 3.09187 15.9183 3.25301 16.0167C3.71541 16.2923 3.82751 16.6172 4.02018 17.0208H4.02368Z" fill="white"/>
<path d="M6.13257 18.01C5.89786 18.1946 5.35138 18.5711 5.51253 18.8492C5.71046 19.1847 6.00643 19.4874 6.38129 19.7376C6.48638 19.8089 6.75262 19.6933 6.82618 19.6637C7.08613 19.5468 7.32189 19.4052 7.5268 19.2429C7.74352 19.0892 7.92758 18.9143 8.07328 18.7237C8.12582 18.6449 8.25894 18.4776 8.14684 18.4062C7.773 18.1559 7.47821 17.8533 7.28158 17.5178C7.16248 17.316 6.20613 17.9436 6.13257 18.01Z" fill="white"/>
<path d="M8.8895 17.4145C9.15002 17.298 9.38588 17.1564 9.59011 16.9937C9.80892 16.8397 9.99424 16.6639 10.1401 16.472C10.1961 16.3858 10.3117 16.248 10.2102 16.1569C9.90539 15.8813 9.59712 15.6082 9.28885 15.3325C9.20127 15.2538 8.8965 15.3842 8.84395 15.4064C8.32999 15.6475 7.90301 15.9693 7.59686 16.3464C7.53731 16.4326 7.4217 16.5728 7.52329 16.6639L8.4446 17.4859C8.53218 17.5646 8.83695 17.4342 8.8895 17.4145Z" fill="white"/>
<path d="M3.78543 9.21468C4.9158 8.848 5.79627 8.1844 6.23759 7.36653C6.67897 6.51751 6.22007 5.70786 5.565 4.98189C5.48793 4.90068 5.13062 5.03603 4.75228 5.25259C4.75228 5.10985 4.60515 5.08525 4.30038 5.19845C3.76641 5.41929 3.33365 5.74295 3.05329 6.13114C2.58037 6.86941 1.42436 7.60769 1.65206 8.49608C1.82371 9.22698 2.89915 9.45093 3.78543 9.21468ZM3.88352 6.39692C4.31112 6.81789 4.5546 7.31735 4.58413 7.83409C4.58595 7.8554 4.58595 7.87677 4.58413 7.89808C4.44206 7.90588 4.29913 7.89842 4.16026 7.87594C3.14787 7.59047 3.42461 6.97524 3.88352 6.39692V6.39692Z" fill="white"/>
<path d="M43.2127 5.46917C44.1971 5.06066 45.2445 4.29777 45.4827 3.48567C45.5825 3.14188 45.5065 2.7844 45.2682 2.47608C45.0298 2.16776 44.6443 1.92835 44.1796 1.79994C43.9974 1.74826 43.7592 1.82454 43.5175 1.96235C43.5911 1.77286 43.3844 1.73349 43.0691 1.85161C42.5403 2.08095 42.1085 2.40554 41.8185 2.79168C41.497 3.19471 41.2398 3.62137 41.0513 4.06398C40.9112 4.41097 40.666 4.9376 40.7851 5.29444C41.0268 6.03272 42.5927 5.72757 43.2127 5.46917ZM43.6681 4.35683L43.5105 4.37898C43.3635 4.39575 43.2128 4.38653 43.0722 4.35216C42.9315 4.31778 42.8052 4.25935 42.7048 4.18211C42.5366 4.00493 42.6382 3.74899 42.7048 3.54965C42.7293 3.45122 42.7643 3.35524 42.7994 3.25927C43.1269 3.39568 43.3873 3.59919 43.5455 3.8425C43.621 4.00898 43.6623 4.18216 43.6681 4.35683Z" fill="white"/>
<path d="M17.3916 4.27319C16.8541 4.49499 16.4197 4.82154 16.141 5.21327C15.6121 5.93432 15.0656 7.4281 16.9643 7.30752C17.7371 7.22097 18.4385 6.93919 18.9365 6.51509C19.4339 6.98267 19.7808 7.43547 20.8177 6.94083C22.0227 6.36497 22.7198 5.54057 22.3275 4.53651C22.2434 4.31995 21.2205 4.81952 20.7336 5.27479C20.6174 5.12162 20.4725 4.98008 20.3027 4.85397C19.9104 4.58573 18.7438 5.67591 18.6072 5.86787L18.5757 5.90479L18.4005 5.94169C18.1448 5.89739 17.9241 5.91217 17.6999 5.76944C17.1675 5.42491 17.4827 4.89334 17.7595 4.51682C17.9942 4.19936 17.7665 4.16245 17.3916 4.27319Z" fill="white"/>
<path d="M9.19077 6.19518L21.5531 1.27334C21.9595 1.11092 22.7162 0.675334 22.8037 0.333266C22.8703 0.0674861 22.9509 -0.117083 22.4289 0.0871735L10.0665 5.00902C9.66018 5.17144 8.90702 5.60702 8.81944 5.94909C8.75288 6.21979 8.6583 6.40436 9.19077 6.19518Z" fill="white"/>
<path d="M13.948 17.9903L14.3929 17.9362C14.8674 17.8319 15.2782 17.6187 15.5595 17.3308L24.1175 13.5139C24.5238 13.3318 25.277 12.9257 25.3646 12.5738C25.4311 12.3277 25.5117 12.0989 24.9932 12.3277L15.1846 16.7057C14.9359 16.814 13.5067 18.0444 13.948 17.9903Z" fill="white"/>
<path d="M13.3594 25.8185C11.2832 26.8521 9.21875 27.8988 7.16595 28.9586C5.61759 29.7609 4.1498 30.5041 3.18645 31.7001C2.9027 32.0545 3.21447 32.0102 3.56128 31.9462C4.0447 31.8527 4.57367 31.2965 4.80837 31.0061C5.12365 30.6124 5.98191 30.3171 6.48635 30.0562C7.222 29.6739 7.96115 29.2942 8.7038 28.9168C10.105 28.1999 11.5063 27.4911 12.9075 26.7906C13.4365 26.5322 14.6906 25.1565 13.3594 25.8185Z" fill="white"/>
<path d="M19.1676 25.6487C18.6364 25.876 18.2038 26.2011 17.917 26.5888C17.7086 26.8943 17.4746 27.191 17.2164 27.4772V27.4944C17.218 27.3512 17.2321 27.2082 17.2585 27.0662C17.2682 26.6901 17.2164 26.3144 17.1043 25.9465C17.0202 25.6586 16.2776 26.1261 16.1655 26.1926C15.9028 26.3599 15.1706 26.8275 15.2617 27.1327C15.3496 27.4209 15.4012 27.7141 15.4158 28.0087C15.3848 28.2542 15.3743 28.5007 15.3843 28.747C15.4894 29.2712 16.183 29.0153 16.5789 28.8012C17.2651 28.3793 17.8558 27.8864 18.3304 27.3394C18.7838 26.8741 19.1866 26.3854 19.5355 25.8776C19.7491 25.5995 19.574 25.4888 19.1676 25.6487Z" fill="white"/>
<path d="M60.1536 27.5092L59.0747 27.8463C58.7594 27.9447 58.2164 28.213 57.8661 28.2253C57.4002 28.2401 57.5544 27.9251 57.6559 27.6716C57.7646 27.45 57.8375 27.2205 57.8731 26.9874C57.8906 26.6454 57.6945 26.2861 57.1725 26.2172C56.535 26.136 55.9359 26.5716 55.5506 26.8693C55.4035 26.9825 54.6608 27.5288 54.9305 27.706C55.0567 27.7872 55.2984 27.706 55.5296 27.5707C55.999 27.5707 56.062 28.149 55.9745 28.4049C55.8764 28.6978 55.5121 29.2047 55.7678 29.5001C56.0235 29.7954 56.5315 29.5739 56.8818 29.4631L58.8995 28.8331C59.4376 28.6406 59.8889 28.3466 60.2027 27.9841C60.3043 27.8709 60.6791 27.3467 60.1536 27.5092Z" fill="white"/>
<path d="M40.2281 27.1277C40.088 26.8177 38.1998 27.9029 38.3855 28.3188C38.5081 28.5871 38.7008 28.4271 38.9951 28.4812C39.4715 28.5723 39.4224 28.9217 39.2963 29.1974C38.9705 29.8963 38.2874 30.4943 38.5712 31.2645C38.6763 31.5549 40.5749 30.509 40.4138 30.0734C40.109 29.2441 41.0934 28.651 41.216 27.8586C41.2465 27.7467 41.2425 27.6315 41.2045 27.5207C41.1664 27.4099 41.0951 27.3062 40.9953 27.2163C40.9252 27.172 40.1861 27.0637 40.2281 27.1277Z" fill="white"/>
</svg>
