<svg width="363" height="363" viewBox="0 0 363 363" fill="none" xmlns="http://www.w3.org/2000/svg">
<path d="M182.82 90.6906L182.82 48.7496L180.451 48.7496L180.451 90.6906C181.285 90.6467 182.075 90.6467 182.82 90.6906Z" fill="#C783FC"/>
<path d="M90.6906 180.451L48.7496 180.451V182.82H90.6906C90.6906 182.031 90.6906 181.241 90.6906 180.451Z" fill="#C783FC"/>
<path d="M272.625 182.777L314.566 182.777L314.566 180.408L272.625 180.408C272.625 181.197 272.625 181.987 272.625 182.777Z" fill="#C783FC"/>
<path d="M180.451 272.581V314.522H182.82L182.82 272.581C182.031 272.581 181.241 272.581 180.451 272.581Z" fill="#C783FC"/>
<path d="M182.567 75.8392H180.768V85.8282H182.567V75.8392Z" fill="#C783FC"/>
<path d="M287.488 182.538V180.738H277.499V182.538H287.488Z" fill="#C783FC"/>
<path d="M180.761 287.458H182.561V277.469H180.761V287.458Z" fill="#C783FC"/>
<path d="M75.869 180.732V182.531H85.8579V180.732H75.869Z" fill="#C783FC"/>
<path d="M144.042 82.7128L142.365 83.3662L145.993 92.6728L147.669 92.0193L144.042 82.7128Z" fill="#C783FC"/>
<path d="M225.011 85.0402L223.364 84.3169L219.348 93.4631L220.996 94.1864L225.011 85.0402Z" fill="#C783FC"/>
<path d="M280.554 143.988L279.901 142.311L270.594 145.939L271.248 147.615L280.554 143.988Z" fill="#C783FC"/>
<path d="M278.212 225.025L278.935 223.377L269.789 219.362L269.065 221.009L278.212 225.025Z" fill="#C783FC"/>
<path d="M219.309 280.549L220.986 279.896L217.358 270.589L215.682 271.242L219.309 280.549Z" fill="#C783FC"/>
<path d="M138.288 278.139L139.935 278.863L143.951 269.716L142.303 268.993L138.288 278.139Z" fill="#C783FC"/>
<path d="M82.718 219.256L83.3715 220.932L92.6781 217.304L92.0247 215.628L82.718 219.256Z" fill="#C783FC"/>
<path d="M85.1374 138.244L84.4141 139.892L93.5604 143.907L94.2837 142.26L85.1374 138.244Z" fill="#C783FC"/>
<path d="M162.367 77.5374L160.6 77.8792L162.497 87.6858L164.264 87.3441L162.367 77.5374Z" fill="#C783FC"/>
<path d="M241.625 94.478L240.134 93.4705L234.541 101.747L236.031 102.754L241.625 94.478Z" fill="#C783FC"/>
<path d="M285.752 162.375L285.41 160.609L275.604 162.506L275.945 164.272L285.752 162.375Z" fill="#C783FC"/>
<path d="M268.807 241.563L269.815 240.073L261.539 234.479L260.531 235.97L268.807 241.563Z" fill="#C783FC"/>
<path d="M200.899 285.685L202.665 285.343L200.768 275.536L199.002 275.878L200.899 285.685Z" fill="#C783FC"/>
<path d="M121.664 268.775L123.155 269.783L128.748 261.507L127.257 260.499L121.664 268.775Z" fill="#C783FC"/>
<path d="M77.5935 200.847L77.9352 202.613L87.7419 200.716L87.4001 198.95L77.5935 200.847Z" fill="#C783FC"/>
<path d="M94.4758 121.654L93.4682 123.145L101.744 128.738L102.752 127.247L94.4758 121.654Z" fill="#C783FC"/>
<path d="M203.087 78.0554L201.322 77.7059L199.381 87.5049L201.146 87.8543L203.087 78.0554Z" fill="#C783FC"/>
<path d="M270.086 123.512L269.085 122.017L260.784 127.574L261.785 129.07L270.086 123.512Z" fill="#C783FC"/>
<path d="M285.22 203.069L285.569 201.303L275.771 199.363L275.421 201.128L285.22 203.069Z" fill="#C783FC"/>
<path d="M239.759 270.074L241.254 269.073L235.697 260.772L234.202 261.773L239.759 270.074Z" fill="#C783FC"/>
<path d="M160.208 285.24L161.973 285.589L163.914 275.79L162.149 275.441L160.208 285.24Z" fill="#C783FC"/>
<path d="M93.2191 239.712L94.2201 241.207L102.521 235.65L101.52 234.155L93.2191 239.712Z" fill="#C783FC"/>
<path d="M78.0356 160.19L77.6861 161.955L87.485 163.896L87.8345 162.131L78.0356 160.19Z" fill="#C783FC"/>
<path d="M123.559 93.207L122.064 94.208L127.621 102.509L129.117 101.508L123.559 93.207Z" fill="#C783FC"/>
<path d="M241.564 112.319C207.257 82.5743 156.015 82.5744 121.708 112.319L90.9538 90.9538L112.319 121.708C82.5744 156.015 82.5744 207.257 112.319 241.564L90.9538 272.318L121.708 250.953C156.015 280.697 207.257 280.697 241.564 250.953L272.318 272.318L250.953 241.564C280.697 207.257 280.697 156.015 250.953 121.708L272.318 90.9538L241.564 112.319ZM231.912 231.912C204.142 259.683 159.13 259.683 131.359 231.912C103.589 204.142 103.589 159.13 131.359 131.359C159.13 103.589 204.142 103.589 231.912 131.359C259.683 159.13 259.683 204.142 231.912 231.912Z" fill="#C783FC"/>
<path d="M222.261 222.261C244.697 199.824 244.697 163.447 222.261 141.011C199.824 118.575 163.448 118.575 141.011 141.011C118.575 163.448 118.575 199.824 141.011 222.261C163.448 244.697 199.824 244.697 222.261 222.261Z" fill="#692EBD"/>
<path d="M182.031 126.928L145.31 222.085L182.031 188.173L218.795 222.041L182.031 126.928Z" fill="white"/>
<g style="mix-blend-mode:multiply" opacity="0.5">
<g style="mix-blend-mode:multiply" opacity="0.5">
<path d="M160.425 115.2L182.302 117.424L204.179 115.2" stroke="#333333" stroke-width="9.59" stroke-miterlimit="10"/>
</g>
<g style="mix-blend-mode:multiply" opacity="0.98">
<path d="M160.242 115.257L182.302 117.5L204.361 115.257" stroke="#333333" stroke-width="9.59" stroke-miterlimit="10"/>
</g>
<g style="mix-blend-mode:multiply" opacity="0.96">
<path d="M160.06 115.315L182.302 117.577L204.544 115.315" stroke="#333333" stroke-width="9.59" stroke-miterlimit="10"/>
</g>
<g style="mix-blend-mode:multiply" opacity="0.94">
<path d="M159.878 115.372L182.302 117.653L204.726 115.372" stroke="#333333" stroke-width="9.59" stroke-miterlimit="10"/>
</g>
<g style="mix-blend-mode:multiply" opacity="0.92">
<path d="M159.695 115.43L182.302 117.728L204.908 115.43" stroke="#333333" stroke-width="9.59" stroke-miterlimit="10"/>
</g>
<g style="mix-blend-mode:multiply" opacity="0.9">
<path d="M159.513 115.487L182.302 117.805L205.091 115.487" stroke="#333333" stroke-width="9.59" stroke-miterlimit="10"/>
</g>
<g style="mix-blend-mode:multiply" opacity="0.88">
<path d="M159.33 115.545L182.302 117.881L205.273 115.545" stroke="#333333" stroke-width="9.59" stroke-miterlimit="10"/>
</g>
<g style="mix-blend-mode:multiply" opacity="0.86">
<path d="M159.148 115.603L182.302 117.957L205.456 115.603" stroke="#333333" stroke-width="9.59" stroke-miterlimit="10"/>
</g>
<g style="mix-blend-mode:multiply" opacity="0.84">
<path d="M158.965 115.66L182.302 118.033L205.638 115.66" stroke="#333333" stroke-width="9.59" stroke-miterlimit="10"/>
</g>
<g style="mix-blend-mode:multiply" opacity="0.82">
<path d="M158.783 115.718L182.302 118.109L205.821 115.718" stroke="#333333" stroke-width="9.59" stroke-miterlimit="10"/>
</g>
<g style="mix-blend-mode:multiply" opacity="0.8">
<path d="M158.6 115.775L182.302 118.185L206.003 115.775" stroke="#333333" stroke-width="9.59" stroke-miterlimit="10"/>
</g>
<g style="mix-blend-mode:multiply" opacity="0.78">
<path d="M158.418 115.833L182.302 118.262L206.185 115.833" stroke="#333333" stroke-width="9.59" stroke-miterlimit="10"/>
</g>
<g style="mix-blend-mode:multiply" opacity="0.76">
<path d="M158.236 115.891L182.302 118.338L206.367 115.891" stroke="#333333" stroke-width="9.59" stroke-miterlimit="10"/>
</g>
<g style="mix-blend-mode:multiply" opacity="0.75">
<path d="M158.054 115.948L182.302 118.413L206.55 115.948" stroke="#333333" stroke-width="9.59" stroke-miterlimit="10"/>
</g>
<g style="mix-blend-mode:multiply" opacity="0.73">
<path d="M157.871 116.005L182.302 118.49L206.732 116.005" stroke="#333333" stroke-width="9.59" stroke-miterlimit="10"/>
</g>
<g style="mix-blend-mode:multiply" opacity="0.71">
<path d="M157.689 116.063L182.302 118.566L206.915 116.063" stroke="#333333" stroke-width="9.59" stroke-miterlimit="10"/>
</g>
<g style="mix-blend-mode:multiply" opacity="0.69">
<path d="M157.507 116.121L182.302 118.642L207.097 116.121" stroke="#333333" stroke-width="9.59" stroke-miterlimit="10"/>
</g>
<g style="mix-blend-mode:multiply" opacity="0.67">
<path d="M157.324 116.178L182.302 118.718L207.279 116.178" stroke="#333333" stroke-width="9.59" stroke-miterlimit="10"/>
</g>
<g style="mix-blend-mode:multiply" opacity="0.65">
<path d="M157.142 116.235L182.302 118.794L207.462 116.235" stroke="#333333" stroke-width="9.59" stroke-miterlimit="10"/>
</g>
<g style="mix-blend-mode:multiply" opacity="0.63">
<path d="M156.959 116.293L182.302 118.87L207.644 116.293" stroke="#333333" stroke-width="9.59" stroke-miterlimit="10"/>
</g>
<g style="mix-blend-mode:multiply" opacity="0.61">
<path d="M156.777 116.351L182.302 118.946L207.827 116.351" stroke="#333333" stroke-width="9.59" stroke-miterlimit="10"/>
</g>
<g style="mix-blend-mode:multiply" opacity="0.59">
<path d="M156.594 116.408L182.302 119.023L208.009 116.408" stroke="#333333" stroke-width="9.59" stroke-miterlimit="10"/>
</g>
<g style="mix-blend-mode:multiply" opacity="0.57">
<path d="M156.412 116.466L182.302 119.098L208.192 116.466" stroke="#333333" stroke-width="9.59" stroke-miterlimit="10"/>
</g>
<g style="mix-blend-mode:multiply" opacity="0.55">
<path d="M156.229 116.523L182.302 119.174L208.374 116.523" stroke="#333333" stroke-width="9.59" stroke-miterlimit="10"/>
</g>
<g style="mix-blend-mode:multiply" opacity="0.53">
<path d="M156.047 116.581L182.302 119.251L208.556 116.581" stroke="#333333" stroke-width="9.59" stroke-miterlimit="10"/>
</g>
<g style="mix-blend-mode:multiply" opacity="0.51">
<path d="M155.865 116.638L182.302 119.327L208.739 116.638" stroke="#333333" stroke-width="9.59" stroke-miterlimit="10"/>
</g>
<g style="mix-blend-mode:multiply" opacity="0.49">
<path d="M155.683 116.696L182.302 119.403L208.921 116.696" stroke="#333333" stroke-width="9.59" stroke-miterlimit="10"/>
</g>
<g style="mix-blend-mode:multiply" opacity="0.47">
<path d="M155.5 116.754L182.302 119.479L209.103 116.754" stroke="#333333" stroke-width="9.59" stroke-miterlimit="10"/>
</g>
<g style="mix-blend-mode:multiply" opacity="0.45">
<path d="M155.318 116.811L182.302 119.555L209.286 116.811" stroke="#333333" stroke-width="9.59" stroke-miterlimit="10"/>
</g>
<g style="mix-blend-mode:multiply" opacity="0.43">
<path d="M155.136 116.868L182.302 119.631L209.468 116.868" stroke="#333333" stroke-width="9.59" stroke-miterlimit="10"/>
</g>
<g style="mix-blend-mode:multiply" opacity="0.41">
<path d="M154.953 116.926L182.302 119.708L209.65 116.926" stroke="#333333" stroke-width="9.59" stroke-miterlimit="10"/>
</g>
<g style="mix-blend-mode:multiply" opacity="0.39">
<path d="M154.771 116.984L182.302 119.783L209.833 116.984" stroke="#333333" stroke-width="9.59" stroke-miterlimit="10"/>
</g>
<g style="mix-blend-mode:multiply" opacity="0.37">
<path d="M154.588 117.042L182.302 119.859L210.015 117.042" stroke="#333333" stroke-width="9.59" stroke-miterlimit="10"/>
</g>
<g style="mix-blend-mode:multiply" opacity="0.35">
<path d="M154.406 117.099L182.302 119.936L210.198 117.099" stroke="#333333" stroke-width="9.59" stroke-miterlimit="10"/>
</g>
<g style="mix-blend-mode:multiply" opacity="0.33">
<path d="M154.223 117.156L182.302 120.012L210.38 117.156" stroke="#333333" stroke-width="9.59" stroke-miterlimit="10"/>
</g>
<g style="mix-blend-mode:multiply" opacity="0.31">
<path d="M154.041 117.214L182.302 120.087L210.563 117.214" stroke="#333333" stroke-width="9.59" stroke-miterlimit="10"/>
</g>
<g style="mix-blend-mode:multiply" opacity="0.29">
<path d="M153.858 117.272L182.302 120.164L210.745 117.272" stroke="#333333" stroke-width="9.59" stroke-miterlimit="10"/>
</g>
<g style="mix-blend-mode:multiply" opacity="0.27">
<path d="M153.676 117.329L182.302 120.24L210.927 117.329" stroke="#333333" stroke-width="9.59" stroke-miterlimit="10"/>
</g>
<g style="mix-blend-mode:multiply" opacity="0.25">
<path d="M153.494 117.386L182.302 120.316L211.11 117.386" stroke="#333333" stroke-width="9.59" stroke-miterlimit="10"/>
</g>
<g style="mix-blend-mode:multiply" opacity="0.24">
<path d="M153.312 117.444L182.302 120.392L211.292 117.444" stroke="#333333" stroke-width="9.59" stroke-miterlimit="10"/>
</g>
<g style="mix-blend-mode:multiply" opacity="0.22">
<path d="M153.129 117.502L182.302 120.468L211.474 117.502" stroke="#333333" stroke-width="9.59" stroke-miterlimit="10"/>
</g>
<g style="mix-blend-mode:multiply" opacity="0.2">
<path d="M152.947 117.559L182.302 120.544L211.657 117.559" stroke="#333333" stroke-width="9.59" stroke-miterlimit="10"/>
</g>
<g style="mix-blend-mode:multiply" opacity="0.18">
<path d="M152.765 117.617L182.302 120.62L211.839 117.617" stroke="#333333" stroke-width="9.59" stroke-miterlimit="10"/>
</g>
<g style="mix-blend-mode:multiply" opacity="0.16">
<path d="M152.582 117.674L182.302 120.697L212.021 117.674" stroke="#333333" stroke-width="9.59" stroke-miterlimit="10"/>
</g>
<g style="mix-blend-mode:multiply" opacity="0.14">
<path d="M152.4 117.732L182.302 120.772L212.204 117.732" stroke="#333333" stroke-width="9.59" stroke-miterlimit="10"/>
</g>
<g style="mix-blend-mode:multiply" opacity="0.12">
<path d="M152.217 117.789L182.302 120.849L212.386 117.789" stroke="#333333" stroke-width="9.59" stroke-miterlimit="10"/>
</g>
<g style="mix-blend-mode:multiply" opacity="0.1">
<path d="M152.035 117.847L182.302 120.925L212.569 117.847" stroke="#333333" stroke-width="9.59" stroke-miterlimit="10"/>
</g>
<g style="mix-blend-mode:multiply" opacity="0.08">
<path d="M151.852 117.904L182.302 121.001L212.751 117.904" stroke="#333333" stroke-width="9.59" stroke-miterlimit="10"/>
</g>
<g style="mix-blend-mode:multiply" opacity="0.06">
<path d="M151.67 117.962L182.302 121.077L212.934 117.962" stroke="#333333" stroke-width="9.59" stroke-miterlimit="10"/>
</g>
<g style="mix-blend-mode:multiply" opacity="0.04">
<path d="M151.487 118.019L182.302 121.153L213.116 118.019" stroke="#333333" stroke-width="9.59" stroke-miterlimit="10"/>
</g>
<g style="mix-blend-mode:multiply" opacity="0.02">
<path d="M151.305 118.077L182.302 121.229L213.299 118.077" stroke="#333333" stroke-width="9.59" stroke-miterlimit="10"/>
</g>
</g>
<path d="M182.301 117.582L160.394 115.357V80.802L182.301 74.9824V117.582Z" fill="url(#paint0_linear)"/>
<path d="M182.301 117.582L204.21 115.357V80.802L182.301 74.9824V117.582Z" fill="url(#paint1_linear)"/>
<g style="mix-blend-mode:multiply">
<path style="mix-blend-mode:multiply" d="M182.302 82.2729L160.394 88.0925V90.6488L182.302 84.8285V82.2729Z" fill="url(#paint2_linear)"/>
<path style="mix-blend-mode:multiply" d="M182.301 84.8285L204.21 90.6488V88.0925L182.301 82.2729V84.8285Z" fill="url(#paint3_linear)"/>
<path style="mix-blend-mode:multiply" d="M182.301 86.3887L160.394 92.2083V93.4511L182.301 87.6316V86.3887Z" fill="url(#paint4_linear)"/>
<path style="mix-blend-mode:multiply" d="M182.301 86.3887V87.6316L204.21 93.4511V92.2083L182.301 86.3887Z" fill="url(#paint5_linear)"/>
</g>
<path d="M182.301 82.047L160.394 87.8666V90.4229L182.301 84.6033V82.047Z" fill="url(#paint6_linear)"/>
<path d="M182.301 84.6033L204.21 90.4229V87.8666L182.301 82.047V84.6033Z" fill="url(#paint7_linear)"/>
<path d="M182.301 86.1626L160.394 91.9822V93.2258L182.301 87.4055V86.1626Z" fill="url(#paint8_linear)"/>
<path d="M182.301 86.1626V87.4055L204.21 93.2258V91.9822L182.301 86.1626Z" fill="url(#paint9_linear)"/>
<path d="M182.301 117.582L160.394 115.361V111.898L182.301 114.119V117.582Z" fill="url(#paint10_linear)"/>
<path d="M182.301 114.087L160.394 111.866V107.892L182.301 110.113V114.087Z" fill="url(#paint11_linear)"/>
<path d="M182.301 117.582L204.21 115.361V111.898L182.301 114.119V117.582Z" fill="url(#paint12_linear)"/>
<path d="M182.301 114.087L204.21 111.866V107.892L182.301 110.113V114.087Z" fill="url(#paint13_linear)"/>
<path d="M182.301 113.945L160.394 111.724V107.75L182.301 109.971V113.945Z" fill="url(#paint14_linear)"/>
<path d="M182.301 113.945L204.21 111.724V107.75L182.301 109.971V113.945Z" fill="url(#paint15_linear)"/>
<defs>
<linearGradient id="paint0_linear" x1="171.348" y1="117.582" x2="171.348" y2="74.9824" gradientUnits="userSpaceOnUse">
<stop stop-color="#484F57"/>
<stop offset="0.19" stop-color="#363B41"/>
<stop offset="0.53" stop-color="#1B1D21"/>
<stop offset="0.81" stop-color="#0A0B0D"/>
<stop offset="1" stop-color="#040406"/>
</linearGradient>
<linearGradient id="paint1_linear" x1="193.256" y1="117.582" x2="193.256" y2="74.9824" gradientUnits="userSpaceOnUse">
<stop stop-color="#212730"/>
<stop offset="0.26" stop-color="#171A21"/>
<stop offset="0.7" stop-color="#090A0D"/>
<stop offset="1" stop-color="#040406"/>
</linearGradient>
<linearGradient id="paint2_linear" x1="160.394" y1="86.4605" x2="182.302" y2="86.4605" gradientUnits="userSpaceOnUse">
<stop stop-color="#6C471D"/>
<stop offset="0.71" stop-color="#DEC481"/>
<stop offset="1" stop-color="#AF9058"/>
</linearGradient>
<linearGradient id="paint3_linear" x1="9777.82" y1="1431.29" x2="16513" y2="1431.29" gradientUnits="userSpaceOnUse">
<stop stop-color="#6C471D"/>
<stop offset="0.71" stop-color="#DEC481"/>
<stop offset="1" stop-color="#AF9058"/>
</linearGradient>
<linearGradient id="paint4_linear" x1="3020.9" y1="1566.68" x2="9755.6" y2="1566.68" gradientUnits="userSpaceOnUse">
<stop stop-color="#6C471D"/>
<stop offset="0.71" stop-color="#DEC481"/>
<stop offset="1" stop-color="#AF9058"/>
</linearGradient>
<linearGradient id="paint5_linear" x1="9777.82" y1="1566.68" x2="16513" y2="1566.68" gradientUnits="userSpaceOnUse">
<stop stop-color="#6C471D"/>
<stop offset="0.71" stop-color="#DEC481"/>
<stop offset="1" stop-color="#AF9058"/>
</linearGradient>
<linearGradient id="paint6_linear" x1="3020.9" y1="1404.6" x2="9755.6" y2="1404.6" gradientUnits="userSpaceOnUse">
<stop stop-color="#6C471D"/>
<stop offset="0.71" stop-color="#DEC481"/>
<stop offset="1" stop-color="#AF9058"/>
</linearGradient>
<linearGradient id="paint7_linear" x1="9777.82" y1="1404.6" x2="16513" y2="1404.6" gradientUnits="userSpaceOnUse">
<stop stop-color="#6C471D"/>
<stop offset="0.71" stop-color="#DEC481"/>
<stop offset="1" stop-color="#AF9058"/>
</linearGradient>
<linearGradient id="paint8_linear" x1="3020.9" y1="1544.28" x2="9755.6" y2="1544.28" gradientUnits="userSpaceOnUse">
<stop stop-color="#6C471D"/>
<stop offset="0.71" stop-color="#DEC481"/>
<stop offset="1" stop-color="#AF9058"/>
</linearGradient>
<linearGradient id="paint9_linear" x1="9777.82" y1="1544.28" x2="16513" y2="1544.28" gradientUnits="userSpaceOnUse">
<stop stop-color="#6C471D"/>
<stop offset="0.71" stop-color="#DEC481"/>
<stop offset="1" stop-color="#AF9058"/>
</linearGradient>
<linearGradient id="paint10_linear" x1="160.393" y1="114.74" x2="182.301" y2="114.74" gradientUnits="userSpaceOnUse">
<stop stop-color="#998675"/>
<stop offset="1" stop-color="#C7B299"/>
</linearGradient>
<linearGradient id="paint11_linear" x1="160.394" y1="110.99" x2="182.301" y2="110.99" gradientUnits="userSpaceOnUse">
<stop stop-color="#B3B3B3"/>
<stop offset="1" stop-color="#808080"/>
</linearGradient>
<linearGradient id="paint12_linear" x1="204.211" y1="114.74" x2="182.302" y2="114.74" gradientUnits="userSpaceOnUse">
<stop stop-color="#C7B299"/>
<stop offset="1" stop-color="#998675"/>
</linearGradient>
<linearGradient id="paint13_linear" x1="182.301" y1="110.99" x2="204.21" y2="110.99" gradientUnits="userSpaceOnUse">
<stop stop-color="#808080"/>
<stop offset="1" stop-color="#B3B3B3"/>
</linearGradient>
<linearGradient id="paint14_linear" x1="160.394" y1="110.848" x2="182.301" y2="110.848" gradientUnits="userSpaceOnUse">
<stop stop-color="#E6E6E6"/>
<stop offset="1" stop-color="white"/>
</linearGradient>
<linearGradient id="paint15_linear" x1="9777.82" y1="3225.52" x2="16513" y2="3225.52" gradientUnits="userSpaceOnUse">
<stop stop-color="#E6E6E6"/>
<stop offset="1" stop-color="white"/>
</linearGradient>
</defs>
</svg>
