<svg width="337" height="200" viewBox="0 0 337 200" fill="none" xmlns="http://www.w3.org/2000/svg">
<g opacity="0.5">
<path opacity="0.5" d="M336.2 167.625V96.8999C332.606 95.5437 328.877 94.73 325.283 94.6622C328.877 94.6622 332.674 95.3403 336.2 96.6287V94.0519C335.929 93.9163 335.658 93.7129 335.251 93.5773C330.368 91.3395 327.317 87.9491 324.469 83.5414C324.333 83.338 324.062 83.1346 323.791 83.1346C323.859 83.1346 323.859 83.1346 323.859 83.0668V82.0496C323.859 81.9818 323.859 81.9818 323.791 81.9818H323.384V79.9475H323.045V79.8797H323.113L323.316 79.7441L323.113 79.6085H323.045V78.8626C324.062 78.6591 324.808 77.7776 324.808 76.7605C324.808 75.6755 323.926 74.7262 322.842 74.5906V73.4378C323.248 73.3022 323.587 72.9631 323.587 72.4884C323.587 72.0138 323.248 71.6748 322.842 71.5391V70.5898L322.909 70.522L322.57 68.2843L322.231 70.522L322.299 70.5898V71.5391C321.892 71.6748 321.553 72.0138 321.553 72.4884C321.553 72.9631 321.892 73.3022 322.299 73.4378V74.5906C321.214 74.7262 320.333 75.6077 320.333 76.7605C320.333 77.7776 321.078 78.6591 322.096 78.8626V79.6763H322.028L321.824 79.8119L322.028 79.9475H322.096V80.0153H321.757V82.0496H321.418C321.35 82.0496 321.35 82.0496 321.35 82.1174V83.1346C321.35 83.2024 321.35 83.2024 321.418 83.2024C321.146 83.2024 320.875 83.338 320.739 83.6092C317.891 87.9491 314.772 91.4073 309.958 93.6451C308.737 94.1875 308.059 94.7978 308.059 95.4081C308.059 95.7472 308.262 96.0862 308.602 96.3574C308.602 96.493 308.669 96.6287 308.805 96.7643C312.467 95.4081 316.264 94.6622 319.994 94.6622C314.094 94.73 307.923 96.8321 302.634 99.9513V81.2359H303.719C305.143 81.2359 306.228 80.0831 306.228 78.7269C306.228 77.3029 305.075 76.218 303.719 76.218H302.634V51.7387V50.3147H303.719C305.143 50.3147 306.228 49.162 306.228 47.8058C306.228 46.3818 305.075 45.2968 303.719 45.2968H302.634V44.5509H303.312C303.651 44.5509 303.923 44.2797 303.923 43.9406V43.2625C310.975 34.0404 295.582 20.7497 282.156 20.5463C285.004 20.5463 288.055 21.0888 290.903 22.1737C290.971 22.1059 291.039 21.9703 291.039 21.8347C291.31 21.5635 291.446 21.36 291.446 21.0888C291.446 20.6141 290.903 20.1394 289.954 19.7326C286.157 17.9695 283.715 15.325 281.546 11.9345C281.41 11.731 281.206 11.6633 281.003 11.6633C281.003 11.6633 281.071 11.6632 281.071 11.5954V10.7817C281.071 10.7817 281.071 10.7139 281.003 10.7139H280.664V9.1543H280.393V9.01867L280.596 8.95088L280.393 8.88304V8.27278C281.139 8.13716 281.749 7.45905 281.749 6.64533C281.749 5.76381 281.071 5.08571 280.257 4.95009V4.06858C280.596 4.00077 280.867 3.66169 280.867 3.32265C280.867 2.9836 280.596 2.64457 280.257 2.57676V1.83087L280.325 1.76303L280.054 0L279.782 1.76303L279.85 1.83087V2.57676C279.511 2.64457 279.24 2.9836 279.24 3.32265C279.24 3.66169 279.511 4.00077 279.85 4.06858V4.95009C279.037 5.0179 278.358 5.76381 278.358 6.64533C278.358 7.45905 278.969 8.13716 279.715 8.27278V8.88304L279.511 8.95088L279.715 9.01867V9.08646H279.443V10.6461H279.104C279.104 10.6461 279.037 10.6461 279.037 10.7139V11.5276C279.037 11.5276 279.036 11.5954 279.104 11.5954C278.901 11.5954 278.697 11.7311 278.562 11.8667C276.324 15.2572 273.951 17.9695 270.153 19.6648C269.204 20.0716 268.662 20.5463 268.662 21.021C268.662 21.2922 268.797 21.5634 269.069 21.7669C269.069 21.9025 269.136 21.9703 269.204 22.1059C272.052 21.0888 275.036 20.4785 277.952 20.4785C264.525 20.6819 249.065 34.0404 256.185 43.1947V43.8728C256.185 44.2119 256.456 44.4831 256.795 44.4831H257.541V45.229H256.456C255.032 45.229 253.947 46.3817 253.947 47.7379C253.947 49.1619 255.1 50.2469 256.456 50.2469H257.541V51.6709V76.1502H256.456C255.032 76.1502 253.947 77.3029 253.947 78.6591C253.947 80.0831 255.1 81.1681 256.456 81.1681H257.541V121.583L251.641 119.616V117.514V116.904V115.208V114.463V113.717L249.946 113.445H250.082V111.818C256.659 103.071 246.556 91.2039 234.214 86.6607C234.282 86.525 234.35 86.3894 234.35 86.3216C234.689 86.0504 234.825 85.7113 234.825 85.4401C234.825 84.8298 234.214 84.2873 233.129 83.8127C228.586 81.7106 225.738 78.3879 223.094 74.1159H223.229C223.297 74.1159 223.297 74.1159 223.297 74.0481V73.0987C223.297 73.0309 223.297 73.031 223.229 73.031H222.822V71.1322H222.483V71.0645H222.551L222.755 70.9288L222.551 70.7932H222.483V69.9795C223.433 69.7761 224.111 68.9624 224.111 68.013C224.111 66.9959 223.297 66.1143 222.28 66.0465V64.9616C222.687 64.8938 222.958 64.4869 222.958 64.0801C222.958 63.6732 222.687 63.3342 222.28 63.1986V62.317L222.348 62.2492L222.076 60.1471L221.805 62.2492L221.873 62.317V63.1986C221.466 63.2664 221.195 63.6732 221.195 64.0801C221.195 64.4869 221.466 64.826 221.873 64.9616V66.0465C220.856 66.1822 220.042 66.9959 220.042 68.013C220.042 68.9624 220.72 69.7761 221.67 69.9795V70.7932H221.602L221.398 70.9288L221.602 71.0645H221.67V71.1322H221.331V73.031H220.924C220.856 73.031 220.856 73.0309 220.856 73.0987V74.0481C220.856 74.1159 220.856 74.1159 220.924 74.1159H221.127C218.483 78.3201 215.635 81.6427 211.091 83.8127C210.006 84.2873 209.396 84.8298 209.396 85.4401C209.396 85.7791 209.599 86.0504 209.871 86.3216C209.871 86.4572 209.939 86.5929 210.006 86.6607C207.836 87.4744 205.734 88.4915 203.768 89.7121V79.7441H204.785V77.1673V76.4214V74.3193V73.37V72.4207L202.819 72.0816V70.0473C213.193 56.5532 190.545 37.0241 170.88 36.7528C175.084 36.7528 179.492 37.5665 183.628 39.1262C183.696 38.9905 183.764 38.8549 183.832 38.6515C184.239 38.3124 184.442 37.9055 184.442 37.5665C184.442 36.8206 183.628 36.1425 182.272 35.5322C176.712 33.0233 173.186 29.0903 169.931 24.0724C169.727 23.8012 169.456 23.6655 169.117 23.6655C169.185 23.6655 169.185 23.6655 169.185 23.5977V22.445C169.185 22.3772 169.185 22.3772 169.117 22.3772H168.643V20.0716H168.236V19.8682H168.303L168.575 19.7326L168.303 19.597H168.236V18.6476C169.388 18.4442 170.202 17.427 170.202 16.2065C170.202 14.9181 169.253 13.901 167.964 13.7653V12.4769C168.439 12.3413 168.778 11.9345 168.778 11.392C168.778 10.8495 168.439 10.4427 167.964 10.3071V9.22209L168.1 9.1543L167.761 6.57754L167.422 9.1543L167.558 9.22209V10.3071C167.083 10.4427 166.744 10.8495 166.744 11.392C166.744 11.9345 167.083 12.3413 167.558 12.4769V13.7653C166.337 13.901 165.32 14.9181 165.32 16.2065C165.32 17.427 166.201 18.3764 167.286 18.6476V19.597H167.218L166.947 19.7326L167.218 19.8682H167.286V20.0716H166.879V22.3772H166.812C166.744 22.3772 166.744 22.3772 166.744 22.445V23.5977C166.744 23.6655 166.744 23.6655 166.812 23.6655C166.473 23.6655 166.201 23.8012 165.998 24.0724C162.743 29.0903 159.217 32.9554 153.657 35.5322C152.3 36.1425 151.487 36.8206 151.487 37.5665C151.487 37.9734 151.69 38.3124 152.097 38.6515C152.097 38.7871 152.233 38.9227 152.3 39.1262C156.505 37.6343 160.844 36.7528 165.049 36.7528C145.384 37.0241 122.735 56.621 133.11 70.0473V72.0138L131.212 72.3529V73.3022V74.2515V76.3536V77.0995V79.6763H132.161V89.6443C130.194 88.4237 128.092 87.4066 125.922 86.5929C125.99 86.4573 126.058 86.3216 126.058 86.2538C126.397 85.9826 126.533 85.6435 126.533 85.3723C126.533 84.762 125.922 84.2195 124.837 83.7449C120.294 81.6428 117.446 78.3201 114.802 74.0481H115.005C115.073 74.0481 115.073 74.0481 115.073 73.9803V73.031C115.073 72.9631 115.073 72.9631 115.005 72.9631H114.598V71.0645H114.259V70.9967H114.327L114.53 70.861L114.327 70.7254H114.259V69.9117C115.209 69.7083 115.887 68.8946 115.887 67.9452C115.887 66.9281 115.073 66.0465 114.056 65.9787V64.8938C114.463 64.826 114.734 64.4191 114.734 64.0122C114.734 63.6054 114.463 63.2663 114.056 63.1307V62.2492L114.124 62.1814L113.852 60.0793L113.581 62.1814L113.649 62.2492V63.1307C113.242 63.1985 112.971 63.6054 112.971 64.0122C112.971 64.4191 113.242 64.7582 113.649 64.8938V65.9787C112.632 66.1144 111.818 66.9281 111.818 67.9452C111.818 68.8946 112.496 69.7083 113.445 69.9117V70.7254H113.378L113.174 70.861L113.378 70.9967H113.445V71.0645H113.106V72.9631H112.7C112.632 72.9631 112.632 72.9631 112.632 73.031V73.9803C112.632 74.0481 112.632 74.0481 112.7 74.0481H112.835C110.191 78.2523 107.343 81.575 102.799 83.7449C101.714 84.2195 101.104 84.762 101.104 85.3723C101.104 85.7113 101.308 85.9826 101.579 86.2538C101.579 86.3894 101.647 86.5251 101.714 86.5929C89.3731 91.2039 79.2694 103.071 85.8469 111.75V113.378H85.9826L84.2873 113.649V114.395V115.141V119.548L78.6591 121.583V81.3037H79.7441C81.1681 81.3037 82.253 80.151 82.253 78.7948C82.253 77.3708 81.1003 76.2858 79.7441 76.2858H78.6591V51.8065V50.3825H79.7441C81.1681 50.3825 82.253 49.2298 82.253 47.8736C82.253 46.4496 81.1003 45.3646 79.7441 45.3646H78.6591V44.6187H79.405C79.7441 44.6187 80.0153 44.3475 80.0153 44.0084V43.3303C87.0675 34.1082 71.6748 20.8175 58.2485 20.6141C61.0965 20.6141 64.1479 21.1566 66.9959 22.2415C67.0637 22.1737 67.1315 22.0381 67.1315 21.9025C67.4027 21.6313 67.5384 21.4278 67.5384 21.1566C67.5384 20.6819 66.9959 20.2073 66.0466 19.8004C62.2492 18.0374 59.8081 15.3928 57.6382 12.0023C57.5025 11.7989 57.2991 11.7311 57.0957 11.7311C57.0957 11.7311 57.1635 11.7311 57.1635 11.6633V10.8495C57.1635 10.8495 57.1635 10.7817 57.0957 10.7817H56.7566V9.22209H56.4854V9.01867L56.6888 8.95088L56.4854 8.88304V8.27278C57.2313 8.13716 57.8416 7.45905 57.8416 6.64533C57.8416 5.76381 57.1635 5.08571 56.3498 4.95009V4.06858C56.6888 4.00077 56.9601 3.66169 56.9601 3.32265C56.9601 2.9836 56.6888 2.64457 56.3498 2.57676V1.83087L56.4176 1.76303L56.1463 0L55.8751 1.76303L55.9429 1.83087V2.57676C55.6039 2.64457 55.3326 2.9836 55.3326 3.32265C55.3326 3.66169 55.6039 4.00077 55.9429 4.06858V4.95009C55.1292 5.0179 54.4511 5.76381 54.4511 6.64533C54.4511 7.45905 55.0614 8.13716 55.8073 8.27278V8.88304L55.6039 8.95088L55.8073 9.01867V9.08646H55.5361V10.6461H55.197C55.197 10.6461 55.1292 10.6461 55.1292 10.7139V11.5276C55.1292 11.5276 55.1292 11.5954 55.197 11.5954C54.9936 11.5954 54.7901 11.7311 54.6545 11.8667C52.4168 15.2572 50.0435 17.9695 46.2462 19.6648C45.2968 20.0716 44.7543 20.5463 44.7543 21.021C44.7543 21.2922 44.8899 21.5634 45.1612 21.7669C45.1612 21.9025 45.229 21.9703 45.2968 22.1059C48.1448 21.0888 51.1285 20.4785 54.0443 20.4785C40.618 20.6819 25.1574 34.0404 32.2774 43.1947V43.8728C32.2774 44.2119 32.5486 44.4831 32.8877 44.4831H33.5658V45.229H32.5486C31.1246 45.229 30.0396 46.3817 30.0396 47.7379C30.0396 49.1619 31.1924 50.2469 32.5486 50.2469H33.6336V51.6709V76.1502H32.5486C31.1246 76.1502 30.0396 77.3029 30.0396 78.6591C30.0396 80.0831 31.1924 81.1681 32.5486 81.1681H33.6336V99.8835C28.4122 96.7643 22.1737 94.6622 16.2743 94.5944C20.0038 94.5944 23.8012 95.3403 27.4629 96.6965C27.5307 96.5609 27.5985 96.4253 27.6663 96.2896C28.0054 95.9506 28.2088 95.6793 28.2088 95.3403C28.2088 94.73 27.5307 94.1197 26.3101 93.5773C21.4278 91.3395 18.3764 87.9491 15.5284 83.5414C15.3928 83.338 15.1215 83.1346 14.8503 83.1346C14.9181 83.1346 14.9181 83.1346 14.9181 83.0668V82.0496C14.9181 81.9818 14.9181 81.9818 14.8503 81.9818H14.4434V79.9475H14.1044V79.8797H14.1722L14.3756 79.7441L14.1722 79.6085H14.1044V78.8626C15.1215 78.6591 15.8674 77.7776 15.8674 76.7605C15.8674 75.6755 14.9859 74.7262 13.901 74.5906V73.4378C14.3078 73.3022 14.6469 72.9631 14.6469 72.4884C14.6469 72.0138 14.3078 71.6748 13.901 71.5391V70.5898L13.9688 70.522L13.6297 68.2843L13.2907 70.522L13.3585 70.5898V71.5391C12.9516 71.6748 12.6126 72.0138 12.6126 72.4884C12.6126 72.9631 12.9516 73.3022 13.3585 73.4378V74.5906C12.2735 74.7262 11.392 75.6077 11.392 76.7605C11.392 77.7776 12.1379 78.6591 13.1551 78.8626V79.6763H13.0872L12.8838 79.8119L13.0872 79.9475H13.1551V80.0153H12.816V82.0496H12.4091C12.3413 82.0496 12.3414 82.0496 12.3414 82.1174V83.1346C12.3414 83.2024 12.3413 83.2024 12.4091 83.2024C12.1379 83.2024 11.8667 83.338 11.7311 83.6092C8.88305 87.9491 5.76381 91.4073 0.94933 93.6451C0.610282 93.7807 0.271238 93.9841 0 94.1197V96.6965C3.59391 95.4081 7.32344 94.6622 10.9174 94.73C7.25563 94.7978 3.5261 95.6115 0 96.9677V167.625C0 185.12 14.1722 199.292 31.6671 199.292H304.465C322.028 199.225 336.2 185.052 336.2 167.625ZM56.1463 18.3086C56.2142 18.3086 56.2142 18.3086 56.1463 18.3086ZM61.6389 61.8424V72.2172H50.6538V61.8424V61.3677H51.0606V60.9608C51.0606 60.9608 52.2134 60.9608 52.2134 60.0115C52.2134 59.13 51.0606 59.1978 51.0606 59.1978C51.0606 59.1978 50.6538 57.8416 51.9421 57.2313C53.0949 56.6888 56.1463 55.4004 56.1463 54.8579C56.1463 55.4004 59.1978 56.6888 60.3505 57.2313C61.6389 57.8416 61.2321 59.1978 61.2321 59.1978C61.2321 59.1978 60.0793 59.13 60.0793 60.0115C60.0793 60.893 61.2321 60.9608 61.2321 60.9608V61.3677H61.6389V61.8424ZM280.189 18.3086C280.121 18.3086 280.121 18.3086 280.189 18.3086ZM285.682 61.8424V72.2172H274.697V61.8424V61.3677H275.104V60.9608C275.104 60.9608 276.256 60.9608 276.256 60.0115C276.256 59.13 275.104 59.1978 275.104 59.1978C275.104 59.1978 274.697 57.8416 275.985 57.2313C277.138 56.6888 280.189 55.4004 280.189 54.8579C280.189 55.4004 283.241 56.6888 284.393 57.2313C285.682 57.8416 285.275 59.1978 285.275 59.1978C285.275 59.1978 284.122 59.13 284.122 60.0115C284.122 60.893 285.275 60.9608 285.275 60.9608V61.3677H285.682V61.8424Z" fill="url(#paint0_linear)"/>
</g>
<defs>
<linearGradient id="paint0_linear" x1="168.168" y1="184.374" x2="168.168" y2="10.2103" gradientUnits="userSpaceOnUse">
<stop offset="0.005618" stop-color="#FCE6F0"/>
<stop offset="0.4494" stop-color="#F9C9DE"/>
<stop offset="1" stop-color="#F7B2D0"/>
</linearGradient>
</defs>
</svg>
