<svg width="116" height="146" viewBox="0 0 116 146" fill="none" xmlns="http://www.w3.org/2000/svg">
<path d="M108.926 119.204C110.973 114.921 112.644 112.297 112.644 105.391C112.644 98.4849 112.644 49.9906 112.644 49.9906C112.644 49.9906 113.796 52.4636 114.831 53.9414C115.349 51.8001 115.208 50.3224 115.208 50.3224C115.208 50.3224 113.02 42.421 112.385 38.3195C111.491 39.7972 110.597 40.2797 110.597 40.2797C110.597 40.2797 110.597 98.8166 110.597 104.577C110.597 110.337 110.22 115.916 108.926 119.204Z" fill="url(#paint0_linear)" fill-opacity="0.5"/>
<path d="M89.0468 144.687C91.0935 140.405 92.7639 137.781 92.7639 130.875C92.7639 123.968 92.7639 23.2102 92.7639 23.2102C92.7639 23.2102 93.9167 25.6832 94.9518 27.1609C95.4694 25.0197 95.3283 23.542 95.3283 23.542C95.3283 23.542 93.1403 15.6405 92.5051 11.539C91.6111 13.0168 90.7171 13.4993 90.7171 13.4993C90.7171 13.4993 90.7171 124.3 90.7171 130.06C90.7171 135.79 90.3407 141.37 89.0468 144.687Z" fill="url(#paint1_linear)" fill-opacity="0.5"/>
<path d="M67.4966 100.807C69.5434 96.5246 71.2137 93.9008 71.2137 86.9946C71.2137 80.0884 71.2137 46.5526 71.2137 46.5526C71.2137 46.5526 72.3665 49.0256 73.4017 50.5033C73.9192 48.3621 73.7781 46.8844 73.7781 46.8844C73.7781 46.8844 71.5901 38.9829 70.9549 34.8814C70.0609 36.3592 69.1669 36.8417 69.1669 36.8417C69.1669 36.8417 69.1669 80.4202 69.1669 86.1804C69.1669 91.9406 68.7905 97.4897 67.4966 100.807Z" fill="url(#paint2_linear)" fill-opacity="0.5"/>
<path d="M100.975 88.02C100.975 77.0123 100.975 25.3213 100.975 25.3213C100.975 25.3213 101.869 24.8388 102.763 23.361C103.398 27.4625 105.586 35.364 105.586 35.364C105.586 35.364 105.703 36.8417 105.209 38.9829C104.174 37.5052 103.021 35.0322 103.021 35.0322C103.021 35.0322 103.021 79.9376 103.021 89.4676C103.021 89.4676 103.021 102.767 103.021 108.196C103.021 113.624 100.833 121.194 97.2574 122.822C93.6579 124.481 79.5892 129.729 79.0716 107.05C78.5541 84.3709 90.4819 91.4279 89.2115 102.617C88.3645 110.066 88.2939 115.585 75.0722 116.248C75.0722 116.248 76.7426 122.822 72.7666 128.733C68.7907 134.644 58.792 146.497 47.3818 145.984C35.9716 145.471 35.5717 127.738 40.8415 112.78C41.1003 116.218 41.1003 116.218 41.1003 116.218C41.1003 116.218 35.454 136.273 44.2999 141.038C53.1458 145.803 71.6138 128.04 72.649 123.607C73.6841 119.173 70.7198 111.453 69.8258 109.643C70.3434 105.693 70.6022 104.547 70.6022 104.547C70.6022 104.547 73.0489 111.453 77.2601 111.785C81.4949 112.116 86.1295 108.829 87.0235 104.064C87.9175 99.2991 84.4591 97.4897 82.9299 97.6404C80.8126 97.8817 80.6479 102.888 80.695 104.728C80.8126 109.613 82.6947 118.932 87.0706 120.44C89.5879 121.315 96.1987 120.44 98.2455 118.359C101.939 114.559 100.857 105.934 100.88 100.536C100.88 96.3738 100.928 92.212 100.975 88.02Z" fill="url(#paint3_linear)" fill-opacity="0.5"/>
<path d="M82.9534 85.6375C85.4001 87.7788 87.0469 89.92 87.0469 89.92L89.4937 84.6725C89.4937 84.6725 87.8233 81.3852 85.8941 80.9027C83.4709 84.6423 82.9534 85.6375 82.9534 85.6375Z" fill="url(#paint4_linear)" fill-opacity="0.5"/>
<path d="M76.4131 85.6375C78.8598 87.7788 80.5067 89.92 80.5067 89.92L82.9534 84.6725C82.9534 84.6725 81.283 81.3852 79.3539 80.9027C76.9307 84.6423 76.4131 85.6375 76.4131 85.6375Z" fill="url(#paint5_linear)" fill-opacity="0.5"/>
<path d="M34.5365 103.431C36.9832 105.572 38.6301 107.713 38.6301 107.713L41.0768 102.466C41.0768 102.466 39.4064 99.1785 37.4773 98.696C35.0541 102.436 34.5365 103.431 34.5365 103.431Z" fill="url(#paint6_linear)" fill-opacity="0.5"/>
<path d="M27.6198 74.66C30.0665 76.8012 31.7133 78.9424 31.7133 78.9424L34.16 73.6949C34.16 73.6949 32.4897 70.4077 30.5605 69.9251C28.1373 73.6647 27.6198 74.66 27.6198 74.66Z" fill="url(#paint7_linear)" fill-opacity="0.5"/>
<path d="M34.4188 74.1473C36.8656 76.2885 38.5124 78.4297 38.5124 78.4297L40.9591 73.1822C40.9591 73.1822 39.2888 69.895 37.3596 69.4125C34.9129 73.1822 34.4188 74.1473 34.4188 74.1473Z" fill="url(#paint8_linear)" fill-opacity="0.5"/>
<path d="M79.6833 9.69942C79.6833 9.69942 79.8715 65.6427 79.8715 69.5633C79.8715 73.4838 78.0835 76.8917 74.2487 77.0726C70.3904 77.2234 68.226 77.4044 62.5797 70.3172C56.9334 63.2602 34.4188 42.5718 26.9845 37.475C19.5502 32.3783 15.8331 31.564 20.5619 27.6133C25.2906 23.6626 47.8758 9.36768 60.8388 6.74393C73.8017 4.12017 75.7073 8.55341 68.7906 16.2739C61.8739 23.9944 59.5448 31.4133 59.5448 31.4133C59.5448 31.4133 65.4499 22.3658 68.6495 18.5961C71.8491 14.8263 74.2958 11.5391 75.0721 8.55342C75.8485 5.56776 76.7425 1.798 72.6254 0.320252C68.5319 -1.1575 57.8745 2.79322 50.9578 5.74871C44.041 8.70421 26.7022 18.1437 20.8207 23.1801C18.1387 25.4721 17.8799 26.3165 17.3623 29.9355C16.8447 33.5545 16.4683 34.5497 19.809 38.1687C23.1498 41.7876 33.4072 50.3224 36.7479 54.6048C40.0886 58.8873 47.4053 69.4125 48.2993 73.0314C49.1933 76.6504 49.1933 79.1234 45.9937 80.6011C42.7942 82.0789 33.9483 82.0789 23.8085 89.4676C13.6687 96.8564 10.2103 105.572 5.3404 103.944C0.470472 102.285 0.0705316 89.7994 8.0224 77.6456C8.0224 76.8314 8.0224 76.8314 8.0224 76.8314C8.0224 76.8314 2.51726 82.7424 0.446949 92.785C-1.59983 102.828 3.78767 107.924 8.39881 107.593C13.01 107.261 21.2677 94.7453 28.7961 90.9755C40.9826 84.8836 45.9937 88.3518 49.0521 82.7424C52.1341 77.1631 50.4637 73.6949 48.5346 67.9347C46.6054 62.1745 42.7706 56.4143 42.7706 56.4143C42.7706 56.4143 54.6514 66.0951 59.5213 73.3029C64.3912 80.5408 66.6968 82.3503 72.6019 82.3503C78.507 82.3503 81.2125 74.8409 82.2006 69.6839C83.1887 64.4967 82.6711 63.1999 82.6711 59.8524C82.6711 50.6541 82.6711 19.7421 82.6711 19.7421L84.3415 23.361L84.7179 20.2246C84.7179 20.2246 82.2712 10.5137 82.0359 6.56298C80.4597 8.22167 79.6833 9.69942 79.6833 9.69942Z" fill="url(#paint9_linear)" fill-opacity="0.5"/>
<path d="M60.4389 89.7692C60.1801 89.2867 55.569 82.0487 55.569 82.0487L53.8986 86.6629C58.2509 98.9976 58.2509 99.1484 59.0273 102.617C59.8037 106.055 58.9097 106.567 55.6866 110.337C52.487 114.107 28.7726 132.413 20.0443 125.567C12.6571 119.776 13.4805 111.664 14.5157 105.904C13.6217 106.718 13.9746 106.778 13.9746 106.778C13.9746 106.778 11.3632 115.464 14.7745 123.516C19.1739 133.89 26.7023 132.051 33.619 129.759C40.5357 127.467 55.9454 116.942 58.7685 112.991C61.5917 109.04 61.2152 103.461 60.8153 100.174C60.4389 96.8865 57.9921 89.8295 57.9921 89.8295L59.9213 91.3072L60.4389 89.7692Z" fill="url(#paint10_linear)" fill-opacity="0.5"/>
<path d="M55.4513 30.2672C53.4045 25.5022 52.7693 22.3658 53.1457 19.742C53.5222 17.1183 51.4754 20.0738 50.9578 21.5515C50.4402 23.0293 49.2874 29.9355 50.5814 37.5052C51.8753 45.0748 52.3694 46.7034 52.3694 46.7034C52.3694 46.7034 39.4064 47.1859 30.043 56.0826C20.6795 64.949 19.0092 69.895 13.6217 72.187C8.23417 74.479 3.10546 71.1918 6.18739 61.1793C9.26933 51.1366 18.2328 42.9336 18.2328 42.9336L18.6092 41.2749C18.6092 41.2749 10.2809 47.0351 4.63465 60.3348C-1.01164 73.6647 10.1398 84.6724 18.868 74.298C27.5962 63.9538 32.5838 57.5301 42.9824 54.062C53.381 50.6239 55.0278 51.589 57.9921 54.7254C60.9329 57.8619 59.6625 56.3841 60.2977 57.1984C60.9329 58.0127 61.4505 57.0476 61.7093 55.8714C61.9681 54.6953 61.9681 51.2573 61.9681 51.2573C61.9681 51.2573 55.6866 47.1558 53.7574 39.2543C51.8283 31.3529 52.7223 28.3974 52.7223 28.3974L55.4513 30.2672Z" fill="url(#paint11_linear)" fill-opacity="0.5"/>
<defs>
<linearGradient id="paint0_linear" x1="86.5551" y1="112.553" x2="-94.4135" y2="268.217" gradientUnits="userSpaceOnUse">
<stop stop-color="#FAF5BE"/>
<stop offset="0.1411" stop-color="#F39F8C"/>
<stop offset="0.2772" stop-color="#E87A87"/>
<stop offset="0.6436" stop-color="#154666"/>
<stop offset="0.9247" stop-color="#04364F"/>
</linearGradient>
<linearGradient id="paint1_linear" x1="75.3876" y1="99.5698" x2="-105.581" y2="255.234" gradientUnits="userSpaceOnUse">
<stop stop-color="#FAF5BE"/>
<stop offset="0.1411" stop-color="#F39F8C"/>
<stop offset="0.2772" stop-color="#E87A87"/>
<stop offset="0.6436" stop-color="#154666"/>
<stop offset="0.9247" stop-color="#04364F"/>
</linearGradient>
<linearGradient id="paint2_linear" x1="59.5789" y1="81.1914" x2="-121.39" y2="236.855" gradientUnits="userSpaceOnUse">
<stop stop-color="#FAF5BE"/>
<stop offset="0.1411" stop-color="#F39F8C"/>
<stop offset="0.2772" stop-color="#E87A87"/>
<stop offset="0.6436" stop-color="#154666"/>
<stop offset="0.9247" stop-color="#04364F"/>
</linearGradient>
<linearGradient id="paint3_linear" x1="78.7449" y1="103.473" x2="-102.224" y2="259.137" gradientUnits="userSpaceOnUse">
<stop stop-color="#FAF5BE"/>
<stop offset="0.1411" stop-color="#F39F8C"/>
<stop offset="0.2772" stop-color="#E87A87"/>
<stop offset="0.6436" stop-color="#154666"/>
<stop offset="0.9247" stop-color="#04364F"/>
</linearGradient>
<linearGradient id="paint4_linear" x1="75.9641" y1="100.24" x2="-105.005" y2="255.905" gradientUnits="userSpaceOnUse">
<stop stop-color="#FAF5BE"/>
<stop offset="0.1411" stop-color="#F39F8C"/>
<stop offset="0.2772" stop-color="#E87A87"/>
<stop offset="0.6436" stop-color="#154666"/>
<stop offset="0.9247" stop-color="#04364F"/>
</linearGradient>
<linearGradient id="paint5_linear" x1="72.3748" y1="96.0673" x2="-108.594" y2="251.731" gradientUnits="userSpaceOnUse">
<stop stop-color="#FAF5BE"/>
<stop offset="0.1411" stop-color="#F39F8C"/>
<stop offset="0.2772" stop-color="#E87A87"/>
<stop offset="0.6436" stop-color="#154666"/>
<stop offset="0.9247" stop-color="#04364F"/>
</linearGradient>
<linearGradient id="paint6_linear" x1="56.3095" y1="77.3904" x2="-124.659" y2="233.055" gradientUnits="userSpaceOnUse">
<stop stop-color="#FAF5BE"/>
<stop offset="0.1411" stop-color="#F39F8C"/>
<stop offset="0.2772" stop-color="#E87A87"/>
<stop offset="0.6436" stop-color="#154666"/>
<stop offset="0.9247" stop-color="#04364F"/>
</linearGradient>
<linearGradient id="paint7_linear" x1="41.3397" y1="59.9871" x2="-139.629" y2="215.651" gradientUnits="userSpaceOnUse">
<stop stop-color="#FAF5BE"/>
<stop offset="0.1411" stop-color="#F39F8C"/>
<stop offset="0.2772" stop-color="#E87A87"/>
<stop offset="0.6436" stop-color="#154666"/>
<stop offset="0.9247" stop-color="#04364F"/>
</linearGradient>
<linearGradient id="paint8_linear" x1="44.8782" y1="64.1009" x2="-136.09" y2="219.765" gradientUnits="userSpaceOnUse">
<stop stop-color="#FAF5BE"/>
<stop offset="0.1411" stop-color="#F39F8C"/>
<stop offset="0.2772" stop-color="#E87A87"/>
<stop offset="0.6436" stop-color="#154666"/>
<stop offset="0.9247" stop-color="#04364F"/>
</linearGradient>
<linearGradient id="paint9_linear" x1="42.2918" y1="61.094" x2="-138.677" y2="216.758" gradientUnits="userSpaceOnUse">
<stop stop-color="#FAF5BE"/>
<stop offset="0.1411" stop-color="#F39F8C"/>
<stop offset="0.2772" stop-color="#E87A87"/>
<stop offset="0.6436" stop-color="#154666"/>
<stop offset="0.9247" stop-color="#04364F"/>
</linearGradient>
<linearGradient id="paint10_linear" x1="57.9262" y1="79.2698" x2="-123.042" y2="234.934" gradientUnits="userSpaceOnUse">
<stop stop-color="#FAF5BE"/>
<stop offset="0.1411" stop-color="#F39F8C"/>
<stop offset="0.2772" stop-color="#E87A87"/>
<stop offset="0.6436" stop-color="#154666"/>
<stop offset="0.9247" stop-color="#9627A8"/>
</linearGradient>
<linearGradient id="paint11_linear" x1="35.8372" y1="53.59" x2="-145.131" y2="209.254" gradientUnits="userSpaceOnUse">
<stop stop-color="#FAF5BE"/>
<stop offset="0.1411" stop-color="#F39F8C"/>
<stop offset="0.2772" stop-color="#E87A87"/>
<stop offset="0.6436" stop-color="#154666"/>
<stop offset="0.9247" stop-color="#04364F"/>
</linearGradient>
</defs>
</svg>
