<svg width="228" height="157" viewBox="0 0 228 157" fill="none" xmlns="http://www.w3.org/2000/svg">
<path d="M6.52874 94.5934L0.405029 98.2547L6.65834 101.689L6.52874 94.5934Z" fill="#F095FF" fill-opacity="0.2"/>
<path d="M84.8572 147.374L86.785 146.224L86.7688 146.208L84.8572 147.374Z" fill="#F095FF" fill-opacity="0.2"/>
<path d="M83.5126 123.43L6.302 80.8718L83.5126 123.43Z" fill="#A5A5A5" fill-opacity="0.2"/>
<path d="M84.4035 121.356L209.875 46.511L125.471 0L0 74.8291L84.4035 121.356Z" fill="#F095FF" fill-opacity="0.2"/>
<path d="M84.4036 121.356L86.4124 124.677L88.648 123.317L211.867 49.832L209.875 46.511L84.4036 121.356Z" fill="#F095FF" fill-opacity="0.2"/>
<path d="M102.159 144.021L100.588 156.414L226.059 81.5846L227.63 69.1914L102.159 144.021Z" fill="#F095FF" fill-opacity="0.2"/>
<path d="M83.869 144.247L86.704 142.53L89.9927 147.99L98.595 152.736L99.8586 142.757L98.2386 131.174L89.6201 126.427L86.461 128.355L83.5126 123.43L6.302 80.8718L6.5288 94.5934L6.65841 101.689L83.869 144.247Z" fill="#FFE7B2" fill-opacity="0.2"/>
<path d="M100.134 129.651L102.159 144.021L227.63 69.1914L225.605 54.8217L100.134 129.651Z" fill="#F095FF" fill-opacity="0.2"/>
<path d="M102.159 144.021L100.134 129.651L88.648 123.317L86.4123 124.677L84.4035 121.356L0 74.8291L0.0162 76.1251L0.0486013 77.4211L6.30191 80.8718L83.5125 123.43L86.4609 128.355L89.62 126.427L98.2385 131.174L99.8586 142.757L98.5949 152.736L89.9926 147.99L86.7039 142.53L83.8689 144.247L6.65832 101.689L0.405007 98.2547L0.421207 99.5507L0.437408 100.847L84.8571 147.374L86.7687 146.208L86.7849 146.224L89.1016 150.079L100.588 156.414L102.159 144.021Z" fill="#F095FF" fill-opacity="0.2"/>
<path d="M88.6479 123.317L100.134 129.651L225.605 54.8218L214.119 48.4875L211.867 49.8321L88.6479 123.317Z" fill="#F095FF" fill-opacity="0.2"/>
<g opacity="0.7">
<g opacity="0.7">
<path opacity="0.7" d="M123.009 61.6097C123.025 61.6583 123.057 61.7231 123.074 61.7717C122.62 61.8689 122.183 61.9985 121.713 62.0471C119.947 62.2901 118.376 62.7275 116.95 63.3593C116.545 63.5375 116.172 63.7643 115.913 64.0235C115.767 64.1531 115.767 64.4285 115.913 64.5581C115.913 64.5581 115.929 64.5743 115.946 64.5743C116.091 64.6553 116.48 64.6715 116.756 64.6553C117.08 64.6553 117.387 64.5743 117.695 64.5419C117.728 64.5743 117.76 64.5905 117.792 64.6229C117.63 64.7525 117.517 64.9307 117.29 64.9955C116.61 65.2061 115.913 65.4653 115.168 65.5625C114.601 65.6273 114.131 65.5463 113.807 65.3681C113.402 65.1413 113.272 64.7525 113.548 64.3637C113.985 63.7319 114.828 63.2945 115.751 62.9219C117.647 62.1443 119.785 61.7231 122.102 61.5935C122.409 61.5773 122.717 61.6097 123.009 61.6097Z" fill="white"/>
</g>
<g opacity="0.7">
<path opacity="0.7" d="M139.177 51.6465C139.209 51.6789 139.225 51.7275 139.258 51.7599C138.885 51.8733 138.513 52.0191 138.124 52.1163C136.682 52.4889 135.305 52.9101 134.139 53.5257C133.863 53.6715 133.604 53.8335 133.442 54.0279C133.345 54.1251 133.377 54.3357 133.491 54.4167C133.636 54.4977 133.944 54.5139 134.155 54.4977C134.479 54.4815 134.803 54.4005 135.273 54.3195C134.77 55.0161 132.745 55.5346 131.773 55.2915C131.627 55.2591 131.482 55.1943 131.368 55.1295C131.028 54.9351 130.898 54.6273 131.174 54.3519C131.546 53.9793 132.032 53.6067 132.616 53.3151C134.317 52.4727 136.293 51.9543 138.464 51.6627C138.691 51.6465 138.934 51.6627 139.177 51.6465Z" fill="white"/>
</g>
<g opacity="0.7">
<path opacity="0.7" d="M162.116 33.0972L188.75 48.4712L173.359 57.4138C172.841 56.8306 172.258 56.2474 171.593 55.6966C174.169 53.4123 175.303 50.6583 174.736 48.0338C173.861 43.9676 169.601 41.0677 166.166 38.7349C165.891 38.5405 165.632 38.3623 165.373 38.2003C164.319 37.4712 163.023 36.5316 162.23 35.6568C161.549 34.8954 161.63 34.62 161.646 34.6038L162.116 33.0972ZM174.963 54.7245L185.72 48.4712L169.309 38.9941C172.565 41.2783 176.032 44.081 176.859 47.9042C177.361 50.2209 176.68 52.5861 174.963 54.7245Z" fill="white"/>
</g>
<g opacity="0.7">
<path opacity="0.7" d="M77.9235 61.4963C78.0045 61.5449 78.0369 61.6097 78.0531 61.7231C78.0693 62.4197 78.1341 63.1325 78.1179 63.8291C78.1179 64.3151 77.8263 64.5257 77.0163 64.6067C76.1091 64.7039 75.2019 64.7525 74.2947 64.8173C74.0841 64.8335 73.9383 64.8011 73.8411 64.7525C73.7277 64.6877 73.6791 64.5743 73.6791 64.4609C73.6305 63.7481 73.6143 63.0353 73.6143 62.3225C73.6143 62.1929 73.7277 62.0795 73.7925 61.9337C74.1327 61.8689 74.4243 61.7717 74.7483 61.7393C75.6393 61.6259 76.5627 61.5449 77.4537 61.4477C77.6643 61.4315 77.8101 61.4477 77.9235 61.4963Z" fill="white"/>
</g>
<g opacity="0.7">
<path opacity="0.7" d="M86.7688 63.8291C86.785 63.8615 86.8174 63.9101 86.8498 63.9425C86.6068 64.0397 86.3962 64.1531 86.137 64.2503C85.0678 64.6391 83.9175 64.9793 82.9293 65.4329C82.3299 65.7083 81.8925 66.1295 81.5361 66.5184C81.3579 66.729 81.3417 66.8586 81.5037 66.9558C81.6333 67.0368 81.8925 67.0692 82.2489 67.053C82.5567 67.0368 82.8483 67.0044 83.2047 66.9882C82.7349 67.4094 80.7747 67.9116 80.0457 67.7982C79.8675 67.782 79.7541 67.7334 79.6569 67.6848C79.4625 67.5714 79.4301 67.3932 79.4463 67.1988C79.5435 66.3725 80.2077 65.7245 81.2769 65.2061C82.6215 64.5581 84.1606 64.1369 85.8292 63.8615C86.1046 63.8129 86.4448 63.8291 86.7688 63.8291Z" fill="white"/>
</g>
<g opacity="0.7">
<path opacity="0.7" d="M79.2194 58.5802C78.9278 58.7098 78.6524 58.8718 78.3122 58.9528C78.1178 59.0014 77.8262 58.9366 77.5832 58.9042C77.1944 58.8556 76.8056 58.7908 76.433 58.726C72.6745 58.0618 72.6907 58.0132 68.7216 59.5846C68.0736 59.8439 67.5066 60.1841 66.9558 60.5081C66.6642 60.6701 66.4374 60.8807 66.2592 61.1075C66.1458 61.2371 66.081 61.4639 66.1944 61.5449C66.3726 61.6421 66.7128 61.6583 66.9882 61.6583C67.3284 61.6583 67.6686 61.5935 68.0088 61.5611C68.025 61.6097 68.0412 61.6421 68.0736 61.6907C67.1988 62.1605 66.2268 62.4845 64.9794 62.4359C64.7202 62.4197 64.4934 62.3711 64.3314 62.2739C64.1207 62.1443 64.0397 61.9661 64.1693 61.7717C64.4934 61.2857 64.8822 60.7835 65.433 60.3785C66.7938 59.4388 68.5758 58.7908 70.4875 58.2886C70.6819 58.24 70.8277 58.1428 71.0059 58.0618C70.8439 57.9808 70.6981 57.8674 70.5037 57.835C69.7098 57.6892 68.8998 57.5596 68.0898 57.43C67.863 57.3976 67.62 57.3814 67.4256 57.3166C67.1664 57.2356 66.9558 57.106 66.729 56.9926C67.0368 56.8954 67.3284 56.701 67.6362 56.701C68.1708 56.6848 68.7216 56.7658 69.24 56.8468C72.3343 57.3166 75.4285 57.7864 78.5228 58.2724C78.6686 58.2886 78.782 58.3534 78.9116 58.4182C78.944 58.4344 78.9764 58.4506 79.0088 58.483C79.0412 58.4992 79.0736 58.5154 79.106 58.5316C79.1384 58.5316 79.1708 58.564 79.2194 58.5802Z" fill="white"/>
</g>
<g opacity="0.7">
<path opacity="0.7" d="M92.3094 36.9528C92.439 37.4388 91.9044 37.8762 91.0458 37.9249C90.9162 37.9249 90.738 37.8763 90.6084 37.7952C90.5436 37.7628 90.495 37.7142 90.4626 37.6818C90.3006 37.4874 90.252 37.2606 90.1548 37.05C89.442 37.1148 88.7129 37.1796 88.0001 37.2282C84.9059 37.4388 81.925 37.0824 78.9766 36.5802C78.8632 36.564 78.7498 36.5154 78.6526 36.4506C78.5878 36.4182 78.5392 36.3696 78.4744 36.3372C78.4096 36.3048 78.361 36.2562 78.2962 36.2238C78.28 36.2238 78.2638 36.2076 78.2476 36.2076C78.5554 36.159 78.8632 36.0618 79.1386 36.078C80.4832 36.2076 81.8116 36.3858 83.14 36.5154C85.0517 36.6936 86.9633 36.7584 88.8911 36.6126C89.2962 36.5802 89.7012 36.5316 90.171 36.4992C90.09 36.0132 90.2358 35.592 90.8676 35.2842C91.7586 34.8468 92.7306 34.5066 93.9456 34.4742C94.383 34.458 94.6909 34.5228 94.8691 34.62C95.1121 34.7658 95.1445 35.0088 94.8853 35.3004C94.4802 35.7864 93.7674 36.1104 92.9898 36.3696C92.7468 36.4506 92.4714 36.5316 92.1798 36.6126C92.2446 36.7584 92.2932 36.8556 92.3094 36.9528ZM91.9854 36.159C92.4876 35.9322 92.8926 35.7702 93.249 35.5758C93.3786 35.4948 93.4596 35.3004 93.3786 35.2194C93.3624 35.2032 93.33 35.187 93.2976 35.1708C93.168 35.0898 92.9574 35.0412 92.7792 35.025C92.1474 34.9764 91.7262 35.2518 91.791 35.6244C91.8234 35.7864 91.9044 35.916 91.9854 36.159Z" fill="white"/>
</g>
<g opacity="0.7">
<path opacity="0.7" d="M116.367 54.9675C116.383 55.0161 116.399 55.0648 116.399 55.1134C116.075 55.1944 115.751 55.2916 115.427 55.3726C113.953 55.729 112.462 56.0854 111.004 56.458C110.697 56.539 110.437 56.701 110.194 56.8468C109.903 57.025 109.838 57.268 110.13 57.43C110.356 57.5596 110.729 57.6406 111.037 57.6406C111.361 57.6406 111.701 57.5434 112.187 57.4624C112.041 57.592 111.993 57.673 111.895 57.7216C111.199 58.078 110.389 58.3372 109.449 58.402C108.915 58.4344 108.461 58.3372 108.169 58.1752C107.781 57.9484 107.667 57.592 107.991 57.2356C108.331 56.863 108.866 56.5228 109.433 56.2636C111.166 55.5022 113.159 55.0972 115.314 54.9352C115.654 54.9028 116.01 54.9513 116.367 54.9675Z" fill="white"/>
</g>
<g opacity="0.7">
<path opacity="0.7" d="M93.5406 32.6274C93.5568 32.676 93.5568 32.7246 93.573 32.7732C93.249 32.8218 92.925 32.8866 92.601 32.9028C91.305 32.9838 90.1061 33.1944 89.0531 33.648C88.7453 33.7776 88.4537 33.9558 88.2269 34.134C87.9839 34.3446 87.9515 34.5066 88.1135 34.6038C88.2269 34.6686 88.4375 34.7172 88.7453 34.7172C88.9721 34.7172 89.1989 34.7172 89.4581 34.7334C88.9073 35.0574 87.8705 35.2518 87.1739 35.1546C86.9633 35.1222 86.7851 35.0736 86.6393 34.9926C86.3153 34.7982 86.2181 34.5066 86.4935 34.1988C86.7851 33.891 87.2225 33.5994 87.7085 33.405C89.2637 32.8056 91.0296 32.5788 92.8764 32.5626C93.1032 32.5626 93.33 32.595 93.5406 32.6274Z" fill="white"/>
</g>
<g opacity="0.7">
<path opacity="0.7" d="M92.9248 85.6995C93.1354 85.8291 93.265 85.9911 93.2164 86.2017C93.103 86.8011 92.86 87.3681 92.0824 87.8055C91.6612 88.0485 91.2238 88.2268 90.592 88.1457C90.7216 88.0809 90.8512 87.9999 90.9808 87.9351C91.0132 87.8541 91.0294 87.8055 91.0618 87.7407C90.9646 87.7407 90.8674 87.7407 90.754 87.7569C90.6892 87.8541 90.6406 87.9513 90.592 88.0485C90.3652 87.6921 90.5434 87.3843 90.7216 87.0441C90.8188 86.8659 90.8188 86.5581 90.6568 86.4609C90.3166 86.3313 89.7658 86.2827 89.4418 86.3637C88.2754 86.6715 87.1737 87.0603 86.0235 87.3843C85.1487 87.6273 84.2415 87.8541 83.3343 88.0647C83.1399 88.1133 82.8969 88.0971 82.5081 88.1133C82.6863 87.9027 82.8159 87.7731 82.9293 87.6273C83.4963 86.9631 84.1443 86.3151 84.6141 85.6347C84.8571 85.2945 84.7275 84.8733 84.2577 84.5493C83.2857 83.8689 83.3829 83.3181 84.5817 82.7834C84.9219 82.6376 85.3107 82.508 85.6995 82.3784C85.9749 82.2974 86.2179 82.2974 86.3799 82.3946C86.4447 82.4432 86.5095 82.4918 86.5419 82.5728C86.9631 83.4153 86.9793 84.2577 86.3151 85.0839C86.2665 85.1325 86.1693 85.1973 86.1855 85.2459C86.4285 85.7319 86.0397 86.1369 85.7157 86.5581C85.6671 86.6229 85.6671 86.6877 85.6185 86.8173C86.3637 86.8173 86.8173 86.5257 87.3843 86.3799C87.9999 86.2179 88.6318 86.0559 89.2474 85.8939C89.3446 85.8615 89.4094 85.8129 89.5066 85.7967C90.3976 85.4889 91.3534 85.3431 92.374 85.5537C92.6008 85.5537 92.779 85.6185 92.9248 85.6995Z" fill="white"/>
</g>
<g opacity="0.7">
<path opacity="0.7" d="M79.7217 81.7142C79.7865 81.7466 79.8513 81.7952 79.8999 81.8276C80.4669 82.3137 80.3374 82.8483 79.4301 83.0913C78.3933 83.3829 77.2593 83.5935 76.1415 83.7393C75.2829 83.8527 74.3594 83.8041 73.4522 83.8203C73.2254 83.8203 72.9824 83.7879 72.7556 83.7555C72.7556 83.7069 72.7556 83.6583 72.7556 83.6259C73.8734 83.4963 74.9913 83.3829 76.1253 83.2533C76.5303 83.2047 76.9677 83.1885 77.3403 83.0913C77.5833 83.0265 77.9073 82.8483 77.8911 82.7349C77.8911 82.6701 77.7939 82.5891 77.6805 82.5243C77.5833 82.4595 77.4537 82.4109 77.3403 82.3623C77.1621 82.2813 76.8705 82.2975 76.7085 82.2164C76.5789 82.1354 76.4817 81.9734 76.5465 81.8924C77.0487 81.3254 78.9117 81.2444 79.7217 81.7142Z" fill="white"/>
</g>
<g opacity="0.7">
<path opacity="0.7" d="M69.9852 42.1369C70.3092 42.3151 70.293 42.5743 69.9528 42.8498C69.1914 43.433 68.1708 43.8218 66.9719 43.9838C65.8865 44.1296 64.7525 44.162 63.6347 44.2106C63.3269 44.2268 63.0029 44.0972 62.6951 44.0324C62.7113 43.9838 62.7113 43.9352 62.7275 43.8866C63.0191 43.8542 63.3107 43.8218 63.5861 43.7894C64.6391 43.676 65.7083 43.5788 66.7613 43.433C67.0529 43.4006 67.3284 43.2872 67.5714 43.1738C68.0412 42.9632 68.1546 42.8336 67.9116 42.6877C67.8144 42.6391 67.6848 42.5905 67.5065 42.5257C67.4579 42.5095 67.3931 42.4771 67.3445 42.4447C67.2473 42.3961 67.1663 42.3151 67.1663 42.2665C67.1663 42.1693 67.3283 42.0559 67.4741 41.9911C68.0412 41.7643 69.3858 41.8291 69.9204 42.0883C69.9366 42.1045 69.969 42.1207 69.9852 42.1369Z" fill="white"/>
</g>
<g opacity="0.7">
<path opacity="0.7" d="M59.0015 54.7084C59.2121 54.8218 59.3579 54.9838 59.4551 55.1782C59.6171 55.567 59.3093 55.8424 58.7909 55.9882C57.9485 56.2312 57.0736 56.4256 56.1826 56.5714C55.1296 56.7334 54.0442 56.8306 52.9588 56.9602C52.9264 56.9278 52.894 56.8954 52.8616 56.863C53.1208 56.7658 53.3476 56.62 53.623 56.5552C54.595 56.3446 55.5994 56.1664 56.5876 55.9882C57.6083 55.7938 57.7541 55.5184 57.025 55.1134C57.0088 55.0972 56.9926 55.0972 56.9602 55.081C56.944 55.081 56.944 55.0648 56.9278 55.0648C56.6848 54.919 56.6362 54.8056 56.9602 54.676C57.6893 54.3681 58.4993 54.4006 59.0015 54.7084Z" fill="white"/>
</g>
<g opacity="0.7">
<path opacity="0.7" d="M53.6553 85.7967L53.1855 87.3033L26.5522 71.9293L41.9425 62.9867C42.4609 63.5699 43.0441 64.1531 43.7083 64.7039C41.1325 66.9882 39.9985 69.7422 40.5655 72.3505C41.4403 76.4167 45.701 79.3166 49.1354 81.6494C49.3946 81.8276 49.6701 82.0058 49.9293 82.184C50.9823 82.913 52.2783 83.8527 53.0721 84.7275C53.7363 85.5051 53.6553 85.7967 53.6553 85.7967ZM29.5655 71.9293L45.9764 81.4064C42.7201 79.1222 39.2533 76.3195 38.4433 72.4963C37.941 70.1958 38.6215 67.8306 40.3387 65.6759L29.5655 71.9293Z" fill="white"/>
</g>
<g opacity="0.7">
<g opacity="0.7">
<path opacity="0.7" d="M127.626 13.187L154.259 28.5611L151.651 28.8365C151.635 28.8365 151.133 28.8851 149.82 28.4963C148.281 28.0427 146.661 27.2813 145.414 26.6818C145.106 26.536 144.782 26.374 144.474 26.2282C140.424 24.2518 135.402 21.7894 128.387 21.2872C123.851 20.9631 119.137 21.6436 115.184 23.134C114.245 22.7614 113.24 22.4212 112.219 22.1134L127.626 13.187ZM128.647 20.0721C135.24 20.5419 140.1 22.5346 144.037 24.4138L127.642 14.9366L116.885 21.19C120.595 20.1855 124.661 19.7967 128.647 20.0721Z" fill="white"/>
</g>
<g opacity="0.7">
<path opacity="0.7" d="M115.346 40.5979C115.638 40.7599 115.621 41.0029 115.378 41.1973C114.957 41.5375 114.504 41.8615 114.018 42.1693C113.872 42.2666 113.451 42.3152 113.305 42.2504C113.289 42.2504 113.289 42.2503 113.272 42.2341C113.143 42.1531 113.159 41.9587 113.11 41.8291C113.094 41.7967 113.127 41.7643 113.143 41.7157C113.256 41.4727 113.305 41.3593 113.224 41.2945C113.143 41.2459 112.932 41.2459 112.56 41.2459C112.462 41.2459 112.365 41.1811 112.268 41.1487C112.268 41.1649 112.252 41.1649 112.252 41.1811L112.236 41.1649H112.252C112.252 40.9057 112.43 40.7437 112.9 40.6465C113.37 40.5655 113.807 40.3873 114.277 40.3387C114.585 40.3063 114.99 40.4035 115.249 40.5169C115.281 40.5655 115.314 40.5655 115.346 40.5979Z" fill="white"/>
</g>
<g opacity="0.7">
<path opacity="0.7" d="M149.334 42.3475C149.367 42.3637 149.383 42.3799 149.415 42.3961C149.934 42.8173 150.484 43.2385 150.987 43.6597C151.262 43.8865 151.116 44.081 150.63 44.081C149.075 44.081 147.487 44.162 146.013 43.7731C145.511 43.6435 145.057 43.4329 144.62 43.2385C144.604 43.2385 144.604 43.2385 144.604 43.2223C144.474 43.1575 144.458 42.9955 144.377 42.8983C144.604 42.8821 144.863 42.8011 145.057 42.8497C145.592 42.9631 146.062 43.1413 146.596 43.2385C146.92 43.3033 147.293 43.2547 147.633 43.2709C147.504 43.0927 147.455 42.8497 147.244 42.7201C147.228 42.7201 147.228 42.7039 147.212 42.7039C146.71 42.4447 146.078 42.2665 145.527 42.0397C145.236 41.9263 144.993 41.7805 144.733 41.6347C145.057 41.6023 145.398 41.5375 145.722 41.5537C147.05 41.5861 148.33 41.7481 149.334 42.3475Z" fill="white"/>
</g>
<g opacity="0.7">
<path opacity="0.7" d="M112.025 40.8895C112.106 41.0191 112.171 41.1001 112.219 41.1811C112.041 41.2945 111.879 41.4241 111.652 41.5213C109.773 42.2989 107.894 43.0765 106.015 43.8542C105.804 43.9352 105.577 44 105.35 44.081C105.302 44.0648 105.237 44.0486 105.188 44.0162C105.253 43.8866 105.286 43.7408 105.383 43.6112C105.853 42.9631 106.355 42.3313 106.809 41.6833C107.084 41.2945 106.938 40.8895 106.614 40.5007C105.998 39.7717 106.079 39.3991 106.954 38.9779C107.424 38.7511 107.943 38.7511 108.348 38.9779C108.396 39.0103 108.429 39.0265 108.477 39.0589C109.077 39.5125 109.109 40.0471 108.996 40.5817C108.898 41.0839 108.785 41.5861 108.672 42.1369C109.822 41.7157 110.891 41.3107 112.025 40.8895Z" fill="white"/>
</g>
<g opacity="0.7">
<path opacity="0.7" d="M93.8646 40.4035C93.8808 40.4521 93.8969 40.4845 93.9132 40.5331C93.6053 40.6141 93.3137 40.7113 93.0059 40.7923C91.5317 41.1811 90.0413 41.5537 88.5995 41.9911C88.1297 42.1369 87.7246 42.4124 87.433 42.6716C87.19 42.8822 87.19 43.0442 87.352 43.1576C87.4816 43.2386 87.7246 43.271 88.0486 43.2548C88.4861 43.2386 88.9397 43.19 89.4257 43.1414C88.9235 43.6922 86.785 44.3402 85.8778 44.2268C85.6996 44.2106 85.5214 44.162 85.3756 44.0972C85.2946 44.0648 85.2136 44.0162 85.1326 43.9838C84.6628 43.7084 84.5494 43.352 85.003 42.9794C85.5538 42.5258 86.218 42.0883 86.9956 41.7481C88.6805 41.0353 90.6083 40.5979 92.6657 40.3873C93.0545 40.3711 93.4757 40.4035 93.8646 40.4035Z" fill="white"/>
</g>
<g opacity="0.7">
<path opacity="0.7" d="M134.446 43.838C133.993 43.919 133.685 44 133.361 44.0324C131.498 44.2754 129.667 44.567 128.063 45.1664C127.707 45.296 127.399 45.4904 127.172 45.701C127.059 45.8144 127.043 45.9116 127.14 45.9764C127.221 46.025 127.351 46.0412 127.561 46.025C127.918 45.9926 128.29 45.9764 128.647 45.9602C128.663 45.9926 128.679 46.025 128.695 46.0574C127.999 46.43 127.221 46.7054 126.265 46.8188C125.86 46.8674 125.423 46.8512 125.164 46.6892C125.099 46.6568 125.05 46.6082 125.002 46.5434C124.84 46.3328 124.791 46.0088 124.953 45.7982C125.407 45.1826 126.362 44.8262 127.351 44.5346C129.068 44.0162 130.931 43.7408 132.842 43.595C133.345 43.5626 133.863 43.5464 134.446 43.838Z" fill="white"/>
</g>
<g opacity="0.7">
<path opacity="0.7" d="M100.102 97.2665C101.041 97.6391 102.029 97.9793 103.066 98.2871L87.676 107.23L61.0427 91.8556L63.651 91.5802C63.6672 91.5802 64.1694 91.5316 65.4816 91.9204C67.0044 92.374 68.6407 93.1354 69.8881 93.7348C70.1959 93.8806 70.5037 94.0264 70.8115 94.1884C74.8778 96.1811 79.8999 98.6435 86.9146 99.1295C91.4183 99.4373 96.1487 98.7569 100.102 97.2665ZM87.6598 105.48L98.4168 99.2267C94.7069 100.231 90.6244 100.62 86.6554 100.345C80.0619 99.8747 75.2018 97.8821 71.2489 96.0029L87.6598 105.48Z" fill="white"/>
</g>
<g opacity="0.7">
<path opacity="0.7" d="M127.869 88.3239C129.57 87.1737 132.373 86.3799 134.884 86.8011L87.7084 114.212L51.0958 93.0706L14.4832 71.9293L61.6584 44.5184C62.4198 45.9602 61.0266 47.5964 59.0663 48.5846C57.1061 49.5729 54.6761 50.2209 52.6996 51.2253C49.2166 52.9749 47.4669 55.81 48.2283 58.4506C48.7144 60.1516 50.2858 61.8365 52.4728 63.1001C53.542 63.7157 54.7409 64.2341 56.0531 64.5905C55.3727 63.6185 55.0163 62.5817 55.0811 61.4315C55.1783 59.8438 56.5229 58.5964 58.3535 57.511C60.735 56.0854 63.6186 55.0648 66.6805 54.2061C66.8425 54.1575 67.0207 54.1089 67.1827 53.9955C66.9559 53.9955 66.7291 53.9955 66.5023 53.9793C64.7364 53.9145 62.9544 53.8983 61.1886 53.7687C60.4272 53.7201 59.6495 53.5095 59.0015 53.2503C58.7909 53.1693 58.6127 53.0883 58.4507 52.9911C57.5921 52.5051 57.3977 51.8247 57.5111 51.0957C57.6893 49.9617 58.7261 49.0707 60.087 48.3092C62.9544 46.7054 66.5185 45.8306 70.2445 45.134C70.3903 45.1016 70.5199 45.0854 70.6657 45.053C70.4551 44.0162 70.8601 43.0927 71.9294 42.3313C72.7556 41.7481 73.6952 41.1973 74.732 40.7437C77.6481 39.4801 81.0339 38.8321 84.5494 38.3461C85.8454 38.1679 87.1738 38.0545 88.4861 37.8763C88.8587 37.8277 89.1341 37.8601 89.3447 37.9897C89.4419 38.0545 89.5391 38.1193 89.6201 38.2165C88.5509 38.3623 87.4978 38.5081 86.461 38.6701C83.0428 39.2047 79.7055 39.8689 76.6598 40.9543C75.4772 41.3755 74.408 41.8777 73.7114 42.5905C73.112 43.2062 73.2092 43.8218 73.9868 44.2754C74.1326 44.3564 74.3108 44.4374 74.5052 44.5184C75.8822 45.0368 77.4375 45.1664 79.0089 45.1826C81.9573 45.2312 84.9058 45.1826 87.8542 45.2636C91.0295 45.3446 94.1886 45.539 97.3638 45.6848C97.4772 45.6848 97.6068 45.701 97.8012 45.7172C97.7364 44.972 97.7202 44.243 97.6068 43.514C97.2342 41.2459 96.8616 38.9779 96.408 36.7098C96.1812 35.6244 97.0398 34.863 98.271 34.1502C99.8911 33.2106 101.738 32.9838 103.909 33.3888C106.857 33.9396 109.806 34.4742 112.722 35.0088C112.803 34.5714 112.9 34.1178 112.965 33.648C113.013 33.243 113.386 32.9676 113.969 32.7894C114.633 32.595 115.33 32.4168 116.01 32.2386C116.756 32.0604 117.517 32.1252 118.278 32.271C123.965 33.324 129.489 34.6362 134.965 36.0132C136.812 36.483 138.658 36.9366 140.489 37.4226C140.7 37.4874 140.975 37.5847 141.169 37.6981C141.315 37.7791 141.412 37.8601 141.396 37.9411C141.364 38.2813 140.683 38.3461 140.214 38.3299C139.517 38.2975 138.804 38.2165 138.172 38.0545C132.616 36.6612 127.156 35.1546 121.454 33.972C119.704 33.5994 117.954 33.243 116.189 32.8704C115.427 32.7084 114.957 32.8218 114.925 33.2754C114.86 34.0692 114.374 34.6848 113.127 35.1546C114.034 35.3652 114.812 35.5272 115.589 35.7054C122.102 37.1634 128.42 38.8645 134.543 40.7923C137.281 41.6509 139.922 42.6229 142.563 43.5788C143 43.7408 143.389 43.9352 143.761 44.1458C144.069 44.324 144.345 44.5022 144.62 44.6966C146.224 45.7658 146.013 46.9646 144.15 47.888C142.53 48.6818 140.667 49.1031 138.561 49.2327C136.261 49.3623 133.96 49.2327 131.676 49.0707C128.08 48.8115 124.499 48.7304 120.903 49.0058C120.06 49.0707 119.234 49.1679 118.392 49.2489C119.105 48.941 119.866 48.7304 120.676 48.5846C124.078 47.9852 127.577 47.8556 131.109 47.9366C133.733 47.9852 136.374 48.1472 138.999 48.293C140.554 48.374 141.186 48.05 141.056 47.1428C140.943 46.2842 140.246 45.6362 139.274 45.0854C138.95 44.891 138.594 44.729 138.221 44.5508C134.884 43.0279 131.19 41.8291 127.432 40.7113C120.563 38.6701 113.467 36.9528 106.177 35.4786C104.67 35.1708 103.147 34.9116 101.624 34.6524C99.7939 34.3608 99.5833 34.4904 99.8911 35.5434C100.993 39.1237 102.062 42.7039 103.164 46.2842C103.196 46.3652 103.293 46.4786 103.407 46.5596C105.837 47.0942 108.007 47.7098 110.032 48.4874C110.972 47.3372 112.43 46.4786 113.839 45.5876C115.087 44.7938 116.383 44.0162 117.63 43.2061C117.954 42.9955 118.262 42.7687 118.457 42.5257C118.943 41.8453 119.85 41.4403 120.935 41.1163C121.194 41.0353 121.421 40.9381 121.697 40.8733C122.102 40.7761 122.539 40.7113 122.96 40.6303C122.928 40.9219 122.717 41.1163 122.588 41.3269C122.507 41.4565 122.588 41.6347 122.523 41.7805C122.15 42.6553 121.778 43.514 121.356 44.3888C121.243 44.6318 121.065 44.8748 120.806 45.0692C120.563 45.2636 120.32 45.296 120.125 45.1988C120.044 45.1502 119.979 45.0854 119.915 44.9882C119.769 44.7452 119.672 44.5022 119.493 44.2592C119.429 44.162 119.348 44.0972 119.25 44.0486C119.04 43.919 118.781 43.9514 118.489 44.1458C116.788 45.296 115.006 46.4138 113.888 47.7908C113.127 48.7142 113.451 49.6863 113.985 50.6259C114.18 50.9661 114.439 51.3063 114.633 51.6465C114.957 52.1973 114.812 52.5051 114.002 52.8615C113.029 53.2665 111.993 53.6391 110.923 54.0603C110.324 52.6185 109.158 51.4521 107.489 50.4963C106.436 49.8807 105.172 49.3623 103.731 48.9087C104.67 53.4771 105.577 57.9646 106.517 62.5655C106.825 62.3873 107.003 62.2739 107.197 62.1767C113.467 58.4992 119.736 54.8218 126.022 51.1605C126.298 50.9985 126.686 50.8689 127.075 50.8041C128.306 50.5773 129.57 50.3991 130.834 50.1885C130.493 50.9337 125.504 56.1664 124.856 56.3608C124.775 56.134 124.677 55.9396 124.645 55.729C124.613 55.4374 124.677 55.1458 124.645 54.8542C124.629 54.7408 124.564 54.5787 124.434 54.5139C124.224 54.4491 123.9 54.5139 123.722 54.5949C123.349 54.7732 123.041 54.9838 122.701 55.1782C118.764 57.4948 114.844 59.7952 110.907 62.1119C109.676 62.8409 108.445 63.5537 107.214 64.2827C107.084 64.3637 106.971 64.4933 106.987 64.5905C107.181 65.3519 107.311 66.1134 107.651 66.8424C107.91 67.4094 108.445 67.8954 109.125 68.3004C110.47 69.078 112.43 69.4506 114.277 69.1914C114.893 69.1104 115.541 68.8998 115.978 68.6406C121.016 65.6111 126.022 62.5493 131.028 59.4874C132.664 58.483 134.349 57.511 135.985 56.5066C139.533 54.3357 143.049 52.1487 146.596 49.9941C147.714 49.3137 148.816 48.6332 149.739 47.8394C150.144 47.483 151.003 47.2724 151.716 47.0618C152.25 46.8998 152.866 46.835 153.611 46.7054C153.514 46.9808 153.482 47.1266 153.384 47.2724C152.315 48.7628 151.246 50.2371 150.161 51.7275C149.95 52.0191 149.626 52.2945 149.27 52.5537C149.124 52.6509 148.751 52.7319 148.557 52.6995C148.362 52.6023 148.265 52.4241 148.265 52.3107C148.249 51.9057 148.298 51.4845 148.314 50.9985C148.087 51.0957 147.973 51.1119 147.892 51.1605C146.175 52.2135 144.458 53.2665 142.741 54.3357C141.477 55.1134 140.23 55.9072 138.95 56.6848C138.772 56.7982 138.658 57.0736 138.189 56.9116C138.189 56.9116 138.027 57.0412 137.962 57.106C137.848 57.2194 137.816 57.3814 137.67 57.4624C136.471 58.2238 135.256 58.969 134.041 59.7142C131.611 61.2209 129.181 62.7599 126.735 64.2665C124.499 65.6435 122.296 67.0368 119.979 68.349C117.922 69.5154 115.508 70.374 112.738 70.8762C110.065 71.3622 107.829 70.9248 105.95 69.8394C104.492 68.9322 103.714 68.0412 103.293 67.053C103.261 66.9558 103.212 66.8748 103.131 66.7128C102.921 66.8424 102.759 66.9234 102.613 67.0206C99.0486 69.078 95.5656 71.184 91.9205 73.2091C89.2961 74.6671 86.2828 75.8173 82.8808 76.6273C82.4434 76.7245 81.9735 76.8055 81.5037 76.8703C81.2769 76.9027 81.0339 76.8541 80.6289 76.8541C81.0501 76.6111 81.2931 76.4167 81.6171 76.2871C85.4566 74.8129 88.7129 72.9499 91.9691 71.0868C95.4684 69.0942 98.9028 67.053 102.354 65.0279C102.548 64.9145 102.726 64.7039 102.694 64.5419C102.094 60.2327 101.479 55.9396 100.863 51.6465C100.555 51.8571 100.377 52.2135 100.166 52.5375C99.1134 54.3357 97.5096 55.9396 94.8528 57.106C93.3461 57.7702 91.6775 58.1266 89.6849 58.1266C87.9352 58.1266 86.5744 57.6892 85.165 57.2356C84.7438 57.0898 84.2902 56.9764 83.8528 56.8306C83.6098 56.7496 83.3506 56.701 83.1562 56.5876C83.0104 56.5066 82.9294 56.3932 82.9456 56.215C82.7025 56.134 82.7674 56.2474 82.8484 56.4256C81.3741 56.0368 80.0133 55.648 78.6525 55.3078C75.8984 54.6112 73.0472 54.1737 70.0339 54.0927C69.7747 54.0927 69.4831 54.0927 69.2401 54.1413C65.7733 54.9676 62.7438 56.1502 60.573 57.9484C57.9161 60.1516 58.0943 62.7113 60.9618 64.9145C61.4964 65.3195 62.0634 65.6921 62.6628 66.0486C64.4934 67.1178 66.6643 67.9278 68.9971 68.6244C72.7718 69.7422 76.7571 70.5036 80.9367 70.9248C81.9249 71.022 82.978 70.9734 83.9824 70.941C84.6304 70.9248 85.1812 70.698 85.5052 70.374C87.4816 68.268 89.4905 66.1781 91.3697 64.0397C91.9043 63.4241 92.5523 62.9867 93.6377 62.7275C94.0427 62.6303 94.3668 62.4521 94.7394 62.3225C94.95 62.2577 95.1768 62.2253 95.4036 62.1605C95.4522 62.2901 95.5818 62.4359 95.5494 62.5655C95.4198 63.1973 95.2416 63.8291 95.0958 64.4771C94.9338 65.1899 94.788 65.9028 94.5936 66.5994C94.545 66.7614 94.3182 66.891 94.1886 67.0368C94.0428 66.9558 93.8808 66.891 93.7349 66.81C93.3623 66.405 93.2651 66.1134 93.1355 65.8379C93.1031 65.7569 93.0221 65.6921 92.8763 65.5301C92.6495 65.7245 92.4713 65.8379 92.3417 65.9675C91.1105 67.1826 89.8469 68.3814 88.6643 69.5964C86.8174 71.5243 83.8852 72.3667 80.2077 72.4477C78.8631 72.4801 77.4861 72.3991 76.1414 72.3019C75.3314 72.2371 74.6672 72.2695 73.9382 72.5125C72.0266 73.1605 70.0987 73.8085 68.5759 74.7481C68.0413 75.0883 67.5553 75.4933 67.2475 75.9145C66.7939 76.5463 67.0045 77.1457 67.7335 77.5669C68.0251 77.729 68.3977 77.8748 68.8351 77.972C70.3255 78.3122 71.9132 78.3284 73.4846 78.3284C76.3682 78.3122 79.2519 78.2474 82.1517 78.215C87.5302 78.134 92.5361 78.944 97.2504 80.4344C98.433 80.807 99.6642 81.1148 100.847 81.4874C101.317 81.6332 101.543 81.5522 101.819 81.3416C103.439 80.159 105.334 79.1708 107.667 78.4904C108.882 78.134 110.211 77.8748 111.539 77.6804C112.268 77.567 113.127 77.6156 113.888 77.7128C114.439 77.7776 114.876 77.9234 115.217 78.1178C115.946 78.539 116.156 79.2356 115.703 79.997C115.152 80.9204 114.083 81.6332 112.916 82.2974C110.761 83.5125 108.234 84.2901 105.156 84.3063C104.103 84.3063 103.05 84.1767 101.948 84.1119C101.155 84.8571 101.398 85.9911 102.597 86.8335C102.759 86.9469 102.937 87.0603 103.115 87.1575C104.281 87.8217 105.691 88.2105 107.408 88.2915C108.915 88.3563 110.146 88.0809 111.183 87.4653C119.736 82.3784 128.306 77.2915 136.876 72.2047C142.32 68.9646 147.747 65.7407 153.174 62.5007C153.465 62.3225 153.741 62.1281 153.903 61.9175C154.292 61.4153 154.891 61.0589 155.766 60.8483C156.543 60.6701 157.289 60.4595 158.066 60.2813C158.277 60.2327 158.633 60.2489 158.811 60.3299C158.941 60.3947 158.941 60.6215 158.86 60.7349C157.564 62.4845 156.252 64.2503 154.891 65.9837C154.761 66.1619 154.308 66.3888 154.065 66.3726C153.546 66.162 153.579 65.9351 153.627 65.7407C153.692 65.3681 153.838 64.9955 153.951 64.6391C154 64.4933 154.081 64.3475 154.146 64.1855C153.627 64.2503 153.433 64.3637 153.255 64.4609C149.448 66.81 145.673 69.1752 141.85 71.508C134.997 75.7039 128.161 79.8998 121.243 84.0633C118.149 85.9263 114.844 87.6435 110.972 88.9558C107.91 89.9926 104.703 90.0736 101.43 89.4094C100.393 89.1988 99.567 88.9072 98.9352 88.5508C97.5744 87.7569 97.1856 86.6391 97.8984 85.3107C98.2386 84.6789 98.757 84.0795 99.2106 83.4315C98.109 83.1236 96.975 82.7996 95.8248 82.4756C93.0059 81.6818 90.1709 80.9042 87.109 80.4344C84.7438 80.078 82.3461 80.078 79.9485 80.078C76.7894 80.0942 73.6304 80.078 70.4713 80.0132C69.5641 79.997 68.6569 79.835 67.7659 79.7054C67.1341 79.6082 66.6157 79.43 66.1945 79.187C65.0442 78.5228 64.7526 77.4212 65.1414 76.6111C65.7409 75.3313 67.1341 74.3593 68.8513 73.5331C70.0501 72.9661 71.3462 72.4477 72.6422 71.9131C71.735 71.7511 70.8277 71.589 69.9367 71.4108C66.1297 70.6332 62.6952 69.5154 59.844 67.8792C59.5685 67.7172 59.3093 67.5552 59.0339 67.3932C57.8351 66.6318 56.8631 65.8055 56.1827 64.9307C51.517 65.9675 48.3579 68.9646 48.9898 71.8483C49.6054 74.6833 53.2342 76.9189 56.4095 79.106C59.5847 81.293 62.9058 83.9823 62.031 86.7849C66.8749 86.2665 71.5244 88.1781 75.3152 90.0088C79.0899 91.8394 82.9942 93.9292 87.8704 94.2856C93.0059 94.6421 98.3196 92.698 99.9397 89.8468C100.588 90.7378 101.576 91.5478 102.807 92.2606C104.994 93.5242 107.91 94.4315 110.842 94.7069C115.411 95.1443 120.287 94.1074 123.317 92.0986C125.05 90.8674 126.168 89.458 127.869 88.3239ZM87.6922 112.462L116.513 95.7113C114.552 95.9705 112.511 96.0191 110.535 95.8409C107.214 95.5331 103.86 94.5125 101.333 93.0544C100.879 92.7952 100.474 92.536 100.085 92.2606C97.2504 94.4476 92.3903 95.7599 87.6436 95.4359C82.5405 95.0795 78.4905 93.103 74.9264 91.3534C74.6024 91.1914 74.2784 91.0456 73.9706 90.8836C70.4713 89.1826 66.3565 87.5139 62.4522 87.9189L59.4065 88.2429L59.9574 86.4771C60.6702 84.2091 57.7541 81.8438 54.8219 79.8188C54.5465 79.6406 54.2873 79.4462 54.0118 79.268C50.9824 77.2105 47.5641 74.8777 46.9161 71.9131C46.3167 69.159 48.5848 66.3564 52.3432 64.7039C51.8734 64.4771 51.4036 64.2503 50.9662 63.9911C48.439 62.5331 46.6731 60.5891 46.1223 58.6612C45.7983 57.511 45.8793 56.3284 46.3167 55.1944L17.4802 71.9293L87.6922 112.462ZM62.6628 52.1649C65.2386 52.5537 67.8955 52.6023 70.5199 52.5375C74.1488 52.4403 77.6805 52.6671 81.0015 53.5419C83.3344 54.1575 85.6024 54.8542 87.8866 55.5346C89.1503 55.9072 90.3653 56.3284 91.6451 56.6848C92.6333 56.9602 93.5729 56.863 94.383 56.4418C94.7394 56.2636 95.0634 56.0368 95.3226 55.81C96.3594 54.9028 96.8292 53.8821 97.2018 52.8291C97.785 51.1443 97.8822 49.4433 97.866 47.6774C96.3594 47.5802 94.9014 47.4182 93.4109 47.3696C89.1665 47.24 84.922 47.159 80.6775 47.0456C78.2961 46.9808 75.8984 46.916 73.598 46.4948C72.869 46.3652 72.1886 46.187 71.6378 45.863C71.5568 45.8144 71.4596 45.7658 71.3786 45.701C71.249 45.62 70.925 45.6038 70.7629 45.6362C68.6893 46.1384 66.5833 46.6244 64.5582 47.1914C62.9544 47.645 61.4478 48.2282 60.33 49.0869C59.4065 49.7997 59.2769 50.7393 60.1356 51.3387C60.2004 51.3873 60.2652 51.4197 60.33 51.4683C60.978 51.8733 61.8042 52.0353 62.6628 52.1649ZM107.781 79.4948C105.982 80.1104 104.881 81.0986 103.601 82.1354C104.913 82.3622 106.08 82.6214 107.262 82.7672C110.292 83.1561 112.511 81.6818 111.588 79.9646C111.49 79.7702 111.328 79.6244 111.118 79.4948C110.875 79.3652 110.567 79.268 110.178 79.2194C109.32 79.1384 108.51 79.2518 107.781 79.4948Z" fill="white"/>
</g>
<g opacity="0.7">
<path opacity="0.7" d="M87.6599 48.7467C87.7247 48.9249 87.8057 49.0383 87.8219 49.1679C87.8705 49.6701 87.8867 50.1561 87.9029 50.6583C87.9029 50.7879 87.9515 50.8851 88.0487 50.9499C88.1459 50.9985 88.2917 51.0309 88.5185 51.0309C89.3771 51.0147 90.2357 51.0633 91.0781 51.0795C91.3535 51.0795 91.5641 51.1119 91.6937 51.1929C91.8233 51.2739 91.8881 51.3711 91.8881 51.5331C91.9043 52.0839 91.9691 52.6509 92.0015 53.2017C92.0177 53.5905 91.8719 53.6877 91.2077 53.6715C90.3491 53.6553 89.4905 53.6391 88.6319 53.6229C88.2593 53.6067 88.0325 53.5743 87.8867 53.4933C87.7408 53.4123 87.6923 53.2827 87.6599 53.0721C87.6113 52.6833 87.5789 52.2945 87.5789 51.9057C87.5789 51.7437 87.5141 51.6141 87.3683 51.5331C87.2224 51.4521 87.0118 51.4197 86.7364 51.4035C85.894 51.3873 85.0678 51.3549 84.2254 51.3549C83.9338 51.3549 83.7232 51.3225 83.5936 51.2415C83.4802 51.1767 83.4154 51.0633 83.4154 50.9175C83.3992 50.3181 83.3344 49.7025 83.302 49.1031C83.2858 48.9249 83.3668 48.8114 83.7394 48.7952C84.76 48.7628 85.7806 48.698 86.8012 48.6656C87.0766 48.6818 87.3682 48.7305 87.6599 48.7467Z" fill="white"/>
</g>
<g opacity="0.7">
<path opacity="0.7" d="M145.916 55.6479C145.948 55.6803 145.965 55.7128 145.997 55.7452C145.884 55.81 145.803 55.9072 145.673 55.9558C145.074 56.134 144.442 56.3122 143.826 56.4904C143.68 56.539 143.518 56.5552 143.389 56.62C143.065 56.7658 142.773 56.944 142.433 57.0736C141.461 57.4138 140.943 57.7702 140.57 58.483C141.234 58.4992 141.834 58.5154 142.417 58.5316C141.753 59.0014 140.748 59.1472 139.695 59.212C139.404 59.2282 139.16 59.1796 138.982 59.0662C138.836 58.9852 138.739 58.8718 138.723 58.7422C138.658 58.3048 138.788 57.8674 139.468 57.5758C140.473 57.1546 141.445 56.701 142.498 56.3284C143.275 56.0692 144.15 55.9072 145.009 55.729C145.284 55.6317 145.608 55.6641 145.916 55.6479Z" fill="white"/>
</g>
<g opacity="0.7">
<path opacity="0.7" d="M98.2549 60.6539C98.4331 61.1075 98.1253 61.4315 97.4935 61.6097C97.1533 61.7069 96.8779 61.7069 96.6997 61.5935C96.6025 61.5287 96.5214 61.4477 96.4728 61.3181C96.408 61.1237 96.3756 60.9131 96.3108 60.6863C94.1724 61.0265 92.0502 61.1399 89.8793 60.9941C87.4331 60.8159 84.9868 60.6377 82.5406 60.4433C81.6496 60.3785 80.7748 60.2651 79.8838 60.1517C79.576 60.1193 79.3006 60.0059 79.0251 59.9411C79.0413 59.8763 79.0413 59.8277 79.0575 59.7629C79.5111 59.7305 79.9486 59.6657 80.386 59.6819C82.2004 59.7629 84.0148 59.8763 85.8293 59.9411C88.9235 60.0707 92.0016 60.1679 95.0958 60.2651C95.4684 60.2813 95.841 60.2489 96.246 60.2327C96.2136 59.9249 96.084 59.6332 96.165 59.374C96.246 59.1148 96.4242 58.7908 96.7483 58.6288C97.5745 58.1914 98.6275 58.0132 99.7453 57.997C100.167 57.9808 100.474 58.0456 100.653 58.1428C100.879 58.2724 100.912 58.4992 100.717 58.7908C100.345 59.374 99.5995 59.7791 98.6923 60.0869C98.2387 60.2165 98.1415 60.3623 98.2549 60.6539ZM97.9957 59.7143C98.0767 59.7305 98.1577 59.7628 98.2387 59.779C98.5141 59.5684 98.8219 59.3578 99.0325 59.131C99.1297 59.0176 99.1135 58.9042 98.9839 58.8232C98.9191 58.7908 98.8057 58.7584 98.6923 58.7584C98.4979 58.7584 98.1577 58.8718 98.1091 58.969C97.9957 59.212 98.0119 59.4713 97.9957 59.7143Z" fill="white"/>
</g>
<g opacity="0.7">
<path opacity="0.7" d="M127.61 9.68777L194.792 48.4713L171.415 62.0633C171.383 61.9013 171.334 61.7231 171.302 61.5611C170.703 59.455 168.823 57.349 166.15 55.729C169.406 53.7525 171.091 50.9985 170.524 48.3579C169.811 45.0368 166.004 42.4447 162.943 40.3549C162.667 40.1767 162.408 39.9823 162.133 39.8041C160.934 38.9779 159.443 37.8925 158.455 36.7908C157.548 35.7702 157.224 34.9116 157.451 34.1502L158.552 30.6185L152.461 31.2666C151.165 31.4124 149.675 31.218 147.909 30.6995C145.997 30.1325 144.118 29.2739 142.708 28.5773C142.384 28.4315 142.077 28.2695 141.753 28.1075C138.14 26.3417 133.652 24.1384 127.918 23.7334C123.349 23.4094 118.586 24.3976 115.2 26.2931C112.398 24.7378 108.753 23.6686 105.124 23.3284C104.832 23.296 104.557 23.2798 104.265 23.2636L127.61 9.68777ZM172.63 59.6009L191.763 48.4713L160.739 30.5699L159.541 34.3932C159.395 34.863 159.654 35.4786 160.334 36.24C161.225 37.2283 162.619 38.2489 163.753 39.0265C164.012 39.2047 164.287 39.3829 164.546 39.5773C167.786 41.7805 171.82 44.5346 172.63 48.2283C173.197 50.8527 171.837 53.5905 168.969 55.7452C170.557 56.8954 171.82 58.2238 172.63 59.6009ZM152.056 30.0677L158.649 29.3549L127.61 11.4374L108.477 22.567C110.859 23.0368 113.159 23.7496 115.168 24.6892C118.894 23.0206 123.608 22.2268 128.144 22.5346C134.527 22.9882 139.29 25.321 143.113 27.1841C143.437 27.3461 143.745 27.4919 144.053 27.6377C145.381 28.2857 147.147 29.0957 148.865 29.5979C150.177 30.0029 151.246 30.1487 152.056 30.0677Z" fill="white"/>
</g>
<g opacity="0.7">
<path opacity="0.7" d="M140.716 67.6524C140.246 67.7982 139.857 67.8954 140.116 68.268C139.436 68.43 138.788 68.5758 138.091 68.7378C137.946 68.5272 137.832 68.3652 137.751 68.2356C136.39 68.2032 135.078 68.1708 133.75 68.1708C133.555 68.1708 133.345 68.3166 133.183 68.43C130.51 70.131 127.48 71.5567 123.916 72.5773C123.009 72.8365 122.069 73.0795 120.984 73.0633C124.37 71.5243 127.14 69.645 130.283 67.8792C129.991 67.8306 129.813 67.7982 129.635 67.782C128.096 67.5552 126.541 67.3446 125.018 67.0854C124.678 67.0368 124.418 66.8262 124.127 66.6966C124.499 66.6156 124.872 66.4698 125.228 66.4698C125.974 66.5022 126.703 66.6318 127.448 66.7128C128.647 66.8424 129.829 67.0044 131.028 67.1178C131.271 67.134 131.611 67.0692 131.773 66.972C138.529 62.9381 145.252 58.9042 151.991 54.8542C152.364 54.6274 152.753 54.4006 153.044 54.1252C153.903 53.3151 155.345 53.0073 156.77 52.6833C157.013 52.6347 157.321 52.6671 157.597 52.6671C157.564 52.8129 157.597 52.9911 157.483 53.1207C156.268 54.595 155.053 56.0692 153.822 57.5272C153.611 57.7864 153.401 58.0618 153.109 58.2886C152.963 58.402 152.639 58.4506 152.412 58.5316C152.315 58.3858 152.121 58.24 152.121 58.1104C152.121 57.7054 152.186 57.2842 152.234 56.8792C152.186 56.863 152.121 56.8306 152.072 56.8144C146.354 60.2813 140.635 63.7481 134.916 67.215C134.932 67.2636 134.965 67.3122 134.981 67.3446C135.807 67.3284 136.65 67.3122 137.476 67.296C137.557 67.296 137.638 67.1664 137.67 67.1016C137.767 66.9072 137.816 66.6966 137.929 66.5022C138.561 65.3682 140.764 64.9631 142.449 65.6598C142.563 65.7084 142.66 65.757 142.757 65.8056C143.275 66.0972 143.308 66.4536 142.741 66.7938C142.158 67.1502 141.445 67.4256 140.716 67.6524ZM140.068 67.0368C140.295 66.9234 140.602 66.8262 140.732 66.6804C140.813 66.5832 140.635 66.4212 140.57 66.2916C140.359 66.3402 140.019 66.3726 139.954 66.4536C139.841 66.6156 139.873 66.81 139.857 67.0044C139.922 67.0044 139.987 67.0206 140.068 67.0368Z" fill="white"/>
</g>
<g opacity="0.7">
<path opacity="0.7" d="M111.328 72.9985C112.025 73.4035 112.495 73.9543 112.965 74.4889C113.272 74.8453 112.981 75.0721 112.3 75.1207C110.243 75.2341 108.542 74.8129 107.084 73.9867C106.954 73.9057 106.857 73.8085 106.792 73.7113C106.663 73.4845 106.841 73.3549 107.23 73.4521C107.635 73.5493 107.975 73.7113 108.364 73.8247C108.882 73.9867 109.384 74.1973 110.113 74.1325C109.951 73.8085 109.676 73.5655 109.336 73.3711C108.785 73.0471 108.056 72.8527 107.327 72.6583C107.343 72.6097 107.343 72.5611 107.359 72.5125C107.862 72.4639 108.364 72.3829 108.866 72.3991C109.951 72.4153 110.729 72.6421 111.328 72.9985Z" fill="white"/>
</g>
<g opacity="0.7">
<path opacity="0.7" d="M164.206 27.3299L200.819 48.4712L153.644 75.8821C152.882 74.4241 154.275 72.8041 156.236 71.8159C158.196 70.8276 160.626 70.1796 162.602 69.1752C166.085 67.4256 167.835 64.5905 167.074 61.9499C166.588 60.2489 165.016 58.564 162.829 57.3004C161.598 56.5876 160.188 56.0206 158.649 55.648C163.542 54.7084 166.912 51.6141 166.264 48.6495C165.648 45.8144 162.019 43.5788 158.844 41.3917C155.669 39.2047 152.348 36.5154 153.222 33.7128C148.378 34.2312 143.729 32.3196 139.938 30.4889C136.163 28.6583 132.259 26.5685 127.383 26.2121C122.247 25.8557 116.934 27.7997 115.314 30.6509C114.666 29.7599 113.677 28.9499 112.446 28.2371C110.259 26.9735 107.343 26.0663 104.411 25.7909C99.8424 25.3534 94.9661 26.3903 91.9367 28.3991C90.2195 29.5331 89.1178 30.9425 87.4006 32.0928C85.6996 33.243 82.8969 34.0368 80.4021 33.6156L127.577 6.20471L164.206 27.3299ZM168.985 65.2223L197.806 48.4712L127.594 7.93814L98.7732 24.6892C100.733 24.43 102.775 24.3814 104.751 24.5596C108.072 24.8674 111.426 25.8881 113.953 27.3461C114.406 27.6053 114.811 27.8645 115.2 28.1399C118.035 25.9529 122.895 24.6406 127.642 24.9646C132.745 25.321 136.795 27.2975 140.359 29.0471C140.683 29.2091 141.007 29.3549 141.315 29.5169C144.814 31.2179 148.929 32.8866 152.834 32.4816L155.879 32.1576L155.328 33.9234C154.616 36.1914 157.532 38.5567 160.464 40.5817C160.739 40.7599 160.999 40.9543 161.274 41.1325C164.303 43.19 167.722 45.5228 168.37 48.4875C168.969 51.2415 166.701 54.0441 162.943 55.6966C163.412 55.9234 163.882 56.1502 164.32 56.4094C166.847 57.8674 168.613 59.8115 169.163 61.7393C169.504 62.9057 169.423 64.0883 168.985 65.2223Z" fill="white"/>
</g>
<g opacity="0.7">
<path opacity="0.7" d="M104.573 73.7761C104.735 73.8733 104.881 73.9867 104.978 74.1163C105.253 74.4565 105.14 74.8129 104.703 75.0559C104.265 75.2989 103.131 75.4609 102.775 75.2827C102.759 75.2827 102.759 75.2665 102.759 75.2665C102.58 75.1693 102.532 74.9587 102.516 74.7967C102.483 74.4727 102.337 74.2459 102.078 74.1001C101.819 73.9543 101.43 73.8733 100.896 73.8895C100.361 73.8895 100.069 74.0677 100.037 74.3431C99.9883 74.8453 100.134 75.3151 100.75 75.6877C100.815 75.7201 100.879 75.7687 100.96 75.8011C101.495 76.1089 102.078 76.4005 102.629 76.6922C102.856 76.8056 103.099 76.919 103.309 77.0324C103.407 77.081 103.488 77.1458 103.569 77.2106C103.731 77.3564 103.779 77.6156 103.666 77.7776C103.585 77.9072 103.147 78.0368 102.904 78.0044C102.354 77.9396 101.722 77.8748 101.301 77.6804C99.3241 76.7731 97.2666 75.9955 94.7718 75.6553C94.4964 75.6229 94.2372 75.5257 94.0104 75.4123C93.9942 75.4123 93.978 75.3961 93.978 75.3961C93.8646 75.3313 93.7674 75.2179 93.7998 75.1531C93.8322 75.0721 94.0752 74.9911 94.221 74.9911C94.7556 74.9749 95.3064 74.9749 95.841 74.9911C96.3756 75.0073 96.9102 75.0559 97.5258 75.0883C96.894 73.6951 98.0767 73.4521 99.6157 73.2739C100.896 73.1281 102.192 73.1605 103.455 73.3711C103.893 73.4845 104.281 73.5979 104.573 73.7761Z" fill="white"/>
</g>
<g opacity="0.7">
<path opacity="0.7" d="M124.192 75.5095C124.305 75.5743 124.386 75.6877 124.386 75.8497C124.435 76.433 124.499 77.0162 124.564 77.5832C124.597 77.9072 124.37 78.1016 123.803 78.1178C122.766 78.1502 121.713 78.1826 120.676 78.215C120.449 78.2312 120.287 78.1988 120.174 78.134C120.077 78.0692 120.012 77.9882 119.979 77.8586C119.85 77.2916 119.688 76.7408 119.51 76.1738C119.445 75.9794 119.38 75.8659 119.25 75.7849C119.088 75.6877 118.829 75.6715 118.392 75.6877C117.792 75.7039 117.177 75.7363 116.577 75.7201C116.237 75.7201 115.994 75.6715 115.832 75.5743C115.686 75.4933 115.605 75.3475 115.573 75.1531C115.492 74.6509 115.443 74.1325 115.411 73.6303C115.379 73.2739 115.686 73.0957 116.318 73.0957C117.258 73.0957 118.197 73.0795 119.137 73.0957C119.364 73.0957 119.607 73.1605 119.834 73.1929C119.898 73.3387 119.979 73.4359 119.996 73.5331C120.044 74.0353 120.093 74.5213 120.093 75.0235C120.093 75.2179 120.125 75.3313 120.239 75.3799C120.352 75.4447 120.53 75.4609 120.854 75.4447C121.729 75.4285 122.604 75.4123 123.479 75.3637C123.819 75.3961 124.046 75.4285 124.192 75.5095Z" fill="white"/>
</g>
<g opacity="0.7">
<path opacity="0.7" d="M158.066 67.3284C157.677 67.7658 157.353 68.0898 157.078 68.43C155.782 70.0662 154.502 71.7024 153.19 73.3387C153.077 73.4845 152.736 73.5817 152.51 73.6951C152.396 73.5331 152.202 73.3711 152.169 73.2091C152.121 72.9013 152.202 72.5773 152.186 72.2695C152.186 72.1885 152.121 72.0426 152.04 72.0102C151.829 71.9778 151.586 72.0102 151.457 72.0751C151.116 72.2371 150.825 72.4315 150.517 72.6097C145.608 75.6229 140.7 78.62 135.791 81.6332C133.75 82.8806 131.757 84.1443 129.651 85.3593C126.524 87.1737 122.993 88.6641 118.894 89.6686C118.376 89.7982 117.841 89.9116 117.29 89.9764C117.047 90.0088 116.756 89.9116 116.496 89.863C116.61 89.7172 116.658 89.5228 116.853 89.4418C117.566 89.134 118.392 88.8909 119.056 88.5507C121.47 87.3033 123.932 86.0883 126.233 84.7599C133.49 80.5964 140.667 76.3843 147.876 72.1885C149.253 71.3946 150.63 70.6008 151.975 69.7908C152.364 69.564 152.688 69.2886 152.931 68.997C153.255 68.6244 153.692 68.349 154.356 68.1708C155.247 67.944 156.122 67.6686 157.013 67.4418C157.337 67.3608 157.694 67.3608 158.066 67.3284Z" fill="white"/>
</g>
<g opacity="0.7">
<path opacity="0.7" d="M110.195 97.0721C110.486 97.1045 110.762 97.1207 111.053 97.1369L87.6761 110.729L20.5098 71.9293L43.8868 58.3372C43.9192 58.4992 43.9678 58.6774 44.0002 58.8394C44.5996 60.9455 46.4788 63.0515 49.1519 64.6715C45.8956 66.648 44.2108 69.402 44.7778 72.0427C45.4906 75.3637 49.2977 77.9558 52.3595 80.0456C52.6349 80.2238 52.8941 80.4182 53.1695 80.5964C54.3684 81.4226 55.8588 82.508 56.847 83.6097C57.7542 84.6303 58.0782 85.4889 57.8514 86.2503L56.7498 89.782L62.8411 89.134C64.1371 88.9882 65.6275 89.1826 67.3934 89.701C69.305 90.268 71.1843 91.1266 72.5937 91.8232C72.9177 91.969 73.2255 92.131 73.5495 92.293C77.1621 94.0588 81.6496 96.2621 87.3845 96.6671C91.953 96.9911 96.7159 96.0029 100.102 94.1074C102.921 95.6465 106.566 96.7319 110.195 97.0721ZM87.6761 108.979L106.809 97.8497C104.427 97.3799 102.127 96.6671 100.118 95.7275C96.3919 97.3961 91.6776 98.1899 87.1415 97.8821C80.7586 97.4285 75.9957 95.0957 72.1725 93.2326C71.8485 93.0706 71.5407 92.9248 71.2328 92.779C69.9044 92.131 68.1386 91.321 66.4214 90.8188C65.1091 90.43 64.0399 90.2842 63.2299 90.3652L56.6364 91.078L87.6761 108.979ZM23.523 71.9293L54.5466 89.8468L55.7454 86.0235C55.8912 85.5537 55.632 84.9381 54.9516 84.1767C54.0606 83.1885 52.6673 82.1678 51.5333 81.3902C51.2741 81.212 50.9987 81.0338 50.7395 80.8394C47.4994 78.6362 43.4494 75.8821 42.6556 72.1885C42.0885 69.564 43.4494 66.8262 46.3168 64.6715C44.713 63.5051 43.4494 62.1767 42.6394 60.7997L23.523 71.9293Z" fill="white"/>
</g>
</g>
<g opacity="0.7">
<path opacity="0.7" d="M77.9883 47.726C78.0045 47.7584 78.0207 47.7908 78.0369 47.8232C77.4213 47.9528 76.8056 48.05 76.2224 48.212C75.1694 48.4874 74.1326 48.7953 73.112 49.1031C72.8366 49.1841 72.6098 49.3461 72.3992 49.5081C72.0752 49.7349 71.7998 50.0265 72.14 50.2695L72.1562 50.2857C72.3668 50.3991 72.8852 50.3991 73.2578 50.3991C73.5818 50.3991 73.9058 50.3343 74.2136 50.3019C73.4522 50.9175 72.4316 51.2253 71.168 51.2253C70.7791 51.2253 70.4713 51.1443 70.2445 51.0309C69.9853 50.8851 69.8719 50.6583 69.9043 50.3829C69.9853 49.8969 70.4551 49.5243 71.087 49.2327C72.9986 48.3579 75.2018 47.888 77.6157 47.7098C77.7453 47.6936 77.8587 47.7098 77.9883 47.726Z" fill="white"/>
</g>
</g>
<path d="M70.9734 151.375C74.7319 150.695 77.9233 147.601 78.7172 143.859C79.187 141.655 78.8954 139.339 79.3652 137.152C79.835 134.965 81.7466 132.113 83.9984 132.211L76.0765 127.853C73.8247 127.755 72.0102 130.574 71.5404 132.778C71.0706 134.981 71.3622 137.297 70.8924 139.484C70.0986 143.211 66.8909 146.305 63.1487 147.001C65.7893 147.925 71.2974 146.434 71.2974 146.434C71.7672 148.67 70.9734 151.375 70.9734 151.375Z" fill="#FF855A" fill-opacity="0.2"/>
</svg>
