<svg width="300" height="300" viewBox="0 0 300 300" fill="none" xmlns="http://www.w3.org/2000/svg">
<path fill-rule="evenodd" clip-rule="evenodd" d="M171.877 30.9889C172.922 30.78 173.967 30.6407 175.151 30.6407C180.516 30.6407 185.114 33.2173 187.413 38.0919C189.224 41.922 189.503 47.6323 187.343 51.3928L150 116.017L112.657 51.3928C110.497 47.6323 110.776 41.922 112.587 38.0919C114.886 33.2173 119.485 30.6407 124.849 30.6407C125.964 30.6407 127.079 30.7103 128.124 30.9889C126.452 17.8969 143.939 14.1365 150 0C155.574 13.0919 173.479 18.663 171.877 30.9889Z" fill="#9627A8"/>
<path fill-rule="evenodd" clip-rule="evenodd" d="M149.93 110.794L114.468 49.3733C111.403 44.0111 114.19 32.8691 124.779 32.8691C132.164 32.8691 136.623 37.883 136.623 44.8468C136.623 48.6769 134.464 52.0892 130.283 52.0892C126.521 52.0892 124.919 49.234 124.919 46.727C124.919 42.7577 130.074 41.4346 131.886 45.2647C131.886 41.6435 130.771 37.2563 124.849 37.2563C118.997 37.2563 115.931 43.3148 118.718 48.2591L149.93 103.83L181.143 48.2591C183.929 43.3148 180.794 37.2563 175.012 37.2563C169.09 37.2563 167.975 41.5738 167.975 45.2647C169.856 41.4346 174.942 42.688 174.942 46.727C174.942 49.3036 173.27 52.0892 169.508 52.0892C165.397 52.0892 163.168 48.6769 163.168 44.8468C163.168 37.883 167.696 32.8691 175.012 32.8691C185.671 32.8691 188.388 44.0111 185.323 49.3733L149.93 110.794ZM149.93 5.43176C153.902 14.6936 169.786 19.0808 169.786 28.4819C169.786 32.2423 167.627 35.7243 163.446 35.7243C159.684 35.7243 158.012 32.8691 158.012 30.3621C158.012 26.3231 163.168 25.0697 164.979 28.8997C165.606 23.0502 154.111 19.7075 149.93 12.7437C145.75 19.7075 134.185 23.0502 134.812 28.8997C136.693 25.0697 141.779 26.3231 141.779 30.3621C141.779 32.9387 140.107 35.7243 136.414 35.7243C132.234 35.7243 130.074 32.312 130.074 28.4819C130.144 19.0808 145.959 14.6936 149.93 5.43176Z" fill="#FFE7B2"/>
<path fill-rule="evenodd" clip-rule="evenodd" d="M149.93 111.769L114.468 50.3482C111.403 44.9861 114.19 33.844 124.779 33.844C132.164 33.844 136.623 38.8579 136.623 45.8217C136.623 49.6518 134.464 53.0641 130.283 53.0641C126.521 53.0641 124.919 50.2089 124.919 47.702C124.919 43.7326 130.074 42.4095 131.886 46.2395C131.886 42.6184 130.771 38.2312 124.849 38.2312C118.997 38.2312 115.931 44.2897 118.718 49.234L149.93 104.875L181.143 49.234C183.929 44.2897 180.794 38.2312 175.012 38.2312C169.09 38.2312 167.975 42.5487 167.975 46.2395C169.856 42.4095 174.942 43.663 174.942 47.702C174.942 50.2786 173.27 53.0641 169.508 53.0641C165.397 53.0641 163.168 49.6518 163.168 45.8217C163.168 38.8579 167.696 33.844 175.012 33.844C185.671 33.844 188.388 44.9861 185.323 50.3482L149.93 111.769ZM149.93 6.47632C153.902 15.7382 169.786 20.0557 169.786 29.5264C169.786 33.3565 167.627 36.7688 163.446 36.7688C159.684 36.7688 158.012 33.9136 158.012 31.4067C158.012 27.4373 163.168 26.1142 164.979 29.9443C165.606 24.0947 154.111 20.7521 149.93 13.7883C145.75 20.7521 134.185 24.0947 134.812 29.9443C136.693 26.1142 141.779 27.4373 141.779 31.4067C141.779 33.9833 140.107 36.7688 136.414 36.7688C132.234 36.7688 130.074 33.3565 130.074 29.5264C130.144 20.0557 145.959 15.7382 149.93 6.47632Z" fill="#C783FC"/>
<path fill-rule="evenodd" clip-rule="evenodd" d="M81.3052 50.4178C81.8626 49.5822 82.5593 48.7465 83.3953 47.9109C87.2272 44.0808 92.2435 42.688 97.3991 44.5683C101.37 45.961 105.62 49.8607 106.735 53.9694L126.034 126.045L53.8552 106.755C49.7446 105.641 45.8431 101.393 44.4497 97.4234C42.6383 92.3398 43.962 87.2563 47.7939 83.4958C48.6299 82.6602 49.4659 81.9638 50.302 81.4067C39.8515 73.3287 49.5356 58.3566 43.8227 43.9415C57.06 49.234 73.6415 40.5292 81.3052 50.4178Z" fill="#9627A8"/>
<path fill-rule="evenodd" clip-rule="evenodd" d="M122.202 122.284L53.7157 103.969C47.7937 102.368 41.8021 92.4792 49.3265 85.0279C54.5517 79.8051 61.3098 80.2229 66.1867 85.0976C68.8341 87.7438 69.7398 91.7828 66.8137 94.7076C64.1662 97.3539 61.0311 96.5182 59.15 94.7076C56.2935 91.8525 59.0803 87.3956 63.0515 88.7884C60.4737 86.2118 56.6418 83.9137 52.3919 88.1616C48.2814 92.2703 50.4412 98.7466 55.8755 100.279L117.325 117.549L100.116 56.1282C98.5833 50.6964 92.104 48.5377 87.9934 52.6463C83.7436 56.8246 86.0427 60.6547 88.6205 63.3009C87.2271 59.2619 91.7556 56.546 94.6121 59.4012C96.4235 61.2118 97.2596 64.4151 94.6121 67.0614C91.686 69.9862 87.7148 69.1505 84.9976 66.4346C80.051 61.4903 79.7027 54.7355 84.8583 49.5823C92.3827 42.0614 102.276 47.9806 103.809 53.9694L122.202 122.284ZM47.7241 47.8413C57.0599 51.6018 71.3423 43.4541 78.0306 50.1394C80.6781 52.7856 81.5838 56.7549 78.6576 59.7494C76.0102 62.3956 72.875 61.56 70.9939 59.7494C68.1374 56.8942 70.9242 52.3678 74.8954 53.7605C71.2726 49.2341 60.6827 54.9444 52.81 52.9945C54.7607 60.8636 48.9781 71.4485 53.5764 75.0697C52.1829 71.1004 56.7115 68.3149 59.568 71.17C61.3794 72.9806 62.2155 76.1839 59.568 78.8302C56.6418 81.755 52.6706 80.9193 49.9535 78.2034C43.3348 71.4485 51.4862 57.1728 47.7241 47.8413Z" fill="#FFE7B2"/>
<path fill-rule="evenodd" clip-rule="evenodd" d="M122.898 123.05L54.4125 104.666C48.4905 103.064 42.4989 93.1755 50.0232 85.7242C55.2485 80.5014 62.0065 80.9192 66.8834 85.7939C69.5309 88.4401 70.4366 92.4791 67.5105 95.4039C64.863 98.0502 61.7278 97.2145 59.8467 95.4039C56.9903 92.5488 59.7771 88.0919 63.7483 89.4847C61.1705 86.9081 57.3386 84.61 53.0887 88.8579C48.9782 92.9666 51.138 99.4429 56.5722 100.975L118.021 118.245L100.813 56.8245C99.2801 51.3927 92.8008 49.234 88.6902 53.3426C84.4403 57.5209 86.7394 61.351 89.3172 63.9972C87.9238 60.0278 92.4524 57.2423 95.3089 60.0975C97.1203 61.9081 97.9564 65.1114 95.3089 67.7577C92.3827 70.6825 88.4115 69.8468 85.6944 67.1309C80.7478 62.1866 80.3995 55.4318 85.5551 50.2786C93.0794 42.7577 102.973 48.7465 104.505 54.6657L122.898 123.05ZM48.4208 48.5376C57.7566 52.2981 72.039 44.1504 78.7274 50.8357C81.3749 53.4819 82.2806 57.4513 79.2847 60.4457C76.6373 63.0919 73.5021 62.2563 71.6907 60.4457C68.8342 57.5905 71.621 53.0641 75.5922 54.5265C71.9694 49.9304 61.3795 55.7103 53.5068 53.6908C55.4575 61.5599 49.6749 72.1449 54.2731 75.766C52.8797 71.7967 57.4083 69.0112 60.2648 71.8663C62.0762 73.6769 62.9122 76.8802 60.2648 79.5265C57.3386 82.4513 53.3674 81.6156 50.6503 78.8997C44.0316 72.2145 52.183 57.8691 48.4208 48.5376Z" fill="#C783FC"/>
<path fill-rule="evenodd" clip-rule="evenodd" d="M31.0032 128.203C30.7942 127.159 30.6549 126.114 30.6549 124.93C30.6549 119.568 33.2327 115.042 38.1096 112.674C41.9415 110.863 47.6544 110.585 51.347 112.744L116.001 150.07L51.347 187.395C47.6544 189.554 41.8718 189.276 38.1096 187.465C33.2327 185.167 30.6549 180.571 30.6549 175.209C30.6549 174.095 30.7246 172.98 31.0032 171.936C17.9052 173.607 14.1431 156.128 0 150.07C13.0283 144.429 18.602 126.602 31.0032 128.203Z" fill="#9627A8"/>
<path fill-rule="evenodd" clip-rule="evenodd" d="M110.776 150.07L49.3266 185.515C43.962 188.579 32.8147 185.863 32.8147 175.209C32.8147 167.827 37.9007 163.37 44.8677 163.37C48.6995 163.37 52.1134 165.529 52.1134 169.707C52.1134 173.468 49.2569 175.139 46.7488 175.139C42.7776 175.139 41.4538 169.986 45.2857 168.175C41.6629 168.175 37.3433 169.29 37.3433 175.209C37.3433 180.989 43.4046 184.053 48.3512 181.337L103.948 150.139L48.3512 118.941C43.4046 116.156 37.3433 119.22 37.3433 125.07C37.3433 130.989 41.6629 132.103 45.2857 132.103C41.4538 130.292 42.7776 125.139 46.7488 125.139C49.3266 125.139 52.1134 126.81 52.1134 130.501C52.1134 134.68 48.6995 136.838 44.8677 136.838C37.9007 136.838 32.8147 132.382 32.8147 125C32.8147 114.415 44.0316 111.629 49.3266 114.694L110.776 150.07ZM5.43433 150.07C14.7005 146.1 19.0897 130.223 28.4952 130.223C32.2574 130.223 35.7409 132.382 35.7409 136.56C35.7409 140.32 32.8844 141.922 30.3066 141.922C26.3354 141.922 25.0117 136.769 28.8435 134.958C22.9912 134.331 19.647 145.822 12.68 150.07C19.647 154.248 23.0609 165.738 28.8435 165.111C25.0117 163.231 26.2657 158.148 30.3066 158.148C32.8844 158.148 35.7409 159.819 35.7409 163.579C35.7409 167.688 32.327 169.916 28.4952 169.916C19.02 169.916 14.7005 154.039 5.43433 150.07Z" fill="#FFE7B2"/>
<path fill-rule="evenodd" clip-rule="evenodd" d="M111.751 150.07L50.3716 185.515C45.007 188.579 33.8597 185.863 33.8597 175.209C33.8597 167.827 38.876 163.37 45.843 163.37C49.6749 163.37 53.0887 165.529 53.0887 169.707C53.0887 173.468 50.2323 175.139 47.7241 175.139C43.7529 175.139 42.4292 169.986 46.261 168.175C42.6382 168.175 38.3186 169.29 38.3186 175.209C38.3186 180.989 44.3799 184.053 49.3265 181.337L104.923 150.139L49.3265 118.941C44.3799 116.156 38.3186 119.22 38.3186 125.07C38.3186 130.989 42.6382 132.103 46.261 132.103C42.4292 130.292 43.7529 125.139 47.7241 125.139C50.3019 125.139 53.0887 126.81 53.0887 130.501C53.0887 134.68 49.6749 136.838 45.843 136.838C38.876 136.838 33.8597 132.382 33.8597 125C33.8597 114.415 45.007 111.629 50.3716 114.694L111.751 150.07ZM6.40967 150.07C15.6758 146.1 20.065 130.223 29.4705 130.223C33.2327 130.223 36.7162 132.382 36.7162 136.56C36.7162 140.32 33.8597 141.922 31.2819 141.922C27.3107 141.922 26.0567 136.769 29.8189 134.958C23.9666 134.331 20.6224 145.822 13.6554 150.07C20.6224 154.248 23.9666 165.738 29.8189 165.111C25.987 163.231 27.2411 158.148 31.2819 158.148C33.8597 158.148 36.7162 159.819 36.7162 163.579C36.7162 167.688 33.3024 169.916 29.4705 169.916C20.065 169.916 15.6758 154.039 6.40967 150.07Z" fill="#C783FC"/>
<path fill-rule="evenodd" clip-rule="evenodd" d="M50.3715 218.663C49.4658 218.106 48.6994 217.41 47.8634 216.574C44.0315 212.744 42.6381 207.73 44.5192 202.646C45.9126 198.677 49.8141 194.429 53.9247 193.315L126.033 173.955L106.665 246.031C105.55 250.139 101.3 254.039 97.3292 255.432C92.2433 257.242 87.1574 255.85 83.3952 252.089C82.5591 251.254 81.8624 250.418 81.3051 249.582C73.293 260.028 58.2442 250.279 43.8922 256.059C49.1871 242.897 40.4783 226.323 50.3715 218.663Z" fill="#9627A8"/>
<path fill-rule="evenodd" clip-rule="evenodd" d="M122.271 177.786L103.878 246.24C102.276 252.228 92.4523 258.148 84.9279 250.627C79.7026 245.404 80.1206 238.719 85.0672 233.774C87.7147 231.128 91.6859 230.223 94.6817 233.148C97.3292 235.794 96.4932 238.997 94.6817 240.808C91.8253 243.663 87.2967 240.877 88.7598 236.908C86.182 239.485 83.8829 243.315 88.1327 247.563C92.2433 251.671 98.7226 249.513 100.255 244.081L117.464 182.66L56.0148 199.93C50.5805 201.462 48.4904 207.939 52.5312 212.047C56.7811 216.226 60.613 213.997 63.1908 211.421C59.1499 212.813 56.4328 208.287 59.2892 205.501C61.1007 203.691 64.2358 202.855 66.953 205.501C69.8791 208.426 69.0431 212.396 66.3259 215.111C61.3794 220.056 54.6214 220.404 49.3961 215.181C41.9414 207.73 47.8633 197.841 53.7853 196.24L122.271 177.786ZM47.7937 252.228C51.5558 242.897 43.4044 228.621 50.0928 221.936C52.7403 219.29 56.7115 218.384 59.7073 221.309C62.3547 223.955 61.5187 227.159 59.7073 228.969C56.8508 231.825 52.3222 229.039 53.7156 225.07C49.1871 228.76 54.9 239.276 52.9493 247.145C60.822 245.125 71.4119 250.905 75.0347 246.379C70.9938 247.772 68.2767 243.245 71.1332 240.39C72.9446 238.579 76.0798 237.744 78.7969 240.39C81.7231 243.315 80.887 247.284 78.1699 250C71.4815 256.616 57.1991 248.538 47.7937 252.228Z" fill="#FFE7B2"/>
<path fill-rule="evenodd" clip-rule="evenodd" d="M122.968 177.089L104.575 245.543C102.972 251.462 93.1489 257.451 85.6245 249.93C80.3993 244.708 80.8173 238.022 85.6942 233.078C88.3417 230.432 92.3129 229.527 95.3087 232.451C97.9562 235.098 97.1201 238.301 95.3087 240.111C92.4522 242.967 87.9933 240.181 89.3867 236.212C86.8089 238.788 84.5098 242.618 88.7597 246.866C92.8702 250.975 99.3496 248.886 100.882 243.384L118.091 181.964L56.7114 199.234C51.2771 200.766 49.1173 207.242 53.2279 211.351C57.4778 215.529 61.3096 213.301 63.8874 210.724C59.8465 212.117 57.1294 207.591 59.9859 204.805C61.7973 202.994 64.9325 202.159 67.6496 204.805C70.5758 207.73 69.7397 211.699 67.0226 214.415C62.076 219.359 55.318 219.708 50.1624 214.485C42.638 207.033 48.56 197.145 54.5516 195.543L122.968 177.089ZM48.4903 251.532C52.2525 242.201 44.1011 227.925 50.7894 221.24C53.4369 218.593 57.4081 217.688 60.4039 220.613C63.0514 223.259 62.2153 226.462 60.4039 228.273C57.5474 231.128 53.0189 228.343 54.4123 224.373C49.8837 228.064 55.5967 238.579 53.6459 246.449C61.5186 244.429 72.1085 250.209 75.7314 245.613C71.6905 247.006 68.9733 242.479 71.8298 239.694C73.6412 237.883 76.7764 237.047 79.4935 239.694C82.4197 242.618 81.5837 246.588 78.8665 249.304C72.1782 255.919 57.8958 247.841 48.4903 251.532Z" fill="#C783FC"/>
<path fill-rule="evenodd" clip-rule="evenodd" d="M128.193 269.011C127.148 269.22 126.103 269.359 124.919 269.359C119.554 269.359 115.026 266.783 112.657 261.838C110.845 258.078 110.567 252.298 112.726 248.607L150.07 183.983L187.413 248.607C189.573 252.298 189.294 258.078 187.483 261.838C185.184 266.783 180.655 269.359 175.221 269.359C174.106 269.359 172.991 269.22 171.946 269.011C173.618 282.103 156.131 285.864 150.07 300C144.426 286.908 126.591 281.337 128.193 269.011Z" fill="#9627A8"/>
<path fill-rule="evenodd" clip-rule="evenodd" d="M150.07 189.276L185.532 250.696C188.597 256.058 185.811 267.201 175.221 267.201C167.836 267.201 163.377 262.187 163.377 255.153C163.377 251.393 165.537 247.98 169.717 247.98C173.479 247.98 175.151 250.836 175.151 253.343C175.151 257.312 169.995 258.635 168.184 254.805C168.184 258.426 169.299 262.744 175.221 262.744C181.003 262.744 184.069 256.685 181.352 251.741L150.139 196.17L118.927 251.741C116.14 256.685 119.206 262.744 124.989 262.744C130.91 262.744 132.025 258.426 132.025 254.805C130.144 258.635 125.058 257.382 125.058 253.343C125.058 250.766 126.73 247.98 130.423 247.98C134.603 247.98 136.763 251.393 136.763 255.153C136.763 262.117 132.304 267.201 124.919 267.201C114.329 267.201 111.542 256.058 114.608 250.696L150.07 189.276ZM150.07 294.568C146.099 285.306 130.214 280.989 130.214 271.518C130.214 267.688 132.374 264.276 136.554 264.276C140.316 264.276 141.918 267.131 141.918 269.638C141.918 273.607 136.763 274.93 134.951 271.1C134.324 276.95 145.82 280.292 150.07 287.256C154.25 280.292 165.746 276.88 165.119 271.1C163.237 274.93 158.152 273.677 158.152 269.638C158.152 267.061 159.824 264.276 163.516 264.276C167.696 264.276 169.856 267.688 169.856 271.518C169.926 280.919 154.041 285.306 150.07 294.568Z" fill="#FFE7B2"/>
<path fill-rule="evenodd" clip-rule="evenodd" d="M150.07 188.231L185.532 249.652C188.597 255.014 185.811 266.156 175.221 266.156C167.836 266.156 163.377 261.142 163.377 254.109C163.377 250.348 165.537 246.936 169.717 246.936C173.479 246.936 175.151 249.791 175.151 252.298C175.151 256.267 169.995 257.59 168.184 253.76C168.184 257.382 169.299 261.699 175.221 261.699C181.003 261.699 184.069 255.641 181.352 250.696L150.139 195.125L118.927 250.696C116.14 255.641 119.206 261.699 124.989 261.699C130.91 261.699 132.025 257.382 132.025 253.76C130.144 257.59 125.058 256.337 125.058 252.298C125.058 249.721 126.73 246.936 130.423 246.936C134.603 246.936 136.763 250.348 136.763 254.109C136.763 261.072 132.304 266.156 124.919 266.156C114.329 266.156 111.542 255.014 114.608 249.652L150.07 188.231ZM150.07 293.524C146.099 284.262 130.214 279.944 130.214 270.473C130.214 266.713 132.374 263.301 136.554 263.301C140.316 263.301 141.918 266.156 141.918 268.663C141.918 272.632 136.763 273.955 134.951 270.125C134.324 275.975 145.82 279.318 150.07 286.281C154.25 279.318 165.746 275.905 165.119 270.125C163.237 273.955 158.152 272.702 158.152 268.663C158.152 266.086 159.824 263.301 163.516 263.301C167.696 263.301 169.856 266.713 169.856 270.473C169.926 279.944 154.041 284.262 150.07 293.524Z" fill="#C783FC"/>
<path fill-rule="evenodd" clip-rule="evenodd" d="M218.765 249.582C218.207 250.487 217.511 251.323 216.675 252.089C212.843 255.919 207.826 257.312 202.671 255.432C198.7 253.969 194.45 250.139 193.335 246.031L174.036 173.955L246.145 193.245C250.256 194.359 254.157 198.607 255.551 202.577C257.362 207.66 255.969 212.744 252.206 216.574C251.37 217.41 250.534 218.036 249.698 218.663C260.149 226.741 250.465 241.713 256.178 256.059C242.94 250.766 226.359 259.471 218.765 249.582Z" fill="#9627A8"/>
<path fill-rule="evenodd" clip-rule="evenodd" d="M177.798 177.716L246.284 196.1C252.206 197.702 258.198 207.521 250.673 215.042C245.448 220.265 238.76 219.847 233.813 214.903C231.166 212.256 230.26 208.287 233.186 205.292C235.834 202.646 239.038 203.482 240.85 205.292C243.706 208.148 240.92 212.674 236.948 211.281C239.526 213.858 243.358 216.156 247.608 211.908C251.718 207.799 249.559 201.323 244.124 199.791L182.675 182.591L199.953 244.011C201.486 249.443 207.966 251.602 212.076 247.493C216.326 243.315 214.027 239.485 211.449 236.838C212.842 240.808 208.314 243.593 205.457 240.738C203.646 238.928 202.81 235.724 205.457 233.078C208.384 230.153 212.355 230.989 215.072 233.705C219.949 238.579 220.367 245.404 215.142 250.557C207.617 258.078 197.794 252.089 196.191 246.17L177.798 177.716ZM252.346 252.159C243.01 248.398 228.727 256.546 222.039 249.861C219.391 247.215 218.486 243.176 221.412 240.251C224.059 237.604 227.264 238.44 229.076 240.251C231.932 243.106 229.145 247.563 225.174 246.17C228.867 250.766 239.387 244.986 247.26 246.936C245.309 239.067 251.091 228.482 246.493 224.861C247.887 228.83 243.358 231.616 240.571 228.76C238.76 226.95 237.924 223.747 240.571 221.1C243.497 218.176 247.469 219.011 250.186 221.727C256.735 228.552 248.583 242.827 252.346 252.159Z" fill="#FFE7B2"/>
<path fill-rule="evenodd" clip-rule="evenodd" d="M177.102 177.02L245.587 195.404C251.509 197.006 257.501 206.825 249.977 214.345C244.751 219.568 238.063 219.15 233.116 214.206C230.469 211.56 229.563 207.591 232.489 204.596C235.137 201.95 238.342 202.786 240.153 204.596C243.01 207.451 240.223 211.978 236.252 210.585C238.829 213.162 242.661 215.46 246.911 211.212C251.022 207.103 248.862 200.627 243.428 199.095L181.978 181.894L199.257 243.315C200.789 248.747 207.269 250.905 211.379 246.797C215.629 242.618 213.33 238.788 210.752 236.142C212.146 240.111 207.617 242.897 204.761 240.042C202.949 238.231 202.113 235.028 204.761 232.382C207.687 229.457 211.658 230.293 214.375 233.008C219.252 237.883 219.67 244.638 214.445 249.861C206.92 257.382 197.097 251.393 195.494 245.474L177.102 177.02ZM251.579 251.462C242.243 247.702 227.961 255.85 221.272 249.164C218.625 246.518 217.719 242.479 220.645 239.554C223.293 236.908 226.498 237.744 228.309 239.554C231.166 242.41 228.379 246.866 224.408 245.474C228.1 250.07 238.62 244.29 246.493 246.24C244.542 238.371 250.325 227.786 245.727 224.164C247.12 228.134 242.592 230.919 239.805 228.064C237.993 226.254 237.157 223.05 239.805 220.404C242.731 217.479 246.702 218.315 249.419 221.031C255.968 227.855 247.887 242.061 251.579 251.462Z" fill="#C783FC"/>
<path fill-rule="evenodd" clip-rule="evenodd" d="M269.066 171.866C269.275 172.911 269.415 173.955 269.415 175.139C269.415 180.501 266.837 185.028 261.89 187.396C258.128 189.206 252.346 189.485 248.653 187.326L183.929 149.93L248.583 112.604C252.276 110.446 258.059 110.724 261.821 112.535C266.698 114.833 269.345 119.429 269.345 124.791C269.345 125.905 269.206 127.019 268.997 128.064C282.095 126.393 285.857 143.872 300 149.93C287.041 155.571 281.398 173.468 269.066 171.866Z" fill="#9627A8"/>
<path fill-rule="evenodd" clip-rule="evenodd" d="M189.294 149.93L250.743 114.485C256.108 111.421 267.255 114.136 267.255 124.791C267.255 132.173 262.169 136.629 255.202 136.629C251.44 136.629 247.957 134.471 247.957 130.292C247.957 126.532 250.813 124.93 253.391 124.93C257.362 124.93 258.686 130.083 254.854 131.894C258.477 131.894 262.796 130.78 262.796 124.861C262.796 119.011 256.735 115.947 251.788 118.733L196.192 149.93L251.788 181.128C256.735 183.914 262.796 180.85 262.796 175C262.796 169.081 258.477 167.967 254.854 167.967C258.686 169.847 257.432 174.93 253.391 174.93C250.813 174.93 247.957 173.259 247.957 169.568C247.957 165.39 251.37 163.231 255.202 163.231C262.169 163.231 267.255 167.758 267.255 175.07C267.255 185.655 256.038 188.44 250.743 185.376L189.294 149.93ZM294.636 149.93C285.369 153.9 281.05 169.777 271.575 169.777C267.813 169.777 264.399 167.618 264.399 163.44C264.399 159.68 267.255 158.078 269.763 158.078C273.735 158.078 275.058 163.162 271.226 165.042C277.079 165.668 280.423 154.178 287.39 150C280.423 145.822 277.009 134.331 271.226 134.958C275.058 136.769 273.804 141.922 269.763 141.922C267.186 141.922 264.399 140.251 264.399 136.56C264.399 132.382 267.813 130.223 271.575 130.223C280.98 130.153 285.369 145.961 294.636 149.93Z" fill="#FFE7B2"/>
<path fill-rule="evenodd" clip-rule="evenodd" d="M188.249 149.93L249.698 114.485C255.063 111.421 266.21 114.136 266.21 124.791C266.21 132.173 261.124 136.629 254.157 136.629C250.395 136.629 246.911 134.471 246.911 130.292C246.911 126.532 249.768 124.93 252.345 124.93C256.317 124.93 257.64 130.083 253.808 131.894C257.431 131.894 261.751 130.78 261.751 124.861C261.751 119.011 255.69 115.947 250.743 118.733L195.146 149.93L250.743 181.128C255.69 183.914 261.751 180.85 261.751 175C261.751 169.081 257.431 167.967 253.808 167.967C257.64 169.847 256.386 174.93 252.345 174.93C249.768 174.93 246.911 173.259 246.911 169.568C246.911 165.39 250.325 163.231 254.157 163.231C261.124 163.231 266.21 167.758 266.21 175.07C266.21 185.655 254.993 188.44 249.698 185.376L188.249 149.93ZM293.59 149.93C284.324 153.9 280.004 169.777 270.529 169.777C266.767 169.777 263.353 167.618 263.353 163.44C263.353 159.68 266.21 158.078 268.718 158.078C272.689 158.078 274.013 163.162 270.181 165.042C276.033 165.668 279.377 154.178 286.344 150C279.377 145.822 275.964 134.331 270.181 134.958C274.013 136.769 272.759 141.922 268.718 141.922C266.14 141.922 263.353 140.251 263.353 136.56C263.353 132.382 266.767 130.223 270.529 130.223C280.004 130.153 284.324 145.961 293.59 149.93Z" fill="#C783FC"/>
<path fill-rule="evenodd" clip-rule="evenodd" d="M249.628 81.2675C250.534 81.8246 251.37 82.5906 252.136 83.3566C255.968 87.1171 257.292 92.2006 255.481 97.2842C254.087 101.254 250.186 105.501 246.075 106.616L173.897 125.975L193.265 53.8301C194.38 49.7215 198.63 45.8218 202.601 44.429C207.687 42.6184 212.773 44.0112 216.605 47.7716C217.441 48.6073 218.068 49.4429 218.695 50.2786C226.707 39.8329 241.756 49.5126 256.108 43.8022C250.813 57.1031 259.521 73.6769 249.628 81.2675Z" fill="#9627A8"/>
<path fill-rule="evenodd" clip-rule="evenodd" d="M177.729 122.215L196.122 53.7606C197.724 47.8413 207.548 41.9221 215.072 49.3733C220.298 54.5962 219.88 61.3511 214.933 66.2954C212.285 68.9416 208.314 69.8469 205.318 66.9221C202.671 64.2759 203.507 61.0725 205.318 59.2619C208.175 56.4068 212.703 59.1923 211.31 63.1617C213.888 60.5851 216.187 56.755 211.937 52.507C207.827 48.3984 201.347 50.5572 199.814 55.9889L182.606 117.41L244.055 100.209C249.489 98.677 251.649 92.2007 247.539 88.092C243.289 83.8441 239.457 86.1422 236.879 88.7188C240.85 87.326 243.637 91.8525 240.781 94.7076C238.969 96.5182 235.764 97.3539 233.117 94.7076C230.191 91.7828 231.027 87.8135 233.744 85.0976C238.621 80.1533 245.379 79.8051 250.604 84.9583C258.128 92.4792 252.137 102.368 246.215 103.9L177.729 122.215ZM252.207 47.7717C248.444 57.1032 256.596 71.3789 249.907 78.0642C247.26 80.7104 243.219 81.6157 240.293 78.6909C237.645 76.0447 238.481 72.8413 240.293 71.0308C243.149 68.1756 247.678 70.9611 246.285 74.9305C250.883 71.2396 245.1 60.7243 247.051 52.8552C239.178 54.8051 228.588 49.0948 224.965 53.6213C228.937 52.2285 231.723 56.755 228.867 59.6101C227.056 61.4207 223.92 62.2564 221.273 59.6101C218.347 56.6853 219.183 52.716 221.83 50.0001C228.588 43.3845 242.871 51.4625 252.207 47.7717Z" fill="#FFE7B2"/>
<path fill-rule="evenodd" clip-rule="evenodd" d="M177.032 122.911L195.425 54.457C197.028 48.5377 206.851 42.6185 214.375 50.0697C219.601 55.2926 219.183 62.0475 214.236 66.9918C211.589 69.638 207.617 70.5433 204.622 67.6185C201.974 64.9723 202.81 61.7689 204.622 59.9583C207.478 57.1032 212.007 59.8887 210.613 63.8581C213.191 61.2815 215.49 57.4514 211.24 53.2035C207.13 49.0948 200.65 51.2536 199.118 56.6853L181.909 118.106L243.358 100.905C248.793 99.3734 250.952 92.8971 246.842 88.7885C242.592 84.5405 238.76 86.8386 236.182 89.4152C240.153 88.0224 242.94 92.5489 240.084 95.3344C238.272 97.145 235.137 97.9806 232.49 95.3344C229.564 92.4096 230.4 88.4402 233.047 85.7244C237.994 80.7801 244.752 80.4319 249.977 85.5851C257.501 93.106 251.51 102.995 245.588 104.527L177.032 122.911ZM251.51 48.4681C247.748 57.7996 255.899 72.0753 249.211 78.7606C246.563 81.4068 242.522 82.3121 239.596 79.3873C236.949 76.7411 237.785 73.5377 239.596 71.7272C242.453 68.872 246.981 71.6575 245.588 75.6269C250.116 71.9361 244.403 61.4207 246.354 53.5516C238.481 55.5711 227.891 49.7912 224.269 54.3177C228.24 52.9249 231.027 57.4514 228.17 60.3065C226.359 62.1171 223.224 62.9528 220.506 60.3065C217.58 57.3817 218.486 53.4124 221.133 50.6965C227.891 44.0809 242.174 52.2285 251.51 48.4681Z" fill="#C783FC"/>
<path fill-rule="evenodd" clip-rule="evenodd" d="M149.93 247.841C203.855 247.841 247.887 203.83 247.887 149.93C247.887 96.0306 203.855 52.0194 149.93 52.0194C96.0055 52.0194 51.9739 95.9609 51.9739 149.93C51.9739 203.9 96.0055 247.841 149.93 247.841Z" fill="#6326BA"/>
<path fill-rule="evenodd" clip-rule="evenodd" d="M149.931 57.3815C201.068 57.3815 242.522 98.816 242.522 149.93C242.522 201.044 201.068 242.479 149.931 242.479C98.7926 242.479 57.4084 201.044 57.4084 149.93C57.4084 98.816 98.8622 57.3815 149.931 57.3815ZM149.931 63.6489C197.585 63.6489 236.252 102.298 236.252 149.93C236.252 197.563 197.585 236.212 149.931 236.212C102.276 236.212 63.6788 197.563 63.6788 149.93C63.6788 102.298 102.276 63.6489 149.931 63.6489Z" fill="#FFE7B2"/>
<path fill-rule="evenodd" clip-rule="evenodd" d="M149.93 66.3648C196.122 66.3648 233.535 103.76 233.535 149.93C233.535 196.1 196.122 233.496 149.93 233.496C103.739 233.496 66.3261 196.1 66.3261 149.93C66.3261 103.76 103.809 66.3648 149.93 66.3648ZM149.93 58.7743C200.302 58.7743 241.059 99.5821 241.059 149.861C241.059 200.139 200.232 240.947 149.93 240.947C99.6285 240.947 58.8018 200.279 58.8018 149.93C58.8018 99.5821 99.6285 58.7743 149.93 58.7743ZM149.93 63.6489C197.585 63.6489 236.252 102.298 236.252 149.93C236.252 197.563 197.585 236.212 149.93 236.212C102.276 236.212 63.6787 197.563 63.6787 149.93C63.6787 102.298 102.276 63.6489 149.93 63.6489ZM149.93 67.9665C195.216 67.9665 231.932 104.666 231.932 149.93C231.932 195.195 195.216 231.894 149.93 231.894C104.645 231.894 67.9982 195.195 67.9982 149.93C67.9982 104.666 104.714 67.9665 149.93 67.9665Z" fill="#C783FC"/>
</svg>
