<svg width="116" height="166" viewBox="0 0 116 166" fill="none" xmlns="http://www.w3.org/2000/svg">
<path fill-rule="evenodd" clip-rule="evenodd" d="M82.8517 143.846C75.0472 142.605 72.9971 146.454 69.7532 147.832C62.4673 150.933 53.2847 150.933 45.9988 147.832C42.7581 146.454 40.7048 142.605 32.9002 143.846C22.6498 145.477 11.3954 151.601 7.76132 157.523C4.12723 163.445 9.49072 166.926 19.7403 165.295C24.2072 164.584 32.7775 161.804 37.3607 161.356C53.8663 159.74 60.33 158.869 76.8356 160.484C81.4196 160.933 91.5448 164.584 96.0117 165.295C106.261 166.926 111.625 163.446 107.991 157.523C104.358 151.6 93.1021 145.477 82.8517 143.846Z" fill="#B9B0BA"/>
<path fill-rule="evenodd" clip-rule="evenodd" d="M15.0469 111.567L31.004 106.423L58.0307 118.605L83.6276 106.067L100.403 111.508L91.2787 119.088L68.8279 131.53L57.8037 137.773L17.5711 114.625L15.0469 111.567Z" fill="#7F0D92"/>
<path fill-rule="evenodd" clip-rule="evenodd" d="M27.7374 146.183L14.3198 160.476L16.2019 162.095L57.7204 139.374L80.1711 151.006L101.628 160.941L87.8335 146.137C87.8335 146.137 79.588 143.649 80.1033 142.756C80.6187 141.863 66.1736 134.641 66.1736 134.641L63.9757 134.439L60.4595 136.67L55.7592 135.62L52.3109 133.998L47.7124 136.502L32.5314 144.921L27.7374 146.183Z" fill="#7F0D92"/>
<path fill-rule="evenodd" clip-rule="evenodd" d="M86.7779 112.25C87.0107 112.264 87.2369 112.332 87.4385 112.45C87.64 112.567 87.8113 112.73 87.9387 112.926L86.7779 112.25ZM65.097 132.901L87.433 145.796C87.7744 145.995 88.0234 146.321 88.1256 146.702C88.2277 147.084 88.1748 147.49 87.9782 147.833V147.833C87.7798 148.174 87.4542 148.423 87.0726 148.526C86.691 148.628 86.2845 148.575 85.9419 148.378L62.1269 134.63L65.0954 132.901H65.097ZM52.4039 135.25L29.6665 148.378C29.3239 148.575 28.9174 148.628 28.5358 148.526C28.1542 148.423 27.8286 148.174 27.6301 147.833V147.833C27.4334 147.49 27.3803 147.084 27.4825 146.702C27.5847 146.32 27.8338 145.995 28.1754 145.796L49.4363 133.518L52.4039 135.25Z" fill="#7F0D92"/>
<path fill-rule="evenodd" clip-rule="evenodd" d="M16.9558 111.69L57.8039 135.276L98.6529 111.69C99.1501 111.404 99.7401 111.327 100.294 111.476C100.848 111.624 101.32 111.986 101.608 112.481V112.481C101.894 112.979 101.971 113.569 101.822 114.123C101.674 114.677 101.313 115.149 100.817 115.438L63.8686 136.77C63.9768 137.433 63.9768 138.111 63.8686 138.774L100.818 160.106C101.314 160.395 101.676 160.867 101.824 161.421C101.972 161.975 101.895 162.565 101.61 163.063C101.322 163.558 100.849 163.92 100.296 164.068C99.7418 164.217 99.1518 164.14 98.6545 163.854L61.7054 142.522C60.6063 143.424 59.2281 143.917 57.8059 143.917C56.3838 143.917 55.0056 143.424 53.9065 142.522L16.9558 163.855C16.4585 164.141 15.8685 164.217 15.3147 164.069C14.7609 163.921 14.2883 163.559 14.0002 163.064V163.064C13.7149 162.566 13.6379 161.976 13.7863 161.422C13.9346 160.868 14.2961 160.395 14.7918 160.107L51.7409 138.775C51.6865 138.444 51.6595 138.109 51.6601 137.773C51.6599 137.437 51.6869 137.102 51.7409 136.77L14.7926 115.438C14.2969 115.149 13.9354 114.677 13.7871 114.123C13.6388 113.569 13.7157 112.979 14.001 112.481C14.2891 111.986 14.7616 111.624 15.3152 111.476C15.8688 111.328 16.4586 111.405 16.9558 111.69V111.69Z" fill="#E544FF"/>
<path fill-rule="evenodd" clip-rule="evenodd" d="M32.2711 105.921C32.8479 105.693 33.5563 105.737 34.2429 105.921C42.9303 108.249 51.1306 113.504 57.7978 120.171C63.9488 114.021 73.1314 108.127 81.3648 105.921C82.1726 105.705 83.0094 105.679 83.6265 106.067L92.7243 109.58L88.944 112.443L62.3689 128.537L58.0417 131.445L48.0345 126.376L28.4238 113.937L23.335 110.894L23.3972 109.44L32.2695 105.926L32.2711 105.921Z" fill="#ECEBE1"/>
<path d="M57.8042 38.4092L18.6997 77.5137L57.8042 116.618L96.9086 77.5137L57.8042 38.4092Z" fill="#ECEBE1"/>
<path fill-rule="evenodd" clip-rule="evenodd" d="M86.4158 82.6672L66.9562 63.2093L72.1096 58.0558L91.5692 77.5154L86.4158 82.6689V82.6672ZM43.4982 68.3611L36.3447 75.5146L31.1912 70.3603L43.4982 58.0542L55.8043 70.3603L50.6508 75.5146L43.4982 68.3611ZM41.499 84.6664L48.6517 77.5138L43.4982 72.3595L36.3447 79.513L29.192 72.3595L24.0386 77.5138L57.8027 111.278L84.4206 84.6664L64.9537 65.2068L59.8003 70.3603L74.1056 84.6664L72.1064 86.6656L64.9537 79.513L52.6468 91.8191L59.8003 98.9726L57.8003 100.972L41.4958 84.6664H41.499ZM52.646 63.2077L57.7995 68.3611L62.9537 63.2077L57.7995 58.0542L52.646 63.2077ZM57.7995 54.0558L64.9529 61.2085L70.1064 56.055L57.7995 43.748L45.4933 56.055L50.6468 61.2085L57.7995 54.0558ZM57.7995 82.6672L62.9537 77.5138L57.7995 72.3595L52.646 77.5138L57.7995 82.6672ZM50.6468 79.517L55.8003 84.6705L50.6468 89.824L45.4933 84.6705L50.6468 79.517ZM66.9521 91.8231L64.9537 93.8183L62.9545 91.8191L64.9537 89.8199L66.9521 91.8231Z" fill="#FC9E61"/>
<path fill-rule="evenodd" clip-rule="evenodd" d="M75.6865 70.3603L79.2624 73.937L82.8391 77.5137L86.4159 81.0897L89.9918 77.5137L86.4159 73.937L82.8391 70.3603L79.2624 66.7843L75.6865 63.2092L72.1097 59.6325L68.533 63.2092L72.1097 66.7859L75.6865 70.3619V70.3603ZM54.2277 70.3603L50.6509 66.7843L47.0742 63.2092L43.4983 59.6325L39.9215 63.2092L36.3448 66.7859L32.7689 70.3619L36.3448 73.9386L39.9215 70.3619L43.4983 66.7859L47.0742 70.3619L50.6509 73.9386L54.2277 70.3619V70.3603ZM47.0742 77.5137L43.4983 81.0897L39.9215 84.6664L43.4983 88.2431L47.0742 91.819L50.6509 95.3958L54.2277 98.9725L57.8036 102.548L61.3803 98.9725L57.8036 95.3958L54.2277 91.819L57.8036 88.2431L61.3803 84.6664L64.9571 81.0897L68.533 84.6664L72.1097 88.2431L75.6865 84.6664L72.1097 81.0897L68.533 77.5137L64.9538 73.937L61.3771 70.3603L64.9538 66.7843L68.5298 70.3603L72.1065 73.937L75.6832 77.5137L79.2592 81.0897L82.8359 84.6664L79.2592 88.2431L75.6832 91.819L72.1065 95.3958L68.5298 98.9725L64.9538 102.547L61.3771 106.124L57.8004 109.7L54.2244 106.124L50.6509 102.547L47.0742 98.9709L43.4983 95.3942L39.9215 91.8174L36.3448 88.2415L32.7689 84.6648L29.1921 81.088L25.6162 77.5137L29.1929 73.937L32.7697 77.5137L36.3456 81.0897L39.9223 77.5137L43.4991 73.937L47.075 77.5137H47.0742ZM54.2277 63.2092L57.8036 59.6325L61.3803 63.2092L57.8036 66.7859L54.2277 63.2092ZM61.3803 56.0565L57.8036 52.4798L54.2277 56.0565L50.6509 59.6325L47.0742 56.0565L50.6509 52.4798L54.2277 48.9031L57.8036 45.3271L61.3803 48.9031L64.9571 52.4798L68.533 56.0565L64.9538 59.6309L61.3771 56.0549L61.3803 56.0565ZM57.8036 81.0913L61.3803 77.5153L57.8036 73.9386L54.2277 77.5153L57.8036 81.0913ZM50.6509 81.0913L47.0742 84.668L50.6509 88.2447L54.2277 84.668L50.6509 81.0913ZM68.533 91.8207L64.9538 88.2431L61.3771 91.819L64.9538 95.3958L68.533 91.8207Z" fill="#F9BE06"/>
<path fill-rule="evenodd" clip-rule="evenodd" d="M57.8038 30.0493L105.269 77.5138L57.8038 124.978L10.3394 77.5138L57.8038 30.0493ZM57.8038 38.4088L18.6996 77.5138L57.8038 116.618L96.9088 77.5138L57.8038 38.4088Z" fill="#9821F4"/>
<path fill-rule="evenodd" clip-rule="evenodd" d="M105.701 75.0416L107.353 76.6935L109.005 75.0416L110.657 73.3898L112.308 71.7379L110.657 70.0869L109.005 71.7379L107.353 73.3865L105.701 71.7347L107.353 70.0836L109.005 68.4318L107.353 66.7799L105.701 68.4318L104.049 70.0869L102.397 68.435L104.049 66.7831L105.7 65.1313L104.049 63.4794L102.397 65.1313L100.745 66.7831L99.0932 65.1313L100.745 63.4794L102.397 61.8284L104.049 60.1765L105.7 58.5247L104.049 56.8728L102.397 55.2218L100.745 53.5699L99.0932 55.2218L97.4421 56.8728L95.7919 58.5239L94.14 60.1757L92.4882 58.5239L94.14 56.872L92.4882 55.221L90.8371 56.872L89.1861 55.2218L87.5342 53.5699L85.8824 51.918L84.2313 53.5699L85.8824 55.2218L87.5342 56.8728L89.1861 58.5239L90.8379 60.1757L92.489 61.8276L94.1409 63.4786L95.7927 65.1305L97.4446 66.7823L99.0956 68.4342L100.747 70.0861L102.399 71.7371L104.049 73.3865L105.7 75.0384L105.701 75.0416ZM113.96 66.7831L115.612 68.435L113.96 70.0869L112.308 68.435L113.96 66.7831ZM110.657 63.4794L112.308 65.1313L110.657 66.7831L109.005 65.1313L110.657 63.4794ZM107.353 60.1765L109.005 61.8284L107.353 63.4794L105.701 61.8284L107.353 60.1765ZM79.2749 32.0982L77.6239 33.75L79.2749 35.4019L80.9268 33.75L79.2749 32.0982ZM71.0165 23.8397L69.3654 25.4916L71.0165 27.1434L72.6683 25.4916L71.0165 23.8397ZM67.7136 27.1434L69.3654 28.7953L67.7136 30.4463L66.0617 32.0982L64.4098 33.75L62.7588 32.0982L61.1069 30.4463L59.4551 28.7985L57.8032 27.1467L59.4551 25.4948L61.1069 23.8429L62.325 22.6248L62.7588 22.1911L64.4098 20.54L66.0617 18.8882L67.7136 20.54L69.3654 22.1911L67.7136 23.8429L66.0617 22.1911L64.4098 23.8429L63.9769 24.2767L62.7588 25.4948L61.1069 27.1467L62.7588 28.7985L64.4098 30.4496L66.0617 28.7985L67.7136 27.1467V27.1434ZM74.3202 27.1434L75.972 28.7953L74.3234 30.4463L72.6716 32.0982L71.0197 33.75L69.3686 35.4019L71.0197 37.0529L72.6716 35.4019L74.3234 33.75L75.9753 35.4019L77.6271 37.0529L79.2782 38.7048L80.93 40.3567L79.2782 42.0085L77.6239 43.6612L79.2749 45.313L80.9268 46.9649L82.5786 48.6168L84.2305 46.9649L82.5786 45.313L80.9268 43.6612L82.5786 42.0101L84.2305 40.3583L85.8816 38.7064L87.5334 40.3583L89.1853 42.0101L90.8371 43.6612L89.1861 45.3114L87.5342 46.9633L85.8824 48.6151L84.2313 50.2662L82.5795 51.918L80.9276 50.2662L79.2758 48.6151L77.6247 46.9633L75.9728 45.3114L74.3234 43.6612L72.6716 42.0101L71.0197 40.3583L69.3686 38.7064L67.7168 37.0546L66.0649 35.4035L67.7168 33.7517L69.3686 32.0998L71.0197 30.448L72.6716 28.7969L74.3234 27.145L74.3202 27.1434ZM72.6683 38.7048L74.3202 40.3567L75.972 42.0085L77.6239 40.3567L75.972 38.7048L74.3234 37.0529L72.6716 38.7048H72.6683ZM85.8816 45.3114L87.5334 43.6596L85.8816 42.0085L84.2305 43.6612L85.8816 45.313V45.3114ZM90.8371 46.9633L92.4882 48.6151L94.14 50.2662L95.7919 51.918L97.4437 50.2662L99.0948 51.918L97.4437 53.5699L95.7919 55.2218L94.14 53.5699L92.4882 51.918L90.8371 50.2662L89.1861 48.6151L90.8379 46.9633H90.8371ZM100.747 56.8728L102.399 58.5247L100.747 60.1765L99.0948 58.5239L100.747 56.872V56.8728ZM99.0948 61.8284L97.4437 63.4794L95.7919 61.8284L97.4437 60.1765L99.0948 61.8284Z" fill="#9821F4"/>
<path fill-rule="evenodd" clip-rule="evenodd" d="M13.2092 68.4353L14.8611 70.0872L16.5121 68.4353L18.164 66.7834L19.8158 65.1316L21.4677 63.4797L23.1187 61.8287L21.4677 60.1768L19.8158 58.5242L18.164 56.8723L16.5121 55.2213L14.8611 53.5694L13.2092 55.2213L11.5614 56.8731L9.90549 58.5242L11.5573 60.176L13.2092 61.8279L14.8611 63.4789L16.5121 61.8279L18.164 60.176L19.8158 61.8279L18.164 63.4789L16.5121 65.1308L14.8611 66.7826L13.2092 65.1308L11.5614 63.4797L9.90953 65.1316L8.25848 66.7834L6.60662 65.1316L4.95476 63.4797L3.30291 65.1316L1.65185 66.7834L0 68.4353L1.65185 70.0872L3.30291 71.7382L4.95476 73.3901L6.60662 71.7382L8.25848 70.0872L9.90953 68.4353L11.5614 66.7834L13.2132 68.4353H13.2092ZM6.60258 75.0419L8.25444 76.6938L9.90549 75.0419L8.25444 73.3868L6.60258 75.0387V75.0419ZM9.90549 71.7382L11.5573 70.0872L13.2092 71.7382L11.5614 73.3868L9.90953 71.735L9.90549 71.7382ZM23.1187 58.5242L24.7706 56.8723L26.4224 55.2213L28.0743 53.5694L26.4241 51.9183L24.7722 50.2665L26.4241 48.6154L28.0759 50.2665L29.7278 51.9183L31.3788 50.2665L29.7278 48.6154L28.0759 46.9636L29.7278 45.3117L31.3788 46.9636L33.0307 48.6154L34.6825 50.2665L33.0307 51.9183L31.3788 53.5702L29.7278 55.2221L28.0759 56.8731L26.4241 58.5242L24.7722 60.176L23.1187 58.5242ZM34.6809 46.9628L36.3328 48.6146L37.9838 46.9628L39.6357 45.3109L41.2867 43.6615L39.6349 42.0104L37.9838 43.6615L36.3328 45.3133L34.6809 46.9652V46.9628ZM41.2875 40.3562L42.9394 38.7043L44.5904 37.0525L42.9394 35.4014L41.2867 33.7504L42.9386 32.0985L44.5896 33.7504L46.2415 35.4022L47.8934 33.7504L46.2415 32.0985L44.5896 30.4466L42.9394 28.7988L41.2867 27.1437L42.9386 25.4919L44.5896 27.1437L46.2415 28.7956L47.8934 30.4466L49.5452 32.0985L51.1963 30.4466L49.546 28.7988L47.8942 27.147L46.2423 25.4951L44.5904 23.8432L46.2423 22.1914L47.8942 23.8432L49.546 25.4951L51.1971 27.147L52.8489 28.7988L54.5008 30.4499L52.8489 32.1017L51.1971 33.7536L49.546 35.4054L47.8942 37.0565L46.2423 38.7083L44.5904 40.3602L42.9394 42.0121L41.2867 40.357L41.2875 40.3562ZM54.5008 27.1429L56.1494 28.7988L57.8005 27.147L56.1494 25.4919L54.4976 23.84L52.8457 22.1882L51.1938 20.5371L49.5428 18.8853L47.8909 20.5371L49.5428 22.1882L51.1938 23.84L52.8457 25.4919L54.4976 27.1437L54.5008 27.1429ZM6.60096 61.8279L8.25283 60.176L9.90387 61.8279L8.25283 63.4789L6.60096 61.8279ZM16.5105 58.5242L14.8594 60.176L13.2092 58.5242L14.8611 56.8723L16.5121 58.5242H16.5105ZM31.3732 40.3562L33.025 38.7043L34.6769 37.0525L36.3287 35.4014L37.9798 33.7495L36.3287 32.0977L34.6769 33.7495L33.025 35.4014L31.3732 37.0525L29.7221 38.7043L28.0703 40.3562L29.7221 42.008L31.3732 43.6591L33.025 45.3109L34.6769 43.6591L33.025 42.008L31.3732 40.3562ZM6.60258 68.4353L4.95073 70.0872L3.29886 68.4353L4.95073 66.7834L6.60258 68.4353ZM19.8158 55.2221L21.4677 53.5702L19.8158 51.9183L18.164 50.2665L19.8158 48.6154L21.4677 50.2665L23.1187 51.9183L24.7706 53.5702L23.1187 55.2221L21.4677 56.8731L19.8158 55.2221ZM21.4677 46.9636L23.1187 48.6154L24.7706 46.9636L23.1187 45.3117L21.4677 46.9636ZM24.7706 43.6599L26.4224 45.3117L28.0743 43.6599L26.4241 42.0088L24.7706 43.6615V43.6599ZM34.6809 40.357L36.3328 38.7051L37.9838 40.357L36.3328 42.0088L34.6809 40.357ZM37.9838 37.0532L39.6357 38.7051L41.2875 37.0532L39.6357 35.4022L37.9838 37.0532ZM37.9838 30.4466L39.6357 32.0985L41.2867 30.4466L39.6357 28.7988L37.9838 30.4466Z" fill="#9821F4"/>
<path fill-rule="evenodd" clip-rule="evenodd" d="M57.8038 134.8C45.2798 127.568 32.7551 120.337 20.2295 113.106L21.6584 110.632C22.4435 109.272 24.0429 109.178 25.5607 109.587C37.4492 112.773 48.6721 119.964 57.7965 129.089C66.2133 120.672 78.7803 112.606 90.0477 109.587C91.5655 109.183 93.1648 109.272 93.95 110.632L95.3789 113.106L57.8038 134.8Z" fill="#D4D4CB"/>
<path fill-rule="evenodd" clip-rule="evenodd" d="M57.8038 133.786L20.6689 112.346L20.2295 113.107L57.8038 134.8L95.3789 113.107L94.9395 112.346L57.8038 133.786Z" fill="#4D3221"/>
<path fill-rule="evenodd" clip-rule="evenodd" d="M9.90575 71.738L11.5616 73.3867L13.2135 71.7348L11.5616 70.087L9.90979 71.738H9.90575ZM113.961 66.7833L112.309 68.4351L113.961 70.087L115.612 68.4351L113.961 66.7833ZM110.658 63.4796L112.309 65.1314L110.658 66.7833L109.006 65.1314L110.658 63.4796ZM107.354 60.1767L105.702 61.8285L107.354 63.4796L109.006 61.8285L107.354 60.1767ZM79.2757 32.0983L77.6246 33.7502L79.2757 35.402L80.9275 33.7502L79.2757 32.0983ZM71.018 23.8398L69.3661 25.4917L71.018 27.1436L72.669 25.4917L71.018 23.8398ZM37.9809 30.4465L39.6327 32.0983L41.287 30.4465L39.636 28.7986L37.9841 30.4497L37.9809 30.4465ZM37.9809 37.0531L39.6327 38.7049L41.2846 37.0531L39.6327 35.402L37.9809 37.0531ZM34.678 40.3568L36.3298 38.7049L37.9809 40.3568L36.3298 42.0087L34.678 40.3568ZM21.4647 46.9634L23.1158 48.6153L24.7676 46.9634L23.1158 45.3116L21.4647 46.9634ZM24.7676 43.6597L26.4195 42.0087L28.0713 43.6597L26.4243 45.3116L24.7709 43.6613L24.7676 43.6597ZM6.59961 61.8285L8.25147 63.4796L9.90252 61.8285L8.25147 60.1767L6.59961 61.8285ZM6.59961 75.0418L8.25147 73.3899L9.90252 75.0418L8.25147 76.6936L6.59961 75.0418Z" fill="#F9BE06"/>
<path fill-rule="evenodd" clip-rule="evenodd" d="M53.3399 12.2422L57.8035 16.449L62.268 12.2422L62.7421 12.7462L58.1509 17.0734V31.9288H57.457V17.0734L52.8657 12.7462L53.3399 12.2422Z" fill="#754D33"/>
<path fill-rule="evenodd" clip-rule="evenodd" d="M53.1024 1.94749H55.8569L57.8036 0L59.7511 1.94749H62.5047V4.70113L64.4522 6.64863L62.5047 8.59612V11.3498H59.7511L57.8036 13.2972L55.8569 11.3498H53.1024V8.59612L51.1558 6.64863L53.1024 4.70113V1.94749Z" fill="#F9BE06"/>
<path fill-rule="evenodd" clip-rule="evenodd" d="M54.9407 3.7849H56.6184L57.8041 2.59912L58.9907 3.7849H60.6676V5.4626L61.8542 6.64839L60.6676 7.83417V9.51188H58.9907L57.8041 10.6977L56.6184 9.51188H54.9407V7.83417L53.7549 6.64839L54.9407 5.4626V3.7849Z" fill="#754D33"/>
</svg>
