<svg width="59" height="59" viewBox="0 0 59 59" fill="none" xmlns="http://www.w3.org/2000/svg">
<circle cx="29.3245" cy="29.3245" r="29.0745" fill="#672CBC" stroke="#6000FF" stroke-width="0.5"/>
<path d="M18.3324 46.49H40.3184C40.865 46.49 41.3893 46.2775 41.7759 45.8993C42.1624 45.521 42.3796 45.008 42.3796 44.4731V32.3236C43.2109 32.2085 43.9967 31.8814 44.6582 31.3753C45.3196 30.8692 45.8334 30.2018 46.1481 29.4401C47.7009 25.7154 43.7915 20.942 37.9459 20.942H37.5701C35.5664 20.9396 33.6455 20.1597 32.2286 18.7733C30.8118 17.3869 30.0148 15.5072 30.0124 13.5465C30.0124 13.3682 29.94 13.1971 29.8112 13.0711C29.6823 12.945 29.5076 12.8741 29.3254 12.8741C29.1431 12.8741 28.9684 12.945 28.8395 13.0711C28.7107 13.1971 28.6383 13.3682 28.6383 13.5465C28.6361 15.5072 27.8392 17.387 26.4223 18.7735C25.0054 20.16 23.0844 20.9398 21.0806 20.942H20.7048C14.8757 20.942 10.9416 25.6926 12.5026 29.4401C12.8173 30.2018 13.3311 30.8692 13.9926 31.3753C14.654 31.8814 15.4398 32.2085 16.2712 32.3236V44.4731C16.2712 45.008 16.4883 45.521 16.8749 45.8993C17.2614 46.2775 17.7857 46.49 18.3324 46.49ZM21.7677 29.6821C21.7677 29.0172 21.9691 28.3673 22.3466 27.8145C22.7241 27.2617 23.2606 26.8308 23.8883 26.5764C24.5161 26.322 25.2068 26.2554 25.8732 26.3851C26.5396 26.5148 27.1517 26.835 27.6321 27.3051C28.1126 27.7752 28.4397 28.3742 28.5723 29.0263C28.7048 29.6784 28.6368 30.3543 28.3768 30.9685C28.1168 31.5828 27.6765 32.1078 27.1115 32.4772C26.5466 32.8465 25.8824 33.0437 25.203 33.0437C24.2922 33.0426 23.4191 32.6881 22.7751 32.0579C22.131 31.4277 21.7688 30.5733 21.7677 29.6821ZM29.3254 45.1454H21.0806V38.4222C21.0806 37.3524 21.5149 36.3263 22.288 35.5698C23.0611 34.8133 24.1097 34.3883 25.203 34.3883C26.2963 34.3883 27.3449 34.8133 28.1179 35.5698C28.891 36.3263 29.3254 37.3524 29.3254 38.4222V45.1454ZM13.7751 28.9331C12.6022 26.1188 15.8692 22.2866 20.7048 22.2866H21.0806C22.8435 22.2847 24.5666 21.7731 26.0334 20.8162C27.5002 19.8593 28.6455 18.4997 29.3254 16.9081C30.0052 18.4997 31.1505 19.8593 32.6173 20.8162C34.0842 21.7731 35.8072 22.2847 37.5701 22.2866H37.9459C42.82 22.2866 46.0409 26.1343 44.8757 28.9331C44.6191 29.5531 44.1789 30.0837 43.6116 30.4568C43.0444 30.8299 42.376 31.0284 41.6925 31.0267C41.5103 31.0267 41.3355 31.0976 41.2067 31.2236C41.0778 31.3497 41.0054 31.5207 41.0054 31.699V44.4731C41.0054 44.6514 40.9331 44.8224 40.8042 44.9485C40.6754 45.0746 40.5006 45.1454 40.3184 45.1454H36.196V33.7953L37.263 34.3177C37.3438 34.3572 37.4317 34.3807 37.5217 34.3869C37.6117 34.3931 37.7022 34.382 37.7878 34.354C37.8734 34.326 37.9525 34.2818 38.0207 34.2239C38.0889 34.166 38.1447 34.0955 38.185 34.0165C38.2254 33.9375 38.2494 33.8515 38.2558 33.7634C38.2621 33.6753 38.2507 33.5868 38.2221 33.503C38.1935 33.4192 38.1484 33.3418 38.0892 33.2751C38.03 33.2084 37.958 33.1537 37.8772 33.1143L33.7549 31.0973C33.5918 31.0176 33.403 31.0046 33.2301 31.0611C33.0572 31.1175 32.9143 31.2389 32.8328 31.3985C32.7514 31.5581 32.738 31.7428 32.7958 31.912C32.8535 32.0812 32.9775 32.2211 33.1406 32.3008L34.8219 33.123V45.1454H30.6995V38.4222C30.6986 37.4418 30.4239 36.4802 29.905 35.6415C29.3861 34.8028 28.6428 34.1188 27.7554 33.6636C28.6401 33.1213 29.3204 32.3121 29.6937 31.3581C30.067 30.4042 30.113 29.3573 29.8247 28.3755C29.5364 27.3937 28.9295 26.5304 28.0956 25.9159C27.2618 25.3013 26.2462 24.969 25.2023 24.969C24.1584 24.969 23.1428 25.3013 22.309 25.9159C21.4751 26.5304 20.8682 27.3937 20.5799 28.3755C20.2916 29.3573 20.3376 30.4042 20.7109 31.3581C21.0842 32.3121 21.7645 33.1213 22.6492 33.6636C21.7621 34.119 21.0191 34.8031 20.5004 35.6418C19.9818 36.4805 19.7072 37.4419 19.7065 38.4222V45.1454H18.3324C18.1501 45.1454 17.9754 45.0746 17.8465 44.9485C17.7177 44.8224 17.6453 44.6514 17.6453 44.4731V31.699C17.6453 31.5207 17.5729 31.3497 17.4441 31.2236C17.3152 31.0976 17.1404 31.0267 16.9582 31.0267C16.2747 31.0284 15.6064 30.8299 15.0391 30.4568C14.4718 30.0837 14.0316 29.5531 13.7751 28.9331Z" fill="#FFF500"/>
</svg>
