<svg width="22" height="15" viewBox="0 0 22 15" fill="none" xmlns="http://www.w3.org/2000/svg">
<path d="M7.10632 14.5862L0.980189 8.45834C0.73672 8.21456 0.599966 7.88412 0.599966 7.53959C0.599966 7.19506 0.73672 6.86461 0.980189 6.62084L7.10806 0.491242C7.35451 0.26159 7.68049 0.136566 8.01731 0.142508C8.35413 0.148451 8.67549 0.284897 8.91369 0.5231C9.15189 0.761303 9.28834 1.08267 9.29428 1.41948C9.30023 1.7563 9.1752 2.08228 8.94555 2.32874L5.03654 6.23948L20.1005 6.23948C20.4147 6.23949 20.7182 6.35327 20.955 6.55977C21.1918 6.76627 21.3458 7.05152 21.3885 7.36277L21.4006 7.53959C21.4006 7.8844 21.2637 8.21509 21.0198 8.45891C20.776 8.70273 20.4453 8.8397 20.1005 8.8397L5.03654 8.8397L8.94555 12.7487C9.07328 12.8677 9.17574 13.0113 9.2468 13.1707C9.31785 13.3302 9.35606 13.5024 9.35914 13.677C9.36222 13.8515 9.33011 14.0249 9.26472 14.1868C9.19933 14.3487 9.10201 14.4957 8.97855 14.6192C8.8551 14.7427 8.70804 14.84 8.54615 14.9054C8.38426 14.9708 8.21087 15.0029 8.0363 14.9998C7.86173 14.9967 7.68957 14.9585 7.53009 14.8874C7.37061 14.8164 7.22708 14.7139 7.10806 14.5862H7.10632Z" fill="#8C89A0"/>
</svg>
