<svg width="44" height="44" viewBox="0 0 44 44" fill="none" xmlns="http://www.w3.org/2000/svg">
<path d="M43.6233 21.0891L37.9341 15.4001V7.3542C37.9341 6.64382 37.3561 6.06583 36.6457 6.06583L28.6002 6.06601L22.911 0.376747C22.4086 -0.125625 21.5914 -0.125539 21.089 0.376747L15.4 6.06583H7.35417C6.64378 6.06583 6.06589 6.64382 6.06589 7.3542L6.06597 15.3997L0.376715 21.0891C-0.125572 21.5914 -0.125572 22.4087 0.376715 22.911L6.06589 28.6V36.6459C6.06589 37.3562 6.64387 37.9342 7.35417 37.9342L15.3998 37.9341L21.089 43.6233C21.3402 43.8745 21.6701 44.0001 22 44.0001C22.3299 44.0001 22.6598 43.8745 22.911 43.6233L28.6 37.9342H36.6458C37.3563 37.9342 37.9342 37.3562 37.9342 36.6459V33.7898C37.9342 33.4339 37.6458 33.1454 37.2898 33.1454C36.9338 33.1454 36.6454 33.4339 36.6454 33.7898L36.6458 36.6454H28.6C28.2558 36.6454 27.9323 36.7795 27.6889 37.0228L22.0003 42.712L16.311 37.0227C16.0676 36.7794 15.7441 36.6454 15.4 36.6454L7.35468 36.6459V28.6C7.35468 28.2558 7.22065 27.9323 6.97732 27.689L1.28807 22.0003L6.97724 16.3111C7.22065 16.0677 7.35468 15.7442 7.35468 15.4L7.35417 7.35454H15.4C15.7441 7.35454 16.0676 7.2206 16.311 6.97718L21.9997 1.28793L27.6889 6.97718C27.9322 7.22051 28.2558 7.35454 28.6 7.35454L36.6454 7.35411V15.4C36.6454 15.7441 36.7794 16.0677 37.0227 16.311L42.712 21.9996L37.0227 27.689C36.7794 27.9323 36.6454 28.2558 36.6454 28.6V30.7842C36.6454 31.1401 36.9338 31.4286 37.2898 31.4286C37.6458 31.4286 37.9342 31.1401 37.9342 30.7842L37.934 28.6003L43.6234 22.911C44.1256 22.4086 44.1256 21.5914 43.6233 21.0891Z" fill="#853BD4"/>
<path d="M10.518 34.4017H16.8625L21.3488 38.8879C21.5226 39.0617 21.7537 39.1575 21.9995 39.1575C22.2453 39.1575 22.4765 39.0617 22.6503 38.8879L27.1365 34.4017H33.481C33.9885 34.4017 34.4014 33.9889 34.4014 33.4814V27.1369L38.8878 22.6506C39.2464 22.2918 39.2464 21.708 38.8877 21.3492L34.4014 16.863V10.5185C34.4014 10.0111 33.9885 9.59824 33.481 9.59824H27.1365L22.6503 5.11211C22.4765 4.93821 22.2453 4.84241 21.9995 4.84241C21.7537 4.84241 21.5226 4.93812 21.3488 5.11202L16.8625 9.59824H10.518C10.0105 9.59824 9.59769 10.0111 9.59769 10.5185V16.863L5.11147 21.3493C4.93766 21.5231 4.84186 21.7542 4.84186 22.0001C4.84186 22.2459 4.93757 22.477 5.11147 22.6508L9.59769 27.1371V33.4816C9.59769 33.9889 10.0105 34.4017 10.518 34.4017ZM34.9919 19.2761L37.7158 21.9999L34.9919 24.7237C35.1761 23.8442 35.2735 22.9332 35.2735 21.9999C35.2735 21.0665 35.1761 20.1555 34.9919 19.2761ZM10.8865 33.1129V29.2506C11.8935 30.7887 13.2107 32.1059 14.7488 33.1129H10.8865ZM21.9995 37.7162L19.2758 34.9923C20.1552 35.1765 21.0662 35.2738 21.9995 35.2738C22.9329 35.2738 23.8439 35.1765 24.7232 34.9923L21.9995 37.7162ZM33.1126 33.1129H29.2502C30.7884 32.1059 32.1056 30.7887 33.1126 29.2505V33.1129ZM33.1126 10.8869V14.7493C32.1056 13.2111 30.7884 11.8938 29.2502 10.8869H33.1126ZM21.9995 6.28371L24.7233 9.00754C23.8439 8.82341 22.9329 8.72606 21.9995 8.72606C21.0745 8.72606 20.1655 8.8192 19.2814 9.00195L21.9995 6.28371ZM12.6105 14.55C12.8319 14.2714 12.7855 13.866 12.5068 13.6446C12.2281 13.4231 11.8227 13.4695 11.6013 13.7483C11.3465 14.0691 11.1085 14.3991 10.8864 14.7368V10.8869H14.736C14.4317 11.0868 14.1339 11.3 13.8433 11.5266C13.5626 11.7455 13.5125 12.1504 13.7315 12.431C13.9502 12.7117 14.3551 12.7617 14.6358 12.543C16.7569 10.889 19.3032 10.0148 21.9995 10.0148C28.6081 10.0148 33.9846 15.3913 33.9846 21.9999C33.9846 28.6085 28.6081 33.985 21.9995 33.985C15.3908 33.985 10.0144 28.6085 10.0144 21.9999C10.0144 19.2636 10.9121 16.6876 12.6105 14.55ZM6.28325 21.9999L9.00123 19.2819C8.81882 20.1656 8.7256 21.0744 8.7256 21.9999C8.7256 22.9333 8.82295 23.8443 9.00716 24.7238L6.28325 21.9999Z" fill="#853BD4"/>
</svg>
