<svg width="19" height="21" viewBox="0 0 19 21" fill="none" xmlns="http://www.w3.org/2000/svg">
<path d="M18.3365 16.2171C17.7363 15.6821 17.2108 15.0687 16.7742 14.3934C16.2976 13.4614 16.0119 12.4435 15.9339 11.3996V8.32485C15.938 6.68516 15.3433 5.1004 14.2613 3.86832C13.1794 2.63624 11.6848 1.84165 10.0583 1.63385V0.830929C10.0583 0.610553 9.97074 0.399203 9.81492 0.243374C9.65909 0.0875441 9.44774 0 9.22736 0C9.00698 0 8.79563 0.0875441 8.6398 0.243374C8.48398 0.399203 8.39643 0.610553 8.39643 0.830929V1.6463C6.78453 1.86908 5.30797 2.66847 4.24025 3.89641C3.17252 5.12435 2.58598 6.69763 2.58926 8.32485V11.3996C2.51131 12.4435 2.22563 13.4614 1.749 14.3934C1.32008 15.0671 0.803042 15.6804 0.211623 16.2171C0.14523 16.2755 0.0920192 16.3472 0.0555306 16.4277C0.019042 16.5082 0.000111909 16.5956 0 16.6839V17.5304C0 17.6955 0.0655761 17.8538 0.182302 17.9705C0.299028 18.0873 0.457343 18.1528 0.622419 18.1528H17.9257C18.0907 18.1528 18.2491 18.0873 18.3658 17.9705C18.4825 17.8538 18.5481 17.6955 18.5481 17.5304V16.6839C18.548 16.5956 18.529 16.5082 18.4926 16.4277C18.4561 16.3472 18.4029 16.2755 18.3365 16.2171ZM1.29463 16.908C1.87374 16.3486 2.38361 15.7217 2.81333 15.0408C3.41373 13.9151 3.76404 12.6731 3.84032 11.3996V8.32485C3.81564 7.5954 3.938 6.86844 4.20011 6.18726C4.46222 5.50608 4.85873 4.88461 5.36603 4.35986C5.87332 3.83511 6.48102 3.41781 7.15295 3.1328C7.82488 2.8478 8.54728 2.70093 9.27715 2.70093C10.007 2.70093 10.7294 2.8478 11.4014 3.1328C12.0733 3.41781 12.681 3.83511 13.1883 4.35986C13.6956 4.88461 14.0921 5.50608 14.3542 6.18726C14.6163 6.86844 14.7387 7.5954 14.714 8.32485V11.3996C14.7903 12.6731 15.1406 13.9151 15.741 15.0408C16.1707 15.7217 16.6806 16.3486 17.2597 16.908H1.29463Z" fill="#9627A8"/>
<path d="M9.30517 20.2317C9.69725 20.2227 10.0735 20.0753 10.3674 19.8156C10.6613 19.5559 10.8538 19.2006 10.911 18.8126H7.63708C7.69589 19.2111 7.89746 19.5748 8.2043 19.8358C8.51114 20.0968 8.90235 20.2375 9.30517 20.2317V20.2317Z" fill="#9627A8"/>
</svg>
