<svg width="19" height="21" viewBox="0 0 19 21" fill="none" xmlns="http://www.w3.org/2000/svg">
<path d="M19 16.5418L18.7884 16.3551C18.188 15.8202 17.6625 15.2067 17.2261 14.5314C16.7495 13.5993 16.4638 12.5815 16.3858 11.5375V8.46279C16.3899 6.8231 15.7952 5.23834 14.7132 4.00626C13.6313 2.77418 12.1367 1.97959 10.5102 1.77179V0.968869C10.5102 0.748493 10.4226 0.537143 10.2668 0.381313C10.111 0.225484 9.89964 0.137939 9.67926 0.137939C9.45889 0.137939 9.24754 0.225484 9.09171 0.381313C8.93588 0.537143 8.84834 0.748493 8.84834 0.968869V1.78424C7.23643 2.00702 5.75987 2.80641 4.69215 4.03435C3.62443 5.26229 3.03789 6.83557 3.04117 8.46279V11.5375C2.96321 12.5815 2.67754 13.5993 2.2009 14.5314C1.77198 15.2051 1.25495 15.8184 0.663527 16.3551L0.451904 16.5418V18.297H19V16.5418Z" fill="black"/>
<path d="M8.08899 18.9505C8.14357 19.3451 8.33907 19.7065 8.63939 19.9682C8.9397 20.2298 9.32454 20.3739 9.72284 20.3739C10.1211 20.3739 10.506 20.2298 10.8063 19.9682C11.1066 19.7065 11.3021 19.3451 11.3567 18.9505H8.08899Z" fill="black"/>
</svg>
