<svg width="59" height="59" viewBox="0 0 59 59" fill="none" xmlns="http://www.w3.org/2000/svg">
<circle cx="29.6755" cy="29.4703" r="29.0745" fill="#672CBC" stroke="#6000FF" stroke-width="0.5"/>
<path d="M41.6976 46.3635C41.8761 46.3635 42.0472 46.2926 42.1734 46.1664C42.2996 46.0402 42.3705 45.8691 42.3705 45.6906V12.9776C42.3705 12.7991 42.2996 12.628 42.1734 12.5018C42.0472 12.3756 41.8761 12.3047 41.6976 12.3047H21.5114C20.2627 12.3061 19.0655 12.8028 18.1825 13.6858C17.2995 14.5688 16.8028 15.766 16.8013 17.0148V41.6534C16.8028 42.9021 17.2995 44.0993 18.1825 44.9824C19.0655 45.8654 20.2627 46.3621 21.5114 46.3635H41.6976ZM41.0247 36.9433H22.1843V13.6504H41.0247V36.9433ZM18.1471 17.0148C18.1481 16.2395 18.4163 15.4883 18.9066 14.8877C19.3968 14.2871 20.0792 13.8739 20.8386 13.7177V36.9991C19.816 37.1454 18.87 37.6245 18.1471 38.3624V17.0148ZM18.1471 41.6534C18.1481 40.7614 18.5029 39.9063 19.1337 39.2756C19.7644 38.6449 20.6195 38.2901 21.5114 38.289H41.0247V39.6348H35.6418C35.4633 39.6348 35.2922 39.7057 35.166 39.8318C35.0398 39.958 34.9689 40.1292 34.9689 40.3076C34.9689 40.4861 35.0398 40.6572 35.166 40.7834C35.2922 40.9096 35.4633 40.9805 35.6418 40.9805H41.0247V42.3263H32.2774C32.0989 42.3263 31.9278 42.3971 31.8016 42.5233C31.6754 42.6495 31.6045 42.8207 31.6045 42.9991C31.6045 43.1776 31.6754 43.3487 31.8016 43.4749C31.9278 43.6011 32.0989 43.672 32.2774 43.672H41.0247V45.0177H21.5114C20.6195 45.0167 19.7644 44.6619 19.1337 44.0312C18.5029 43.4005 18.1481 42.5453 18.1471 41.6534Z" fill="#FFF500"/>
<path d="M25.3098 26.1026L26.8944 28.2323V30.6802C26.8944 31.0371 27.0362 31.3794 27.2885 31.6318C27.5409 31.8841 27.8832 32.0259 28.2401 32.0259H29.7204L30.4855 33.0534C30.6102 33.221 30.7723 33.3573 30.9588 33.4514C31.1453 33.5455 31.3512 33.595 31.5601 33.5957C31.769 33.5965 31.9752 33.5487 32.1624 33.4559C32.3497 33.3632 32.5127 33.2281 32.6387 33.0615L33.4212 32.0259H34.9689C35.3258 32.0259 35.6681 31.8841 35.9204 31.6318C36.1728 31.3794 36.3146 31.0371 36.3146 30.6802V28.1946L37.8911 26.1087C38.0665 25.8754 38.1616 25.5917 38.1623 25.2999C38.163 25.0081 38.0693 24.7239 37.8952 24.4897L36.3146 22.3803V19.9156C36.3146 19.5586 36.1728 19.2163 35.9204 18.964C35.6681 18.7116 35.3258 18.5698 34.9689 18.5698H33.4589L32.6844 17.5376C32.5591 17.3705 32.3966 17.2348 32.2097 17.1414C32.0228 17.048 31.8168 16.9993 31.6079 16.9993C31.3989 16.9993 31.1929 17.048 31.006 17.1414C30.8192 17.2348 30.6566 17.3705 30.5313 17.5376L29.7554 18.5712H28.2401C27.8832 18.5712 27.5409 18.7129 27.2885 18.9653C27.0362 19.2177 26.8944 19.56 26.8944 19.9169V22.3837L25.3118 24.4931C25.1391 24.7258 25.0457 25.0078 25.0453 25.2975C25.0449 25.5873 25.1376 25.8695 25.3098 26.1026ZM28.1055 23.0108C28.1929 22.8943 28.2401 22.7526 28.2401 22.6071V19.9156H30.0919C30.1963 19.9156 30.2994 19.8912 30.3928 19.8445C30.4862 19.7978 30.5675 19.73 30.6302 19.6464L31.6079 18.3444L32.5842 19.6464C32.6469 19.73 32.7281 19.7978 32.8216 19.8445C32.915 19.8912 33.018 19.9156 33.1225 19.9156H34.9689V22.6071C34.9686 22.7527 35.0158 22.8944 35.1034 23.0108L36.8179 25.2985L35.1034 27.5628C35.0161 27.6792 34.9689 27.8209 34.9689 27.9665V30.6782H33.0848C32.9803 30.6782 32.8773 30.7025 32.7839 30.7492C32.6905 30.7959 32.6092 30.8637 32.5465 30.9473L31.5621 32.25L30.5952 30.9513C30.5325 30.8678 30.4512 30.7999 30.3578 30.7532C30.2644 30.7065 30.1613 30.6822 30.0569 30.6822H28.2401V28.0109C28.2401 27.8653 28.1929 27.7236 28.1055 27.6072L26.387 25.2985L28.1055 23.0108Z" fill="#FFF500"/>
<path d="M31.6046 29.3344C32.1399 29.3344 32.6534 29.1217 33.0319 28.7432C33.4105 28.3646 33.6232 27.8512 33.6232 27.3158V23.2786C33.6232 22.7432 33.4105 22.2298 33.0319 21.8512C32.6534 21.4726 32.1399 21.2599 31.6046 21.2599C31.0692 21.2599 30.5557 21.4726 30.1772 21.8512C29.7986 22.2298 29.5859 22.7432 29.5859 23.2786V27.3158C29.5859 27.8512 29.7986 28.3646 30.1772 28.7432C30.5557 29.1217 31.0692 29.3344 31.6046 29.3344ZM30.9317 23.2786C30.9317 23.1001 31.0026 22.929 31.1288 22.8028C31.255 22.6766 31.4261 22.6057 31.6046 22.6057C31.783 22.6057 31.9542 22.6766 32.0803 22.8028C32.2065 22.929 32.2774 23.1001 32.2774 23.2786V27.3158C32.2774 27.4943 32.2065 27.6654 32.0803 27.7916C31.9542 27.9178 31.783 27.9887 31.6046 27.9887C31.4261 27.9887 31.255 27.9178 31.1288 27.7916C31.0026 27.6654 30.9317 27.4943 30.9317 27.3158V23.2786Z" fill="#FFF500"/>
</svg>
