<svg width="59" height="59" viewBox="0 0 59 59" fill="none" xmlns="http://www.w3.org/2000/svg">
<circle cx="29.3245" cy="29.3245" r="29.0745" stroke="#CDCDCD" stroke-width="0.5"/>
<path d="M41.3466 46.2177C41.5251 46.2177 41.6962 46.1469 41.8224 46.0207C41.9486 45.8945 42.0195 45.7233 42.0195 45.5449V12.8318C42.0195 12.6534 41.9486 12.4822 41.8224 12.356C41.6962 12.2298 41.5251 12.1589 41.3466 12.1589H21.1604C19.9117 12.1604 18.7145 12.6571 17.8315 13.5401C16.9484 14.4231 16.4517 15.6203 16.4503 16.869V41.5076C16.4517 42.7564 16.9484 43.9536 17.8315 44.8366C18.7145 45.7196 19.9117 46.2163 21.1604 46.2177H41.3466ZM40.6737 36.7975H21.8333V13.5047H40.6737V36.7975ZM17.7961 16.869C17.797 16.0938 18.0653 15.3425 18.5555 14.7419C19.0458 14.1413 19.7282 13.7281 20.4876 13.572V36.8534C19.4649 36.9996 18.519 37.4787 17.7961 38.2166V16.869ZM17.7961 41.5076C17.7971 40.6157 18.1519 39.7606 18.7826 39.1298C19.4134 38.4991 20.2685 38.1443 21.1604 38.1433H40.6737V39.489H35.2908C35.1123 39.489 34.9412 39.5599 34.815 39.6861C34.6888 39.8123 34.6179 39.9834 34.6179 40.1619C34.6179 40.3403 34.6888 40.5115 34.815 40.6377C34.9412 40.7639 35.1123 40.8348 35.2908 40.8348H40.6737V42.1805H31.9264C31.7479 42.1805 31.5768 42.2514 31.4506 42.3776C31.3244 42.5038 31.2535 42.6749 31.2535 42.8534C31.2535 43.0318 31.3244 43.203 31.4506 43.3292C31.5768 43.4554 31.7479 43.5262 31.9264 43.5262H40.6737V44.872H21.1604C20.2685 44.8709 19.4134 44.5161 18.7826 43.8854C18.1519 43.2547 17.7971 42.3996 17.7961 41.5076Z" fill="#CDCDCD"/>
<path d="M24.9587 25.9569L26.5434 28.0865V30.5344C26.5434 30.8913 26.6851 31.2336 26.9375 31.486C27.1899 31.7384 27.5322 31.8802 27.8891 31.8802H29.3694L30.1345 32.9076C30.2592 33.0753 30.4212 33.2115 30.6078 33.3057C30.7943 33.3998 31.0001 33.4492 31.2091 33.45C31.418 33.4508 31.6242 33.4029 31.8114 33.3102C31.9986 33.2174 32.1617 33.0824 32.2877 32.9157L33.0702 31.8802H34.6178C34.9748 31.8802 35.317 31.7384 35.5694 31.486C35.8218 31.2336 35.9636 30.8913 35.9636 30.5344V28.0488L37.5401 25.9629C37.7154 25.7297 37.8106 25.4459 37.8113 25.1541C37.812 24.8623 37.7183 24.5781 37.5442 24.344L35.9636 22.2345V19.7698C35.9636 19.4129 35.8218 19.0706 35.5694 18.8182C35.317 18.5658 34.9748 18.4241 34.6178 18.4241H33.1079L32.3334 17.3919C32.2081 17.2247 32.0455 17.0891 31.8587 16.9957C31.6718 16.9022 31.4658 16.8536 31.2568 16.8536C31.0479 16.8536 30.8419 16.9022 30.655 16.9957C30.4681 17.0891 30.3056 17.2247 30.1802 17.3919L29.4044 18.4254H27.8891C27.5322 18.4254 27.1899 18.5672 26.9375 18.8196C26.6851 19.0719 26.5434 19.4142 26.5434 19.7712V22.2379L24.9608 24.3474C24.7881 24.58 24.6946 24.862 24.6943 25.1518C24.6939 25.4415 24.7866 25.7238 24.9587 25.9569ZM27.7545 22.865C27.8419 22.7486 27.8891 22.6069 27.8891 22.4613V19.7698H29.7409C29.8453 19.7698 29.9483 19.7455 30.0418 19.6988C30.1352 19.6521 30.2165 19.5842 30.2792 19.5007L31.2568 18.1986L32.2332 19.5007C32.2959 19.5842 32.3771 19.6521 32.4706 19.6988C32.564 19.7455 32.667 19.7698 32.7715 19.7698H34.6178V22.4613C34.6175 22.6069 34.6648 22.7487 34.7524 22.865L36.4669 25.1528L34.7524 27.417C34.6651 27.5335 34.6178 27.6751 34.6178 27.8207V30.5324H32.7338C32.6293 30.5324 32.5263 30.5567 32.4329 30.6034C32.3394 30.6502 32.2582 30.718 32.1955 30.8016L31.2111 32.1042L30.2442 30.8056C30.1815 30.722 30.1002 30.6542 30.0068 30.6075C29.9134 30.5608 29.8103 30.5364 29.7059 30.5364H27.8891V27.8651C27.8891 27.7195 27.8419 27.5779 27.7545 27.4614L26.036 25.1528L27.7545 22.865Z" fill="#CDCDCD"/>
<path d="M31.2535 29.1887C31.7889 29.1887 32.3024 28.976 32.6809 28.5974C33.0595 28.2189 33.2722 27.7054 33.2722 27.1701V23.1328C33.2722 22.5974 33.0595 22.084 32.6809 21.7054C32.3024 21.3269 31.7889 21.1142 31.2535 21.1142C30.7182 21.1142 30.2047 21.3269 29.8262 21.7054C29.4476 22.084 29.2349 22.5974 29.2349 23.1328V27.1701C29.2349 27.7054 29.4476 28.2189 29.8262 28.5974C30.2047 28.976 30.7182 29.1887 31.2535 29.1887ZM30.5807 23.1328C30.5807 22.9544 30.6516 22.7832 30.7777 22.657C30.9039 22.5308 31.0751 22.4599 31.2535 22.4599C31.432 22.4599 31.6031 22.5308 31.7293 22.657C31.8555 22.7832 31.9264 22.9544 31.9264 23.1328V27.1701C31.9264 27.3485 31.8555 27.5197 31.7293 27.6458C31.6031 27.772 31.432 27.8429 31.2535 27.8429C31.0751 27.8429 30.9039 27.772 30.7777 27.6458C30.6516 27.5197 30.5807 27.3485 30.5807 27.1701V23.1328Z" fill="#CDCDCD"/>
</svg>
